<svg width="1200" height="630" viewBox="0 0 1200 630" fill="none" xmlns="http://www.w3.org/2000/svg">
<g clip-path="url(#clip0_18_3)">
<path d="M1200 0H0V630H1200V0Z" fill="url(#paint0_linear_18_3)"/>
<path d="M1200 0H0V630H1200V0Z" fill="url(#paint1_radial_18_3)"/>
<path d="M1200 0H0V630H1200V0Z" fill="url(#paint2_radial_18_3)"/>
<path d="M1200 0H0V630H1200V0Z" fill="url(#paint3_radial_18_3)"/>
<path d="M394.191 162.824C394.191 162.312 394.319 161.832 394.575 161.384C394.831 160.936 395.151 160.52 395.535 160.136C395.919 159.688 396.367 159.368 396.879 159.176C397.391 158.984 397.903 158.888 398.415 158.888H473.007C473.519 158.888 473.999 158.984 474.447 159.176C474.959 159.368 475.407 159.688 475.791 160.136C476.239 160.52 476.559 160.936 476.75 161.384C477.007 161.832 477.135 162.312 477.135 162.824V163.112C477.135 163.56 477.007 164.04 476.75 164.552C476.559 165 476.239 165.416 475.791 165.8C475.407 166.184 474.959 166.504 474.447 166.76C473.999 166.952 473.519 167.048 473.007 167.048H445.935V167.432C445.935 168.008 445.775 168.552 445.455 169.064C443.663 172.072 441.679 175.048 439.503 177.992C439.823 178.568 439.983 179.272 439.983 180.104V236.456C439.983 237.032 439.855 237.576 439.599 238.088C439.407 238.6 439.119 239.048 438.735 239.432C438.351 239.816 437.903 240.104 437.391 240.296C436.943 240.552 436.463 240.68 435.951 240.68H435.279C434.767 240.68 434.255 240.552 433.743 240.296C433.295 240.104 432.879 239.816 432.495 239.432C432.111 239.048 431.791 238.6 431.535 238.088C431.343 237.576 431.247 237.064 431.247 236.552V188.36C429.583 190.216 427.887 192.04 426.159 193.832C422.383 197.608 418.319 201.192 413.967 204.584C409.679 207.912 405.199 210.92 400.527 213.608C400.143 213.864 399.695 214.024 399.183 214.088C398.671 214.152 398.159 214.12 397.647 213.992C397.135 213.864 396.655 213.672 396.207 213.416C395.759 213.16 395.407 212.84 395.151 212.456C395.087 212.456 395.055 212.424 395.055 212.36V212.264C394.671 211.816 394.415 211.272 394.287 210.632C394.159 209.992 394.159 209.384 394.287 208.808C394.415 208.232 394.671 207.688 395.055 207.176C395.503 206.6 396.015 206.12 396.591 205.736C400.943 203.304 405.103 200.552 409.071 197.48C413.039 194.344 416.751 191.048 420.207 187.592C423.663 184.072 426.831 180.424 429.711 176.648C432.143 173.448 434.287 170.248 436.143 167.048H398.415C397.903 167.048 397.391 166.952 396.879 166.76C396.367 166.504 395.919 166.184 395.535 165.8C395.151 165.416 394.831 165 394.575 164.552C394.319 164.04 394.191 163.56 394.191 163.112V162.824ZM445.071 190.76C444.623 190.376 444.239 189.896 443.919 189.32C443.663 188.744 443.503 188.2 443.439 187.688C443.439 187.112 443.535 186.568 443.727 186.056C443.983 185.48 444.303 185 444.687 184.616L444.879 184.424C445.519 183.912 446.319 183.656 447.279 183.656C448.303 183.656 449.135 183.88 449.775 184.328C452.207 185.928 454.671 187.624 457.167 189.416C459.663 191.144 462.095 192.936 464.463 194.792C466.895 196.584 469.167 198.376 471.279 200.168C473.455 201.896 475.438 203.592 477.23 205.256C477.551 205.576 477.807 205.992 477.999 206.504C478.255 206.952 478.383 207.464 478.383 208.04C478.383 208.552 478.287 209.064 478.095 209.576C477.903 210.024 477.615 210.44 477.23 210.824L476.559 211.4C476.175 211.784 475.695 212.072 475.119 212.264C474.607 212.392 474.063 212.456 473.487 212.456C472.911 212.392 472.367 212.264 471.855 212.072C471.343 211.816 470.895 211.496 470.511 211.112C468.911 209.576 467.119 207.944 465.135 206.216C463.151 204.488 461.039 202.76 458.799 201.032C456.623 199.24 454.351 197.48 451.983 195.752C449.679 194.024 447.375 192.36 445.071 190.76ZM517.377 163.016C517.377 162.504 517.473 161.992 517.665 161.48C517.921 160.968 518.241 160.52 518.625 160.136C519.009 159.752 519.425 159.464 519.873 159.272C520.385 159.016 520.897 158.888 521.409 158.888C521.921 158.888 522.401 158.984 522.849 159.176C523.105 159.304 523.361 159.496 523.617 159.752C523.937 159.496 524.257 159.304 524.577 159.176C525.089 158.984 525.633 158.888 526.209 158.888H584.385C584.897 158.888 585.377 158.984 585.825 159.176C586.145 159.368 586.465 159.592 586.785 159.848L586.977 160.04C587.425 160.424 587.745 160.84 587.937 161.288C588.193 161.736 588.321 162.216 588.321 162.728V230.312C588.321 232.808 587.969 234.696 587.265 235.976C586.625 237.32 585.441 238.312 583.713 238.952C582.305 239.528 580.417 239.88 578.049 240.008C575.745 240.2 572.801 240.296 569.217 240.296C568.385 240.36 567.521 240.072 566.625 239.432C565.793 238.856 565.249 238.248 564.993 237.608C564.609 236.264 564.833 235.112 565.665 234.152C566.497 233.192 567.713 232.712 569.313 232.712C571.361 232.776 573.057 232.808 574.401 232.808C575.745 232.744 576.865 232.712 577.761 232.712C578.721 232.648 579.393 232.456 579.777 232.136C580.161 231.816 580.353 231.208 580.353 230.312V211.592C580.033 211.656 579.713 211.688 579.393 211.688H555.585V235.784C555.585 236.296 555.457 236.776 555.201 237.224C555.009 237.736 554.721 238.184 554.337 238.568C553.953 239.016 553.505 239.336 552.993 239.528C552.545 239.784 552.065 239.912 551.553 239.912H551.361C550.849 239.912 550.369 239.784 549.921 239.528C549.473 239.336 549.057 239.016 548.673 238.568C548.289 238.184 547.969 237.736 547.713 237.224C547.521 236.776 547.425 236.296 547.425 235.784V211.688H525.729C525.217 211.688 524.705 211.592 524.193 211.4C524.001 212.872 523.777 214.344 523.521 215.816C522.817 219.656 521.761 223.432 520.353 227.144C519.009 230.856 517.249 234.312 515.073 237.512C514.689 238.024 514.241 238.408 513.729 238.664C513.281 238.984 512.769 239.176 512.193 239.24C511.617 239.368 511.073 239.368 510.561 239.24C510.049 239.112 509.601 238.888 509.217 238.568C508.385 237.864 507.937 236.84 507.873 235.496C507.809 234.216 508.129 233.032 508.833 231.944C510.753 229.064 512.289 226.088 513.441 223.016C514.593 219.944 515.457 216.776 516.033 213.512C516.609 210.248 516.961 206.952 517.089 203.624C517.281 200.296 517.377 196.936 517.377 193.544V163.016ZM555.585 204.104H579.393C579.713 204.104 580.033 204.136 580.353 204.2V188.552C579.969 188.68 579.585 188.744 579.201 188.744H555.585V204.104ZM580.353 166.568H555.585V181.16H579.201C579.585 181.16 579.969 181.224 580.353 181.352V166.568ZM525.345 188.648V193.64C525.345 196.904 525.217 200.392 524.961 204.104H547.425V188.744H526.113C525.857 188.744 525.601 188.712 525.345 188.648ZM547.425 166.568H526.209C525.889 166.568 525.601 166.536 525.345 166.472V181.256C525.601 181.192 525.857 181.16 526.113 181.16H547.425V166.568ZM626.356 161.96C626.356 161.448 626.452 160.968 626.644 160.52C626.9 160.008 627.22 159.56 627.604 159.176C628.052 158.728 628.532 158.408 629.044 158.216C629.556 157.96 630.068 157.832 630.58 157.832H702.196C702.708 157.832 703.188 157.96 703.636 158.216L704.02 158.408C704.34 158.6 704.628 158.824 704.884 159.08C705.268 159.4 705.556 159.784 705.748 160.232C706.004 160.68 706.132 161.16 706.132 161.672V230.408C706.132 232.904 705.78 234.824 705.076 236.168C704.372 237.512 703.188 238.504 701.524 239.144C700.116 239.72 698.26 240.104 695.956 240.296C693.652 240.488 690.74 240.584 687.22 240.584C686.388 240.584 685.556 240.296 684.724 239.72C683.956 239.144 683.444 238.536 683.188 237.896C682.676 236.552 682.804 235.336 683.572 234.248C684.404 233.224 685.62 232.744 687.22 232.808C689.268 232.872 690.932 232.904 692.212 232.904C693.492 232.84 694.612 232.776 695.572 232.712C696.468 232.648 697.108 232.456 697.492 232.136C697.876 231.816 698.068 231.24 698.068 230.408V165.512H634.996C634.868 165.512 634.74 165.576 634.612 165.704C634.484 165.832 634.42 165.96 634.42 166.088V236.456C634.42 237.032 634.292 237.544 634.036 237.992C633.844 238.504 633.556 238.952 633.172 239.336C632.788 239.72 632.372 240.04 631.924 240.296C631.476 240.552 630.996 240.68 630.484 240.68H630.388C629.876 240.68 629.364 240.552 628.852 240.296C628.404 240.04 627.988 239.72 627.604 239.336C627.22 238.952 626.9 238.504 626.644 237.992C626.452 237.544 626.356 237.032 626.356 236.456V161.96ZM682.9 175.88C682.964 175.368 683.124 174.888 683.38 174.44C683.7 173.928 684.052 173.512 684.436 173.192C684.82 172.808 685.236 172.552 685.684 172.424C686.196 172.232 686.676 172.136 687.124 172.136C687.572 172.2 687.988 172.392 688.372 172.712C688.756 172.968 689.076 173.32 689.332 173.768C689.652 174.216 689.876 174.696 690.004 175.208C690.132 175.72 690.164 176.232 690.1 176.744C688.756 184.616 687.028 191.88 684.916 198.536C686.516 200.904 687.988 203.24 689.332 205.544C690.996 208.296 692.404 210.824 693.556 213.128C693.876 213.768 693.972 214.568 693.844 215.528C693.716 216.488 693.364 217.16 692.788 217.544C692.404 217.992 691.924 218.248 691.348 218.312C690.836 218.376 690.292 218.344 689.716 218.216C689.204 218.024 688.692 217.736 688.18 217.352C687.668 216.968 687.252 216.52 686.932 216.008C685.78 213.768 684.468 211.368 682.996 208.808C682.612 208.232 682.228 207.624 681.844 206.984C678.772 214.536 674.836 221.096 670.036 226.664C669.78 227.048 669.428 227.368 668.98 227.624C668.532 227.88 668.052 228.072 667.54 228.2C667.092 228.264 666.644 228.264 666.196 228.2C665.748 228.072 665.364 227.912 665.044 227.72C664.148 227.016 663.7 226.024 663.7 224.744C663.7 223.464 664.116 222.248 664.948 221.096C669.748 215.656 673.556 209.096 676.372 201.416C676.628 200.776 676.852 200.136 677.044 199.496C675.636 197.384 674.196 195.272 672.724 193.16C670.868 190.536 669.012 188.008 667.156 185.576C666.452 184.744 666.068 183.784 666.004 182.696C666.004 181.544 666.356 180.648 667.06 180.008C667.636 179.496 668.436 179.336 669.46 179.528C670.484 179.656 671.316 180.072 671.956 180.776C674.068 183.336 676.148 186.024 678.196 188.84L679.732 190.952C681.012 186.216 682.068 181.192 682.9 175.88ZM655.828 175.688C655.892 175.176 656.052 174.696 656.308 174.248C656.564 173.736 656.884 173.32 657.268 173C657.652 172.616 658.068 172.36 658.516 172.232C659.028 172.04 659.508 171.944 659.956 171.944C660.404 172.008 660.82 172.2 661.204 172.52C661.652 172.776 662.004 173.128 662.26 173.576C662.58 174.024 662.804 174.504 662.932 175.016C663.06 175.528 663.092 176.04 663.028 176.552C661.62 184.424 659.828 191.688 657.652 198.344C658.804 199.944 659.892 201.512 660.916 203.048C662.516 205.48 663.924 207.72 665.14 209.768C665.588 210.472 665.78 211.336 665.716 212.36C665.716 213.32 665.46 214.056 664.948 214.568C664.564 215.016 664.116 215.304 663.604 215.432C663.092 215.56 662.548 215.592 661.972 215.528C661.396 215.4 660.852 215.176 660.34 214.856C659.828 214.536 659.38 214.12 658.996 213.608C657.78 211.56 656.436 209.352 654.964 206.984C654.836 206.856 654.74 206.728 654.676 206.6C651.732 213.832 648.02 220.168 643.54 225.608C643.22 226.056 642.836 226.44 642.388 226.76C641.94 227.016 641.46 227.208 640.948 227.336C640.436 227.4 639.924 227.4 639.412 227.336C638.964 227.272 638.58 227.112 638.26 226.856C637.428 226.216 637.012 225.256 637.012 223.976C637.012 222.696 637.396 221.512 638.164 220.424C642.772 214.984 646.484 208.456 649.3 200.84C649.428 200.328 649.588 199.816 649.78 199.304C648.18 197 646.516 194.696 644.788 192.392C642.932 189.96 641.108 187.624 639.316 185.384C638.612 184.552 638.228 183.592 638.164 182.504C638.164 181.416 638.452 180.616 639.028 180.104C639.348 179.784 639.732 179.56 640.18 179.432C640.628 179.304 641.076 179.272 641.524 179.336C642.036 179.4 642.516 179.56 642.964 179.816C643.476 180.008 643.892 180.296 644.212 180.68C646.196 183.048 648.148 185.512 650.068 188.072L652.372 191.144C653.716 186.216 654.868 181.064 655.828 175.688ZM738.119 183.464C738.119 183.016 738.247 182.6 738.503 182.216C738.759 181.768 739.079 181.384 739.463 181.064C739.847 180.744 740.295 180.488 740.807 180.296C741.319 180.04 741.831 179.912 742.343 179.912H753.287C753.351 178.696 753.383 177.448 753.383 176.168V163.496C753.383 162.984 753.479 162.472 753.671 161.96C753.927 161.448 754.247 161 754.631 160.616C755.015 160.232 755.431 159.944 755.879 159.752C756.391 159.496 756.871 159.368 757.319 159.368C757.831 159.368 758.311 159.464 758.759 159.656C758.887 159.72 758.983 159.784 759.047 159.848C759.687 159.528 760.391 159.368 761.159 159.368H774.791V159.272C774.727 158.76 774.759 158.28 774.887 157.832C775.207 157.256 775.495 156.68 775.751 156.104C776.071 155.464 776.327 154.856 776.519 154.28C776.775 153.512 777.383 152.904 778.343 152.456C779.303 151.944 780.263 151.784 781.223 151.976C781.863 152.104 782.407 152.36 782.855 152.744C783.367 153.064 783.751 153.48 784.007 153.992C784.327 154.44 784.487 154.952 784.487 155.528C784.551 156.04 784.455 156.552 784.199 157.064C783.879 157.768 783.559 158.44 783.239 159.08C783.175 159.144 783.143 159.24 783.143 159.368H808.103C808.487 159.368 808.839 159.432 809.159 159.56C809.735 159.688 810.247 159.944 810.695 160.328C811.591 161.032 812.039 161.8 812.039 162.632C812.039 162.76 812.007 162.888 811.943 163.016C812.007 163.144 812.039 163.304 812.039 163.496V179.912H821.063C821.639 179.912 822.151 180.04 822.599 180.296C823.047 180.488 823.463 180.744 823.847 181.064C824.295 181.384 824.615 181.768 824.807 182.216C825.063 182.6 825.191 183.016 825.191 183.464C825.191 183.912 825.063 184.36 824.807 184.808C824.615 185.192 824.295 185.576 823.847 185.96C823.463 186.28 823.047 186.536 822.599 186.728C822.151 186.92 821.639 187.016 821.063 187.016H812.039V197.288C812.039 199.208 811.783 200.712 811.271 201.8C810.759 202.824 809.767 203.656 808.295 204.296C807.207 204.744 805.831 205.032 804.167 205.16C802.567 205.288 800.583 205.384 798.215 205.448C797.319 205.448 796.455 205.192 795.623 204.68C794.791 204.168 794.247 203.592 793.991 202.952C793.607 201.8 793.799 200.808 794.567 199.976C795.335 199.144 796.455 198.728 797.927 198.728H802.247C802.951 198.664 803.399 198.536 803.591 198.344C803.847 198.152 803.975 197.8 803.975 197.288V187.016H760.295C759.975 188.488 759.559 189.992 759.047 191.528C758.151 194.088 756.903 196.584 755.303 199.016C753.767 201.448 751.751 203.72 749.255 205.832C748.871 206.152 748.423 206.376 747.911 206.504C747.463 206.632 746.983 206.696 746.471 206.696C746.023 206.632 745.575 206.536 745.127 206.408C744.679 206.28 744.327 206.056 744.071 205.736C743.111 204.84 742.727 203.72 742.919 202.376C743.175 201.032 743.783 199.816 744.743 198.728C746.599 197 748.071 195.272 749.159 193.544C750.311 191.816 751.207 190.024 751.847 188.168L752.231 187.016H742.343C741.831 187.016 741.319 186.92 740.807 186.728C740.295 186.536 739.847 186.28 739.463 185.96C739.079 185.576 738.759 185.192 738.503 184.808C738.247 184.36 738.119 183.912 738.119 183.464ZM737.543 234.632C737.543 234.12 737.639 233.672 737.831 233.288C738.087 232.904 738.407 232.552 738.791 232.232C739.239 231.848 739.719 231.56 740.231 231.368C740.743 231.176 741.223 231.08 741.671 231.08H748.391C748.327 230.888 748.295 230.696 748.295 230.504V211.88C748.295 211.432 748.391 210.952 748.583 210.44C748.839 209.928 749.159 209.48 749.543 209.096C749.991 208.712 750.471 208.424 750.983 208.232C751.495 207.976 752.007 207.848 752.519 207.848H810.311C810.823 207.848 811.335 207.976 811.847 208.232C812.359 208.424 812.807 208.712 813.191 209.096C813.575 209.48 813.863 209.928 814.055 210.44C814.311 210.952 814.439 211.432 814.439 211.88V231.08H820.967C821.479 231.08 821.959 231.176 822.407 231.368C822.919 231.56 823.367 231.848 823.751 232.232C824.199 232.552 824.519 232.904 824.711 233.288C824.967 233.672 825.095 234.088 825.095 234.536C825.095 235.048 824.967 235.496 824.711 235.88C824.519 236.328 824.199 236.712 823.751 237.032C823.367 237.352 822.919 237.608 822.407 237.8C821.959 238.056 821.479 238.184 820.967 238.184H741.671C741.223 238.184 740.743 238.056 740.231 237.8C739.719 237.608 739.239 237.352 738.791 237.032C738.407 236.712 738.087 236.328 737.831 235.88C737.639 235.496 737.543 235.08 737.543 234.632ZM761.159 179.912H803.975V165.896H761.255V176.36C761.255 177.512 761.223 178.696 761.159 179.912ZM806.663 231.08V214.76C806.663 214.632 806.599 214.536 806.471 214.472C806.343 214.344 806.215 214.28 806.087 214.28H795.143C795.015 214.28 794.887 214.344 794.759 214.472C794.631 214.536 794.567 214.632 794.567 214.76V230.408C794.567 230.664 794.535 230.888 794.471 231.08H806.663ZM787.175 231.08C787.111 230.888 787.079 230.664 787.079 230.408V214.76C787.079 214.632 787.015 214.536 786.887 214.472C786.759 214.344 786.631 214.28 786.503 214.28H775.751C775.623 214.28 775.495 214.344 775.367 214.472C775.239 214.536 775.175 214.632 775.175 214.76V230.408C775.175 230.664 775.143 230.888 775.079 231.08H787.175ZM767.783 231.08V214.76C767.783 214.632 767.719 214.536 767.591 214.472C767.463 214.344 767.335 214.28 767.207 214.28H756.359C756.231 214.28 756.103 214.344 755.975 214.472C755.911 214.536 755.879 214.632 755.879 214.76V230.408C755.879 230.664 755.847 230.888 755.783 231.08H767.783ZM775.367 194.888C774.727 194.568 774.183 194.184 773.735 193.736C773.351 193.288 773.031 192.84 772.775 192.392C772.583 191.88 772.487 191.368 772.487 190.856C772.551 190.344 772.775 189.928 773.159 189.608C773.415 189.16 773.927 188.904 774.695 188.84C775.527 188.712 776.263 188.744 776.903 188.936C778.567 189.896 780.231 190.92 781.895 192.008C783.559 193.096 785.031 194.152 786.311 195.176C786.823 195.432 787.239 195.784 787.559 196.232C787.879 196.616 788.103 197.064 788.231 197.576C788.423 198.024 788.487 198.472 788.423 198.92C788.359 199.368 788.199 199.752 787.943 200.072C787.431 200.712 786.631 201.064 785.543 201.128C784.455 201.128 783.495 200.872 782.663 200.36C781.703 199.464 780.583 198.536 779.303 197.576C778.023 196.616 776.711 195.72 775.367 194.888ZM776.327 173.672C775.687 173.352 775.143 172.968 774.695 172.52C774.247 172.072 773.895 171.624 773.639 171.176C773.447 170.664 773.351 170.184 773.351 169.736C773.415 169.224 773.607 168.744 773.927 168.296C774.247 167.976 774.791 167.752 775.559 167.624C776.327 167.496 776.999 167.528 777.575 167.72C779.175 168.552 780.743 169.48 782.279 170.504C783.815 171.464 785.191 172.424 786.407 173.384C786.855 173.64 787.239 173.992 787.559 174.44C787.879 174.824 788.103 175.24 788.231 175.688C788.359 176.136 788.391 176.584 788.327 177.032C788.263 177.48 788.135 177.864 787.943 178.184C787.367 178.824 786.503 179.144 785.351 179.144C784.263 179.144 783.271 178.856 782.375 178.28C781.607 177.512 780.679 176.744 779.591 175.976C778.503 175.144 777.415 174.376 776.327 173.672Z" fill="#4A4A4A"/>
<path d="M105.856 427.928C105.856 427.416 105.952 426.936 106.144 426.488C106.4 425.976 106.72 425.528 107.104 425.144C107.488 424.76 107.936 424.472 108.448 424.28C108.96 424.088 109.472 423.992 109.984 423.992H185.056C185.632 423.992 186.144 424.088 186.592 424.28C187.104 424.472 187.552 424.76 187.936 425.144C188.384 425.528 188.704 425.976 188.896 426.488C189.152 426.936 189.28 427.416 189.28 427.928V428.12C189.28 428.632 189.152 429.112 188.896 429.56C188.704 430.008 188.384 430.456 187.936 430.904C187.552 431.288 187.104 431.576 186.592 431.768C186.144 432.024 185.632 432.152 185.056 432.152H109.984C109.472 432.152 108.96 432.024 108.448 431.768C107.936 431.576 107.488 431.288 107.104 430.904C106.72 430.456 106.4 430.008 106.144 429.56C105.952 429.112 105.856 428.632 105.856 428.12V427.928ZM111.328 363.416C111.328 362.904 111.456 362.424 111.712 361.976C111.968 361.528 112.288 361.112 112.672 360.728C113.056 360.344 113.504 360.056 114.016 359.864C114.528 359.608 115.04 359.48 115.552 359.48H179.968C180.48 359.48 180.96 359.608 181.408 359.864C181.92 360.056 182.368 360.344 182.752 360.728C183.2 361.112 183.52 361.528 183.712 361.976C183.968 362.424 184.096 362.904 184.096 363.416V363.608C184.096 364.12 183.968 364.632 183.712 365.144C183.52 365.592 183.2 366.008 182.752 366.392C182.368 366.776 181.92 367.096 181.408 367.352C180.96 367.544 180.48 367.64 179.968 367.64H115.552C115.04 367.64 114.528 367.544 114.016 367.352C113.504 367.096 113.056 366.776 112.672 366.392C112.288 366.008 111.968 365.592 111.712 365.144C111.456 364.632 111.328 364.12 111.328 363.608V363.416ZM117.568 394.712C117.568 394.2 117.696 393.72 117.952 393.272C118.208 392.76 118.528 392.344 118.912 392.024C119.296 391.64 119.744 391.352 120.256 391.16C120.768 390.904 121.28 390.776 121.792 390.776H172.384C172.896 390.776 173.376 390.904 173.824 391.16C174.336 391.352 174.784 391.64 175.168 392.024C175.616 392.344 175.936 392.76 176.128 393.272C176.384 393.72 176.512 394.2 176.512 394.712V394.904C176.512 395.352 176.384 395.832 176.128 396.344C175.936 396.792 175.616 397.24 175.168 397.688C174.784 398.072 174.336 398.36 173.824 398.552C173.376 398.744 172.896 398.84 172.384 398.84H121.792C121.28 398.84 120.768 398.744 120.256 398.552C119.744 398.36 119.296 398.072 118.912 397.688C118.528 397.24 118.208 396.792 117.952 396.344C117.696 395.832 117.568 395.352 117.568 394.904V394.712ZM256.978 374.36C256.978 373.848 257.074 373.336 257.266 372.824C257.522 372.312 257.842 371.864 258.226 371.48C258.674 371.096 259.122 370.808 259.57 370.616C260.082 370.36 260.626 370.232 261.202 370.232H277.138V354.584C277.138 354.072 277.234 353.56 277.426 353.048C277.682 352.536 278.002 352.088 278.386 351.704C278.77 351.32 279.186 351.032 279.634 350.84C280.082 350.584 280.562 350.456 281.074 350.456H281.17C281.682 350.456 282.162 350.584 282.61 350.84C283.122 351.032 283.57 351.32 283.954 351.704C284.338 352.088 284.626 352.536 284.818 353.048C285.074 353.56 285.202 354.072 285.202 354.584V370.232H301.042C301.618 370.232 302.13 370.36 302.578 370.616C303.09 370.808 303.538 371.096 303.922 371.48C304.37 371.864 304.69 372.312 304.882 372.824C305.138 373.336 305.266 373.848 305.266 374.36V408.824C305.266 409.336 305.138 409.848 304.882 410.36C304.69 410.872 304.402 411.32 304.018 411.704C303.698 412.088 303.282 412.408 302.77 412.664C302.322 412.856 301.842 412.952 301.33 412.952C300.882 412.952 300.402 412.856 299.89 412.664C299.442 412.408 298.994 412.088 298.546 411.704C298.162 411.32 297.874 410.872 297.682 410.36C297.49 409.848 297.394 409.368 297.394 408.92V407.672H285.202V434.456C285.202 434.968 285.074 435.48 284.818 435.992C284.626 436.504 284.338 436.952 283.954 437.336C283.57 437.72 283.122 438.008 282.61 438.2C282.162 438.456 281.682 438.584 281.17 438.584H281.074C280.562 438.584 280.082 438.456 279.634 438.2C279.186 438.008 278.77 437.72 278.386 437.336C278.002 436.952 277.682 436.504 277.426 435.992C277.234 435.48 277.138 434.968 277.138 434.456V407.672H264.562V409.4C264.562 409.912 264.466 410.424 264.274 410.936C264.082 411.448 263.794 411.928 263.41 412.376C263.09 412.76 262.706 413.08 262.258 413.336C261.81 413.528 261.33 413.624 260.818 413.624C260.306 413.624 259.826 413.528 259.378 413.336C258.93 413.08 258.514 412.76 258.13 412.376C257.81 411.928 257.522 411.448 257.266 410.936C257.074 410.424 256.978 409.944 256.978 409.496V374.36ZM219.058 380.984C219.058 380.472 219.154 380.024 219.346 379.64C219.602 379.192 219.922 378.808 220.306 378.488C220.69 378.104 221.138 377.816 221.65 377.624C222.162 377.368 222.674 377.24 223.186 377.24H234.226V363.416C233.33 363.608 232.434 363.768 231.538 363.896C229.426 364.28 227.346 364.632 225.298 364.952C224.338 365.08 223.378 364.92 222.418 364.472C221.458 364.024 220.882 363.448 220.69 362.744C220.37 361.848 220.594 360.952 221.362 360.056C222.13 359.16 223.186 358.584 224.53 358.328C226.514 357.88 228.53 357.464 230.578 357.08C232.626 356.632 234.61 356.184 236.53 355.736C238.514 355.224 240.37 354.712 242.098 354.2C243.89 353.624 245.49 353.08 246.898 352.568C247.666 352.248 248.53 352.248 249.49 352.568C250.514 352.824 251.25 353.272 251.698 353.912C252.082 354.424 252.306 354.968 252.37 355.544C252.434 356.12 252.37 356.696 252.178 357.272C251.986 357.784 251.666 358.264 251.218 358.712C250.834 359.096 250.322 359.384 249.682 359.576C247.89 360.152 246.002 360.696 244.018 361.208C243.314 361.4 242.642 361.592 242.002 361.784V377.24H249.874C250.386 377.24 250.898 377.368 251.41 377.624C251.922 377.816 252.37 378.104 252.754 378.488C253.138 378.808 253.426 379.192 253.618 379.64C253.874 380.024 254.002 380.472 254.002 380.984C254.002 381.432 253.874 381.88 253.618 382.328C253.426 382.776 253.138 383.192 252.754 383.576C252.37 383.96 251.922 384.248 251.41 384.44C250.898 384.632 250.386 384.728 249.874 384.728H242.002V387.704C242.834 387.896 243.602 388.28 244.306 388.856C244.882 389.56 245.554 390.424 246.322 391.448C247.09 392.408 247.858 393.4 248.626 394.424C249.458 395.448 250.258 396.44 251.026 397.4C251.794 398.36 252.434 399.192 252.946 399.896C253.458 400.472 253.746 401.24 253.81 402.2C253.874 403.096 253.714 403.8 253.33 404.312C252.882 404.888 252.402 405.272 251.89 405.464C251.378 405.656 250.834 405.688 250.258 405.56C249.682 405.432 249.106 405.176 248.53 404.792C248.018 404.408 247.602 403.896 247.282 403.256C246.77 402.488 246.194 401.624 245.554 400.664C244.978 399.704 244.338 398.744 243.634 397.784C243.122 396.952 242.578 396.152 242.002 395.384V434.552C242.002 435.064 241.906 435.576 241.714 436.088C241.522 436.6 241.234 437.048 240.85 437.432C240.466 437.816 240.05 438.104 239.602 438.296C239.154 438.552 238.674 438.68 238.162 438.68C237.714 438.68 237.234 438.552 236.722 438.296C236.274 438.104 235.858 437.816 235.474 437.432C235.09 437.048 234.77 436.6 234.514 436.088C234.322 435.576 234.226 435.064 234.226 434.552V397.4C233.586 398.936 232.914 400.44 232.21 401.912C230.994 404.6 229.714 407.192 228.37 409.688C227.026 412.12 225.65 414.36 224.242 416.408C223.858 417.112 223.41 417.624 222.898 417.944C222.386 418.264 221.842 418.424 221.266 418.424C220.754 418.424 220.242 418.264 219.73 417.944C219.218 417.624 218.802 417.176 218.482 416.6C218.098 415.96 217.938 415.16 218.002 414.2C218.13 413.176 218.418 412.344 218.866 411.704C220.21 410.04 221.554 408.152 222.898 406.04C224.242 403.864 225.522 401.592 226.738 399.224C228.018 396.856 229.202 394.424 230.29 391.928C231.314 389.496 232.21 387.096 232.978 384.728H223.186C222.674 384.728 222.162 384.632 221.65 384.44C221.138 384.248 220.69 383.96 220.306 383.576C219.922 383.192 219.602 382.776 219.346 382.328C219.154 381.88 219.058 381.432 219.058 380.984ZM277.138 399.992V378.008H265.234C265.042 378.008 264.882 378.072 264.754 378.2C264.626 378.328 264.562 378.456 264.562 378.584V399.992H277.138ZM285.202 378.008V399.992H297.394V378.584C297.394 378.456 297.33 378.328 297.202 378.2C297.074 378.072 296.914 378.008 296.722 378.008H285.202ZM383.813 354.392C383.941 353.944 384.133 353.528 384.389 353.144C384.709 352.696 385.061 352.344 385.445 352.088C385.893 351.768 386.341 351.544 386.789 351.416C387.301 351.224 387.781 351.16 388.229 351.224C388.805 351.352 389.317 351.576 389.765 351.896C390.213 352.216 390.565 352.632 390.821 353.144C391.141 353.592 391.365 354.104 391.493 354.68C391.621 355.192 391.621 355.736 391.493 356.312C391.045 357.912 390.629 359.512 390.245 361.112H413.093C413.669 361.112 414.181 361.208 414.629 361.4C415.141 361.592 415.589 361.88 415.973 362.264C416.357 362.648 416.677 363.064 416.933 363.512C417.189 363.96 417.317 364.408 417.317 364.856C417.317 365.304 417.189 365.752 416.933 366.2C416.677 366.648 416.357 367.064 415.973 367.448C415.589 367.768 415.141 368.056 414.629 368.312C414.181 368.504 413.669 368.6 413.093 368.6H388.229C387.269 372.184 386.309 375.736 385.349 379.256H417.701C418.213 379.256 418.693 379.352 419.141 379.544C419.653 379.736 420.101 380.024 420.485 380.408C420.869 380.792 421.189 381.208 421.445 381.656C421.701 382.04 421.829 382.488 421.829 383C421.829 383.448 421.701 383.896 421.445 384.344C421.189 384.792 420.869 385.208 420.485 385.592C420.101 385.912 419.653 386.2 419.141 386.456C418.693 386.648 418.213 386.744 417.701 386.744H383.141C382.629 388.6 382.117 390.392 381.605 392.12C381.029 394.04 380.485 395.864 379.973 397.592H407.237C407.749 397.592 408.261 397.688 408.773 397.88C408.837 397.816 408.901 397.784 408.965 397.784C409.221 397.656 409.477 397.592 409.733 397.592C409.861 397.592 409.957 397.592 410.021 397.592C410.149 397.528 410.277 397.496 410.405 397.496C410.661 397.368 411.013 397.368 411.461 397.496C411.973 397.56 412.389 397.688 412.709 397.88L413.093 398.072C413.541 398.456 413.893 398.904 414.149 399.416C414.469 399.928 414.661 400.472 414.725 401.048C414.853 401.56 414.821 402.104 414.629 402.68C414.501 403.256 414.245 403.768 413.861 404.216C412.389 405.88 410.821 407.64 409.157 409.496C407.557 411.352 405.893 413.24 404.165 415.16C402.501 417.016 400.805 418.904 399.077 420.824C397.925 422.04 396.805 423.224 395.717 424.376C396.677 425.144 397.605 425.88 398.501 426.584C400.101 427.8 401.509 428.984 402.725 430.136C403.173 430.456 403.493 430.872 403.685 431.384C403.941 431.896 404.069 432.408 404.069 432.92C404.133 433.496 404.069 434.04 403.877 434.552C403.685 435.128 403.397 435.576 403.013 435.896C402.693 436.344 402.245 436.632 401.669 436.76C401.157 436.952 400.613 437.048 400.037 437.048C399.525 437.112 398.981 437.048 398.405 436.856C397.893 436.664 397.445 436.408 397.061 436.088C395.909 435 394.629 433.848 393.221 432.632C391.877 431.48 390.405 430.296 388.805 429.08C387.269 427.864 385.701 426.68 384.101 425.528C382.501 424.312 380.869 423.16 379.205 422.072C378.629 421.688 378.181 421.24 377.861 420.728C377.541 420.152 377.349 419.576 377.285 419C377.221 418.424 377.285 417.88 377.477 417.368C377.733 416.792 378.085 416.312 378.533 415.928C379.045 415.48 379.717 415.256 380.549 415.256C381.445 415.192 382.181 415.288 382.757 415.544C384.549 416.696 386.373 417.88 388.229 419.096L389.573 420.056C391.109 418.456 392.645 416.792 394.181 415.064C396.037 413.016 397.829 411.032 399.557 409.112C400.773 407.704 401.925 406.36 403.013 405.08H379.877C379.365 405.08 378.885 404.984 378.437 404.792C377.989 404.6 377.605 404.376 377.285 404.12C377.221 404.12 377.157 404.152 377.093 404.216C376.325 404.792 375.557 405.08 374.789 405.08H374.405C373.765 405.08 373.157 404.952 372.581 404.696C372.005 404.376 371.557 403.992 371.237 403.544C370.917 403.032 370.693 402.456 370.565 401.816C370.501 401.176 370.565 400.536 370.757 399.896C371.781 396.76 372.901 393.304 374.117 389.528C374.373 388.632 374.629 387.704 374.885 386.744H362.117C361.605 386.744 361.093 386.648 360.581 386.456C360.133 386.2 359.717 385.912 359.333 385.592C358.949 385.208 358.629 384.792 358.373 384.344C358.117 383.896 357.989 383.448 357.989 383C357.989 382.488 358.117 382.04 358.373 381.656C358.629 381.208 358.949 380.792 359.333 380.408C359.717 380.024 360.133 379.736 360.581 379.544C361.093 379.352 361.605 379.256 362.117 379.256H377.093C377.285 378.808 377.445 378.328 377.573 377.816L380.069 368.6H367.685C367.173 368.6 366.661 368.504 366.149 368.312C365.637 368.056 365.189 367.768 364.805 367.448C364.421 367.064 364.101 366.648 363.845 366.2C363.653 365.752 363.557 365.304 363.557 364.856C363.557 364.408 363.653 363.96 363.845 363.512C364.101 363.064 364.421 362.648 364.805 362.264C365.189 361.88 365.637 361.592 366.149 361.4C366.661 361.208 367.173 361.112 367.685 361.112H382.085C382.661 358.808 383.237 356.568 383.813 354.392ZM353.669 354.2C353.861 353.688 354.149 353.272 354.533 352.952C354.917 352.568 355.333 352.28 355.781 352.088C356.229 351.832 356.709 351.672 357.221 351.608C357.733 351.48 358.213 351.512 358.661 351.704C359.173 351.832 359.621 352.088 360.005 352.472C360.389 352.856 360.677 353.304 360.869 353.816C361.125 354.264 361.285 354.776 361.349 355.352C361.413 355.928 361.317 356.472 361.061 356.984C358.693 362.744 355.941 368.312 352.805 373.688V434.456C352.805 435.032 352.677 435.544 352.421 435.992C352.229 436.504 351.941 436.952 351.557 437.336C351.237 437.784 350.853 438.104 350.405 438.296C349.957 438.552 349.477 438.68 348.965 438.68C348.453 438.68 347.941 438.552 347.429 438.296C346.981 438.104 346.565 437.784 346.181 437.336C345.797 436.952 345.509 436.504 345.317 435.992C345.125 435.544 345.029 435.064 345.029 434.552V385.592C343.365 387.896 341.637 390.072 339.845 392.12C339.397 392.696 338.885 393.112 338.309 393.368C337.733 393.56 337.157 393.624 336.581 393.56C336.005 393.496 335.461 393.304 334.949 392.984C334.437 392.6 334.021 392.12 333.701 391.544C333.637 391.48 333.573 391.416 333.509 391.352C333.509 391.288 333.477 391.224 333.413 391.16C333.029 390.392 332.901 389.496 333.029 388.472C333.157 387.384 333.509 386.488 334.085 385.784C337.989 381.624 341.605 376.824 344.933 371.384C348.325 365.88 351.237 360.152 353.669 354.2ZM449.976 370.904C449.976 370.328 450.072 369.816 450.264 369.368C450.52 368.92 450.84 368.536 451.224 368.216C451.672 367.832 452.12 367.544 452.568 367.352C453.08 367.096 453.592 366.968 454.104 366.968H532.92C533.432 366.968 533.912 367.096 534.36 367.352C534.872 367.544 535.32 367.832 535.704 368.216C536.088 368.536 536.376 368.92 536.568 369.368C536.824 369.816 536.952 370.328 536.952 370.904C536.952 371.352 536.824 371.832 536.568 372.344C536.376 372.792 536.088 373.208 535.704 373.592C535.32 373.976 534.872 374.296 534.36 374.552C533.912 374.744 533.432 374.84 532.92 374.84H521.208C521.272 375.032 521.304 375.224 521.304 375.416C521.368 375.992 521.304 376.536 521.112 377.048C518.104 384.856 514.552 391.896 510.456 398.168C507.256 403.096 503.704 407.608 499.8 411.704C503.704 414.904 507.928 417.816 512.472 420.44C518.488 423.96 525.048 426.84 532.152 429.08C533.688 429.528 534.68 430.392 535.128 431.672C535.576 432.952 535.352 434.264 534.456 435.608V435.704C534.008 436.28 533.304 436.76 532.344 437.144C531.448 437.528 530.616 437.592 529.848 437.336C522.04 434.968 514.872 431.896 508.344 428.12C502.968 425.048 498.04 421.528 493.56 417.56C489.016 421.464 484.024 424.952 478.584 428.024C472.056 431.736 464.824 434.936 456.888 437.624C456.056 437.88 455.128 437.816 454.104 437.432C453.08 437.048 452.344 436.472 451.896 435.704C451.512 435.128 451.288 434.52 451.224 433.88C451.16 433.24 451.224 432.632 451.416 432.056C451.672 431.48 452.024 430.968 452.472 430.52C452.984 430.072 453.592 429.72 454.296 429.464C461.656 427.032 468.376 424.152 474.456 420.824C479.192 418.136 483.576 415.128 487.608 411.8C483.576 407.576 479.928 402.936 476.664 397.88C472.568 391.608 469.016 384.824 466.008 377.528C465.816 377.016 465.752 376.472 465.816 375.896C465.816 375.512 465.848 375.16 465.912 374.84H454.104C453.592 374.84 453.08 374.744 452.568 374.552C452.12 374.296 451.672 373.976 451.224 373.592C450.84 373.208 450.52 372.792 450.264 372.344C450.072 371.832 449.976 371.352 449.976 370.904ZM512.856 374.84H473.304C475.992 381.304 479.224 387.352 483 392.984C486.136 397.72 489.72 402.104 493.752 406.136C497.4 402.36 500.664 398.2 503.544 393.656C507.128 388.024 510.232 381.752 512.856 374.84ZM487.704 356.408C487.512 355.832 487.416 355.256 487.416 354.68C487.416 354.04 487.512 353.464 487.704 352.952C487.96 352.376 488.28 351.896 488.664 351.512C489.112 351.064 489.592 350.776 490.104 350.648L491.064 350.36C491.832 350.104 492.696 350.168 493.656 350.552C494.616 350.936 495.256 351.512 495.576 352.28C496.472 353.624 497.304 355.032 498.072 356.504C498.84 357.912 499.544 359.256 500.184 360.536C500.376 360.984 500.44 361.464 500.376 361.976C500.312 362.488 500.152 362.968 499.896 363.416C499.704 363.864 499.416 364.28 499.032 364.664C498.648 364.984 498.232 365.24 497.784 365.432L496.728 365.72C496.216 365.848 495.672 365.88 495.096 365.816C494.52 365.752 493.976 365.592 493.464 365.336C492.952 365.016 492.504 364.632 492.12 364.184C491.736 363.736 491.448 363.224 491.256 362.648C490.808 361.752 490.264 360.76 489.624 359.672C489.048 358.52 488.408 357.432 487.704 356.408ZM618.187 355.352C618.187 354.904 618.283 354.424 618.475 353.912C618.731 353.4 619.051 352.952 619.435 352.568C619.819 352.184 620.235 351.896 620.683 351.704C621.131 351.448 621.611 351.32 622.123 351.32H622.315C622.827 351.32 623.307 351.448 623.755 351.704C624.267 351.896 624.683 352.184 625.003 352.568C625.387 352.952 625.675 353.4 625.867 353.912C626.123 354.424 626.251 354.904 626.251 355.352V369.656H643.723C644.299 369.656 644.811 369.752 645.259 369.944C645.771 370.136 646.219 370.424 646.603 370.808C646.987 371.192 647.307 371.64 647.563 372.152C647.819 372.6 647.947 373.08 647.947 373.592C647.947 374.104 647.819 374.584 647.563 375.032C647.307 375.48 646.987 375.896 646.603 376.28C646.219 376.664 645.771 376.984 645.259 377.24C644.811 377.432 644.299 377.528 643.723 377.528H626.251V397.784H648.139C648.651 397.784 649.131 397.912 649.579 398.168C650.091 398.36 650.539 398.648 650.923 399.032C651.307 399.416 651.595 399.832 651.787 400.28C652.043 400.728 652.171 401.208 652.171 401.72C652.171 402.232 652.043 402.744 651.787 403.256C651.595 403.704 651.307 404.12 650.923 404.504C650.539 404.824 650.091 405.112 649.579 405.368C649.131 405.56 648.651 405.656 648.139 405.656H626.251V434.84C626.251 435.288 626.123 435.768 625.867 436.28C625.675 436.792 625.387 437.24 625.003 437.624C624.683 438.008 624.267 438.296 623.755 438.488C623.307 438.744 622.827 438.872 622.315 438.872H622.123C621.611 438.872 621.131 438.744 620.683 438.488C620.235 438.296 619.819 438.008 619.435 437.624C619.051 437.24 618.731 436.792 618.475 436.28C618.283 435.768 618.187 435.288 618.187 434.84V405.656H594.955C594.507 405.656 594.027 405.56 593.515 405.368C593.003 405.112 592.555 404.824 592.171 404.504C591.787 404.12 591.467 403.704 591.211 403.256C591.019 402.744 590.923 402.232 590.923 401.72C590.923 401.208 591.019 400.728 591.211 400.28C591.467 399.832 591.787 399.416 592.171 399.032C592.555 398.648 593.003 398.36 593.515 398.168C594.027 397.912 594.507 397.784 594.955 397.784H618.187V377.528H606.283C605.643 377.528 605.067 377.4 604.555 377.144C604.299 377.016 604.075 376.888 603.883 376.76C602.475 380.792 600.875 384.44 599.083 387.704C598.827 388.216 598.475 388.664 598.027 389.048C597.579 389.368 597.099 389.624 596.587 389.816C596.075 390.008 595.563 390.104 595.051 390.104C594.539 390.04 594.091 389.88 593.707 389.624C592.747 389.112 592.139 388.248 591.883 387.032C591.691 385.816 591.851 384.664 592.363 383.576C594.283 380.248 595.915 376.504 597.259 372.344C598.667 368.184 599.851 363.832 600.811 359.288C600.939 358.776 601.163 358.296 601.483 357.848C601.803 357.336 602.187 356.92 602.635 356.6C603.083 356.28 603.563 356.056 604.075 355.928C604.587 355.8 605.099 355.768 605.611 355.832C606.123 355.96 606.571 356.184 606.955 356.504C607.339 356.824 607.659 357.24 607.915 357.752C608.235 358.2 608.427 358.68 608.491 359.192C608.555 359.704 608.523 360.248 608.395 360.824C607.755 363.832 607.019 366.776 606.187 369.656H618.187V355.352ZM584.299 354.2C584.491 353.688 584.779 353.272 585.163 352.952C585.547 352.568 585.963 352.28 586.411 352.088C586.859 351.832 587.339 351.672 587.851 351.608C588.363 351.48 588.843 351.512 589.291 351.704C589.867 351.832 590.347 352.088 590.731 352.472C591.115 352.856 591.403 353.304 591.595 353.816C591.787 354.264 591.915 354.776 591.979 355.352C592.043 355.928 591.947 356.472 591.691 356.984C589.387 362.744 586.731 368.344 583.723 373.784V434.552C583.723 435.064 583.627 435.576 583.435 436.088C583.243 436.6 582.955 437.048 582.571 437.432C582.187 437.816 581.771 438.104 581.323 438.296C580.875 438.552 580.395 438.68 579.883 438.68C579.435 438.68 578.987 438.552 578.539 438.296C578.091 438.104 577.675 437.784 577.291 437.336C576.907 436.952 576.587 436.504 576.331 435.992C576.139 435.544 576.043 435.064 576.043 434.552V386.168C574.571 388.216 573.099 390.168 571.627 392.024C571.115 392.6 570.571 393.016 569.995 393.272C569.483 393.528 568.907 393.624 568.267 393.56C567.691 393.496 567.147 393.304 566.635 392.984C566.123 392.6 565.675 392.12 565.291 391.544C565.227 391.48 565.195 391.416 565.195 391.352C565.195 391.288 565.163 391.224 565.099 391.16C564.651 390.392 564.491 389.496 564.619 388.472C564.747 387.384 565.099 386.488 565.675 385.784C569.387 381.624 572.843 376.824 576.043 371.384C579.243 365.88 581.995 360.152 584.299 354.2ZM681.949 370.424C681.949 369.912 682.045 369.432 682.237 368.984C682.493 368.536 682.813 368.152 683.197 367.832C683.581 367.448 684.029 367.16 684.541 366.968C685.053 366.712 685.565 366.584 686.077 366.584H761.725C762.173 366.584 762.653 366.712 763.165 366.968C763.677 367.16 764.125 367.448 764.509 367.832C764.893 368.152 765.181 368.536 765.373 368.984C765.629 369.432 765.757 369.912 765.757 370.424C765.757 370.936 765.629 371.416 765.373 371.864C765.181 372.312 764.893 372.728 764.509 373.112C764.125 373.496 763.677 373.816 763.165 374.072C762.653 374.264 762.173 374.36 761.725 374.36H716.413C716.541 374.808 716.605 375.224 716.605 375.608C716.285 380.088 715.869 384.632 715.357 389.24C715.741 389.112 716.093 389.048 716.413 389.048H752.413C752.989 389.048 753.501 389.176 753.949 389.432C754.461 389.624 754.909 389.912 755.293 390.296C755.677 390.68 755.997 391.096 756.253 391.544C756.509 391.992 756.637 392.472 756.637 392.984C756.637 393.432 756.509 393.88 756.253 394.328V394.424C755.805 400.568 755.357 405.848 754.909 410.264C754.397 415.064 753.821 419.096 753.181 422.36C752.605 425.56 751.933 428.12 751.165 430.04C750.461 431.896 749.629 433.272 748.669 434.168C747.453 435.512 746.173 436.408 744.829 436.856C743.485 437.304 741.853 437.624 739.933 437.816C738.589 437.88 736.797 437.912 734.557 437.912C732.381 437.912 729.981 437.816 727.357 437.624C726.397 437.624 725.501 437.304 724.669 436.664C723.837 436.024 723.325 435.352 723.133 434.648C722.749 433.304 722.973 432.184 723.805 431.288C724.637 430.392 725.917 429.976 727.645 430.04C728.669 430.104 729.597 430.168 730.429 430.232C731.325 430.232 732.125 430.264 732.829 430.328C733.597 430.328 734.333 430.328 735.037 430.328H737.053C738.077 430.328 738.941 430.264 739.645 430.136C740.349 430.008 741.021 429.688 741.661 429.176C742.365 428.536 743.037 427.352 743.677 425.624C744.317 423.832 744.893 421.4 745.405 418.328C745.981 415.192 746.493 411.352 746.941 406.808C747.261 403.864 747.549 400.536 747.805 396.824H716.413C715.901 396.824 715.421 396.728 714.973 396.536C714.781 396.408 714.589 396.312 714.397 396.248C713.565 400.856 712.381 405.336 710.845 409.688C708.925 415.064 706.237 420.088 702.781 424.76C699.389 429.432 694.877 433.496 689.245 436.952C688.797 437.208 688.317 437.368 687.805 437.432C687.293 437.56 686.781 437.592 686.269 437.528C685.757 437.464 685.277 437.304 684.829 437.048C684.445 436.856 684.093 436.6 683.773 436.28C682.877 435.256 682.557 434.072 682.813 432.728C683.069 431.448 683.773 430.36 684.925 429.464C689.789 426.392 693.661 422.776 696.541 418.616C699.421 414.392 701.661 409.912 703.261 405.176C704.861 400.376 705.949 395.448 706.525 390.392C707.101 385.272 707.517 380.248 707.773 375.32C707.773 375 707.837 374.68 707.965 374.36H686.077C685.565 374.36 685.053 374.264 684.541 374.072C684.029 373.816 683.581 373.496 683.197 373.112C682.813 372.728 682.493 372.312 682.237 371.864C682.045 371.416 681.949 370.936 681.949 370.424ZM719.581 356.6C719.325 356.088 719.165 355.544 719.101 354.968C719.101 354.328 719.197 353.752 719.389 353.24C719.645 352.728 719.933 352.248 720.253 351.8C720.573 351.352 721.021 351.032 721.597 350.84L722.269 350.552C723.037 350.296 723.901 350.36 724.861 350.744C725.885 351.128 726.589 351.672 726.973 352.376C727.677 353.656 728.349 354.968 728.989 356.312C729.629 357.656 730.173 358.872 730.621 359.96C730.877 360.472 731.005 360.984 731.005 361.496C731.005 361.944 730.909 362.424 730.717 362.936C730.525 363.448 730.237 363.928 729.853 364.376C729.533 364.76 729.149 365.048 728.701 365.24L728.221 365.336C727.709 365.592 727.165 365.688 726.589 365.624C726.013 365.56 725.437 365.432 724.861 365.24C724.349 364.984 723.869 364.664 723.421 364.28C722.973 363.896 722.653 363.416 722.461 362.84C722.077 361.944 721.629 360.952 721.117 359.864C720.605 358.712 720.093 357.624 719.581 356.6ZM796.112 371.672C796.112 371.16 796.24 370.68 796.496 370.232C796.752 369.784 797.072 369.368 797.456 368.984C797.84 368.6 798.256 368.312 798.704 368.12C799.216 367.928 799.728 367.832 800.24 367.832H845.168C844.976 363.544 844.816 359.192 844.688 354.776C844.688 354.2 844.816 353.688 845.072 353.24C845.328 352.728 845.616 352.28 845.936 351.896C846.32 351.512 846.736 351.192 847.184 350.936C847.696 350.68 848.208 350.552 848.72 350.552H849.296C849.808 350.552 850.288 350.68 850.736 350.936C851.248 351.192 851.664 351.512 851.984 351.896C852.368 352.28 852.656 352.728 852.848 353.24C853.104 353.752 853.232 354.264 853.232 354.776C853.232 359.256 853.328 363.608 853.52 367.832H877.808C878.32 367.832 878.8 367.928 879.248 368.12C879.76 368.312 880.208 368.6 880.592 368.984C880.976 369.368 881.296 369.784 881.552 370.232C881.808 370.68 881.936 371.16 881.936 371.672C881.936 372.184 881.808 372.696 881.552 373.208C881.296 373.656 880.976 374.072 880.592 374.456C880.208 374.84 879.76 375.128 879.248 375.32C878.8 375.512 878.32 375.608 877.808 375.608H854C854.448 381.88 855.056 387.736 855.824 393.176C856.656 398.744 857.616 403.832 858.704 408.44C859.856 413.048 861.136 416.984 862.544 420.248C864.016 423.512 865.584 426.072 867.248 427.928C868.912 429.72 870.704 430.616 872.624 430.616C873.648 430.616 874.416 429.752 874.928 428.024C875.504 426.296 875.952 423.448 876.272 419.48C876.528 417.752 877.136 416.568 878.096 415.928C879.12 415.288 880.272 415.32 881.552 416.024C882.192 416.344 882.704 416.92 883.088 417.752C883.536 418.584 883.696 419.384 883.568 420.152C883.248 423.8 882.8 426.84 882.224 429.272C881.712 431.704 881.008 433.624 880.112 435.032C879.216 436.504 878.096 437.528 876.752 438.104C875.472 438.68 873.872 438.968 871.952 438.968C868.752 438.968 865.904 437.912 863.408 435.8C860.912 433.752 858.672 430.872 856.688 427.16C854.704 423.384 852.976 418.904 851.504 413.72C850.032 408.472 848.816 402.744 847.856 396.536C846.896 390.264 846.16 383.576 845.648 376.472V375.608H800.24C799.728 375.608 799.216 375.512 798.704 375.32C798.256 375.128 797.84 374.84 797.456 374.456C797.072 374.072 796.752 373.656 796.496 373.208C796.24 372.696 796.112 372.184 796.112 371.672ZM799.568 393.272C799.568 392.76 799.664 392.28 799.856 391.832C800.112 391.384 800.432 390.968 800.816 390.584C801.2 390.2 801.648 389.912 802.16 389.72C802.672 389.464 803.184 389.336 803.696 389.336H837.68C838.192 389.336 838.672 389.464 839.12 389.72C839.632 389.912 840.08 390.2 840.464 390.584C840.912 390.968 841.232 391.384 841.424 391.832C841.68 392.28 841.808 392.76 841.808 393.272C841.808 393.72 841.68 394.2 841.424 394.712C841.232 395.16 840.912 395.576 840.464 395.96C840.08 396.28 839.632 396.568 839.12 396.824C838.672 397.016 838.192 397.112 837.68 397.112H824.24C824.304 397.304 824.336 397.496 824.336 397.688V422.552C825.936 422.232 827.6 421.88 829.328 421.496C832.848 420.792 836.368 420.056 839.888 419.288C840.464 419.16 841.008 419.16 841.52 419.288C842.096 419.416 842.608 419.64 843.056 419.96C843.504 420.28 843.888 420.664 844.208 421.112C844.528 421.496 844.72 421.944 844.784 422.456C844.848 423.288 844.528 424.12 843.824 424.952C843.184 425.72 842.416 426.2 841.52 426.392C838.128 427.224 834.672 428.056 831.152 428.888C827.696 429.656 824.304 430.392 820.976 431.096C817.648 431.864 814.416 432.6 811.28 433.304C808.144 434.072 805.232 434.744 802.544 435.32C802.096 435.384 801.616 435.352 801.104 435.224C800.592 435.16 800.112 435 799.664 434.744C799.216 434.488 798.832 434.168 798.512 433.784C798.192 433.4 797.968 433.016 797.84 432.632V432.44C797.648 431.864 797.616 431.32 797.744 430.808C797.872 430.232 798.064 429.72 798.32 429.272C798.64 428.76 799.056 428.344 799.568 428.024C800.08 427.64 800.624 427.384 801.2 427.256C803.696 426.808 806.48 426.264 809.552 425.624C811.728 425.176 814 424.696 816.368 424.184C816.304 423.928 816.272 423.64 816.272 423.32V397.688C816.272 397.496 816.304 397.304 816.368 397.112H803.696C803.184 397.112 802.672 397.016 802.16 396.824C801.648 396.568 801.2 396.28 800.816 395.96C800.432 395.576 800.112 395.16 799.856 394.712C799.664 394.2 799.568 393.72 799.568 393.272ZM863.024 358.328C862.576 357.944 862.192 357.464 861.872 356.888C861.616 356.312 861.456 355.768 861.392 355.256C861.328 354.68 861.392 354.136 861.584 353.624C861.776 353.112 862.064 352.696 862.448 352.376C862.96 351.928 863.664 351.736 864.56 351.8C865.52 351.8 866.32 352.024 866.96 352.472C868.432 353.496 869.904 354.616 871.376 355.832C872.912 357.048 874.224 358.2 875.312 359.288C875.696 359.608 875.984 360.024 876.176 360.536C876.368 360.984 876.464 361.464 876.464 361.976C876.528 362.488 876.464 362.968 876.272 363.416C876.144 363.8 875.92 364.152 875.6 364.472C875.216 364.856 874.768 365.112 874.256 365.24C873.744 365.304 873.2 365.336 872.624 365.336C872.048 365.272 871.504 365.112 870.992 364.856C870.48 364.6 870 364.28 869.552 363.896C868.72 363.064 867.728 362.168 866.576 361.208C865.424 360.184 864.24 359.224 863.024 358.328ZM951.459 352.856C951.779 352.472 952.195 352.152 952.707 351.896C953.219 351.576 953.731 351.352 954.243 351.224C954.755 351.096 955.267 351.064 955.779 351.128C956.355 351.192 956.867 351.384 957.315 351.704C957.699 351.96 958.019 352.344 958.275 352.856C958.531 353.304 958.691 353.784 958.755 354.296C958.819 354.808 958.819 355.32 958.755 355.832C958.691 356.024 958.595 356.248 958.467 356.504C959.043 356.76 959.491 357.08 959.811 357.464C961.795 359.896 964.067 362.296 966.627 364.664C969.187 367.032 971.939 369.272 974.883 371.384C977.891 373.496 981.027 375.416 984.291 377.144C987.555 378.872 990.819 380.344 994.083 381.56C995.619 382.136 996.579 383.064 996.963 384.344C997.347 385.56 997.091 386.84 996.195 388.184H996.099C995.651 388.824 994.947 389.336 993.987 389.72C993.027 390.04 992.163 390.072 991.395 389.816C987.811 388.472 984.259 386.808 980.739 384.824C977.283 382.776 973.923 380.568 970.659 378.2C967.395 375.768 964.355 373.176 961.539 370.424C958.787 367.8 956.323 365.112 954.147 362.36C952.867 363.96 951.459 365.56 949.923 367.16C946.851 370.424 943.555 373.496 940.035 376.376C936.515 379.256 932.803 381.912 928.899 384.344C925.059 386.776 921.155 388.856 917.187 390.584C916.739 390.776 916.259 390.872 915.747 390.872C915.235 390.872 914.723 390.808 914.211 390.68C913.763 390.488 913.315 390.264 912.867 390.008C912.419 389.688 912.099 389.336 911.907 388.952C911.203 387.736 911.075 386.488 911.523 385.208C912.035 383.928 912.963 383 914.307 382.424C918.019 380.888 921.635 379.064 925.155 376.952C928.739 374.776 932.099 372.44 935.235 369.944C938.435 367.384 941.411 364.664 944.163 361.784C946.979 358.84 949.411 355.864 951.459 352.856ZM932.355 392.6C932.355 392.088 932.451 391.576 932.643 391.064C932.899 390.552 933.219 390.104 933.603 389.72C933.987 389.336 934.403 389.048 934.851 388.856C935.363 388.6 935.843 388.472 936.291 388.472H936.771C937.283 388.472 937.763 388.6 938.211 388.856C938.723 389.048 939.171 389.336 939.555 389.72C939.939 390.104 940.227 390.552 940.419 391.064C940.675 391.576 940.803 392.088 940.803 392.6V400.568C940.803 403.576 940.611 406.68 940.227 409.88C939.843 413.08 939.011 416.248 937.731 419.384C936.451 422.52 934.595 425.592 932.163 428.6C929.795 431.608 926.563 434.424 922.467 437.048C922.083 437.304 921.635 437.464 921.123 437.528C920.675 437.656 920.195 437.688 919.683 437.624C919.171 437.56 918.691 437.432 918.243 437.24C917.795 437.112 917.411 436.888 917.091 436.568C916.067 435.608 915.619 434.456 915.747 433.112C915.939 431.832 916.643 430.68 917.859 429.656C921.123 427.48 923.715 425.24 925.635 422.936C927.555 420.568 928.995 418.168 929.955 415.736C930.979 413.304 931.619 410.808 931.875 408.248C932.195 405.688 932.355 403.064 932.355 400.376V392.6ZM968.355 392.504C968.355 391.928 968.451 391.416 968.643 390.968C968.899 390.456 969.219 390.008 969.603 389.624C969.987 389.176 970.403 388.856 970.851 388.664C971.363 388.408 971.875 388.28 972.387 388.28H972.771C973.347 388.28 973.859 388.408 974.307 388.664C974.755 388.856 975.171 389.176 975.555 389.624C976.003 390.008 976.323 390.456 976.515 390.968C976.771 391.416 976.899 391.928 976.899 392.504V434.84C976.899 435.352 976.771 435.864 976.515 436.376C976.323 436.888 976.003 437.336 975.555 437.72C975.171 438.104 974.755 438.392 974.307 438.584C973.859 438.84 973.347 438.968 972.771 438.968H972.387C971.875 438.968 971.363 438.84 970.851 438.584C970.403 438.392 969.987 438.104 969.603 437.72C969.219 437.336 968.899 436.888 968.643 436.376C968.451 435.864 968.355 435.352 968.355 434.84V392.504ZM1065.24 403.256C1065.24 402.744 1065.33 402.232 1065.53 401.72C1065.78 401.208 1066.1 400.76 1066.49 400.376C1066.93 399.992 1067.38 399.704 1067.83 399.512C1068.34 399.256 1068.85 399.128 1069.37 399.128H1104.98C1105.49 399.128 1106.01 399.256 1106.52 399.512C1107.03 399.704 1107.48 399.992 1107.86 400.376C1108.25 400.76 1108.53 401.208 1108.73 401.72C1108.98 402.232 1109.11 402.744 1109.11 403.256V434.264C1109.11 434.776 1109.01 435.256 1108.82 435.704C1108.63 436.216 1108.31 436.664 1107.86 437.048C1107.48 437.496 1107.06 437.816 1106.61 438.008C1106.17 438.264 1105.69 438.392 1105.17 438.392C1104.66 438.392 1104.15 438.264 1103.64 438.008C1103.19 437.816 1102.77 437.496 1102.39 437.048C1102.01 436.664 1101.69 436.248 1101.43 435.8C1101.24 435.352 1101.14 434.84 1101.14 434.264H1072.82V434.648C1072.82 435.16 1072.69 435.64 1072.44 436.088C1072.25 436.6 1071.96 437.048 1071.57 437.432C1071.25 437.816 1070.87 438.136 1070.42 438.392C1070.04 438.648 1069.59 438.776 1069.08 438.776C1068.57 438.776 1068.09 438.648 1067.64 438.392C1067.19 438.136 1066.77 437.816 1066.39 437.432C1066.07 437.048 1065.78 436.6 1065.53 436.088C1065.33 435.64 1065.24 435.128 1065.24 434.552V403.256ZM1061.88 358.52C1061.88 358.072 1061.97 357.624 1062.17 357.176C1062.42 356.728 1062.74 356.344 1063.13 356.024C1063.57 355.64 1064.02 355.352 1064.47 355.16C1064.98 354.968 1065.53 354.872 1066.1 354.872H1106.42C1106.93 354.872 1107.45 354.968 1107.96 355.16C1108.28 355.288 1108.57 355.448 1108.82 355.64C1108.89 355.704 1108.98 355.768 1109.11 355.832C1109.49 356.088 1109.81 356.408 1110.07 356.792C1110.26 357.048 1110.36 357.304 1110.36 357.56C1110.49 357.88 1110.55 358.2 1110.55 358.52C1110.55 358.84 1110.49 359.16 1110.36 359.48C1110.17 364.28 1109.94 368.408 1109.69 371.864C1109.37 375.512 1109.01 378.584 1108.63 381.08C1108.31 383.576 1107.93 385.56 1107.48 387.032C1107.03 388.44 1106.52 389.528 1105.94 390.296C1105.11 391.256 1104.21 391.96 1103.25 392.408C1102.29 392.792 1101.14 393.048 1099.8 393.176C1098.97 393.304 1097.91 393.368 1096.63 393.368C1095.35 393.368 1094.01 393.336 1092.6 393.272C1091.64 393.272 1090.74 392.984 1089.91 392.408C1089.08 391.832 1088.57 391.192 1088.37 390.488C1088.12 389.208 1088.31 388.152 1088.95 387.32C1089.59 386.488 1090.58 386.072 1091.93 386.072C1092.37 386.136 1092.79 386.168 1093.17 386.168C1093.56 386.168 1093.91 386.2 1094.23 386.264C1094.55 386.264 1094.84 386.264 1095.09 386.264H1096.15C1096.98 386.264 1097.59 386.2 1097.97 386.072C1098.42 385.944 1098.87 385.656 1099.32 385.208C1099.7 384.76 1100.05 383.928 1100.37 382.712C1100.76 381.432 1101.08 379.672 1101.33 377.432C1101.65 375.128 1101.91 372.248 1102.1 368.792C1102.23 366.808 1102.36 364.632 1102.49 362.264H1085.3C1084.85 365.4 1084.21 368.472 1083.38 371.48C1082.55 374.552 1081.4 377.464 1079.93 380.216C1078.52 382.968 1076.69 385.496 1074.45 387.8C1072.28 390.104 1069.62 392.152 1066.49 393.944C1066.1 394.136 1065.65 394.264 1065.14 394.328C1064.69 394.392 1064.21 394.392 1063.7 394.328C1063.25 394.264 1062.84 394.136 1062.45 393.944C1062.07 393.752 1061.75 393.496 1061.49 393.176C1060.79 392.216 1060.66 391.128 1061.11 389.912C1061.56 388.696 1062.36 387.608 1063.51 386.648C1065.88 385.176 1067.86 383.512 1069.46 381.656C1071.06 379.736 1072.41 377.688 1073.49 375.512C1074.58 373.336 1075.45 371.032 1076.09 368.6C1076.6 366.488 1077.01 364.376 1077.33 362.264H1066.1C1065.53 362.264 1064.98 362.168 1064.47 361.976C1064.02 361.72 1063.57 361.432 1063.13 361.112C1062.74 360.728 1062.42 360.312 1062.17 359.864C1061.97 359.416 1061.88 358.968 1061.88 358.52ZM1033.56 411.896C1032.79 412.024 1032.05 412.056 1031.35 411.992C1030.77 411.992 1030.23 411.896 1029.72 411.704C1029.4 411.704 1029.08 411.672 1028.76 411.608C1027.67 411.416 1026.97 410.872 1026.65 409.976C1026.52 409.528 1026.52 409.048 1026.65 408.536C1026.77 408.024 1026.97 407.512 1027.22 407C1027.54 406.488 1027.93 405.976 1028.37 405.464C1028.82 404.952 1029.24 404.472 1029.62 404.024C1029.94 403.768 1030.13 403.64 1030.2 403.64C1030.33 403.576 1030.45 403.448 1030.58 403.256C1030.77 403.064 1031.03 402.776 1031.35 402.392C1031.73 401.944 1032.34 401.304 1033.17 400.472C1033.94 399.704 1035.03 398.456 1036.44 396.728C1037.91 395 1039.54 392.984 1041.33 390.68C1042.1 389.72 1042.87 388.696 1043.64 387.608C1041.08 387.992 1039 388.312 1037.4 388.568C1035.35 388.888 1033.78 389.144 1032.69 389.336C1031.99 389.4 1031.29 389.4 1030.58 389.336C1029.88 389.208 1029.27 389.016 1028.76 388.76C1028.44 388.632 1028.18 388.472 1027.99 388.28H1027.8C1026.77 388.088 1026.1 387.48 1025.78 386.456C1025.59 386.008 1025.56 385.528 1025.69 385.016C1025.81 384.504 1026.01 383.96 1026.26 383.384C1026.52 382.744 1026.84 382.136 1027.22 381.56C1027.61 380.984 1027.99 380.472 1028.37 380.024L1028.57 379.736L1028.66 379.64C1028.73 379.512 1028.85 379.288 1029.05 378.968C1029.3 378.648 1029.69 378.072 1030.2 377.24C1030.77 376.6 1031.51 375.512 1032.41 373.976C1033.37 372.44 1034.39 370.68 1035.48 368.696C1036.63 366.648 1037.78 364.44 1038.93 362.072C1040.15 359.64 1041.3 357.144 1042.39 354.584C1042.65 354.072 1042.97 353.624 1043.35 353.24C1043.8 352.856 1044.28 352.568 1044.79 352.376C1045.37 352.12 1045.91 351.992 1046.42 351.992C1047 351.928 1047.51 352.024 1047.96 352.28C1048.41 352.472 1048.76 352.76 1049.01 353.144C1049.33 353.528 1049.56 354.008 1049.69 354.584C1049.88 355.096 1049.94 355.608 1049.88 356.12C1049.88 356.632 1049.75 357.112 1049.49 357.56C1047 362.808 1044.25 367.896 1041.24 372.824C1039.25 376.152 1037.24 379.224 1035.19 382.04L1045.17 380.984C1045.81 380.92 1046.42 380.984 1047 381.176C1047.38 381.24 1047.7 381.336 1047.96 381.464C1049.49 379.224 1051 376.888 1052.47 374.456C1052.73 374.008 1053.08 373.624 1053.53 373.304C1053.97 372.984 1054.45 372.76 1054.97 372.632C1055.48 372.44 1055.99 372.376 1056.5 372.44C1057.01 372.44 1057.49 372.6 1057.94 372.92C1058.33 373.112 1058.61 373.432 1058.81 373.88C1059.06 374.328 1059.22 374.808 1059.29 375.32C1059.41 375.832 1059.41 376.344 1059.29 376.856C1059.16 377.368 1058.97 377.848 1058.71 378.296C1054.87 384.184 1050.81 389.784 1046.52 395.096C1044.15 398.04 1041.78 400.792 1039.41 403.352L1055.35 400.376C1055.99 400.248 1056.6 400.248 1057.17 400.376C1057.81 400.504 1058.36 400.728 1058.81 401.048C1059.32 401.304 1059.7 401.656 1059.96 402.104C1060.28 402.488 1060.44 402.936 1060.44 403.448C1060.44 404.152 1060.05 404.856 1059.29 405.56C1058.58 406.264 1057.75 406.712 1056.79 406.904C1053.4 407.608 1050.42 408.216 1047.86 408.728C1045.3 409.24 1043.09 409.688 1041.24 410.072C1039.45 410.456 1037.91 410.808 1036.63 411.128C1035.41 411.384 1034.39 411.64 1033.56 411.896ZM1072.82 426.968H1101.14V407C1101.14 406.808 1101.08 406.648 1100.95 406.52C1100.82 406.392 1100.69 406.328 1100.57 406.328H1073.4C1073.27 406.328 1073.14 406.392 1073.01 406.52C1072.89 406.648 1072.82 406.776 1072.82 406.904V426.968ZM1025.88 429.368C1025.81 428.856 1025.85 428.376 1025.97 427.928C1026.1 427.48 1026.33 427.032 1026.65 426.584C1026.97 426.136 1027.35 425.784 1027.8 425.528C1028.25 425.208 1028.73 424.984 1029.24 424.856C1032.82 424.088 1036.82 423.224 1041.24 422.264C1045.72 421.24 1050.33 420.184 1055.06 419.096C1055.64 418.968 1056.21 418.968 1056.79 419.096C1057.37 419.16 1057.88 419.32 1058.33 419.576C1058.77 419.832 1059.16 420.184 1059.48 420.632C1059.86 421.016 1060.05 421.432 1060.05 421.88C1060.12 422.648 1059.83 423.448 1059.19 424.28C1058.55 425.048 1057.78 425.56 1056.89 425.816C1052.28 426.904 1047.73 427.992 1043.25 429.08C1038.77 430.168 1034.65 431.224 1030.87 432.248C1030.36 432.376 1029.81 432.376 1029.24 432.248C1028.66 432.184 1028.15 431.992 1027.7 431.672C1027.25 431.416 1026.87 431.096 1026.55 430.712C1026.23 430.328 1026.01 429.88 1025.88 429.368Z" fill="#4A4A4A"/>
<path opacity="0.6" d="M0 630C100 630 200 550 300 520C400 490 500 450 600 430C700 410 800 420 900 450C1000 480 1100 500 1200 490V630H0Z" fill="url(#paint4_linear_18_3)"/>
<path opacity="0.5" d="M0 630C150 630 250 570 350 540C450 510 550 480 650 470C750 460 850 470 950 490C1050 510 1150 520 1200 515V630H0Z" fill="url(#paint5_linear_18_3)"/>
<path opacity="0.4" d="M0 630C200 630 300 590 400 570C500 550 600 530 700 520C800 510 900 520 1000 540C1100 560 1150 565 1200 563V630H0Z" fill="url(#paint6_linear_18_3)"/>
</g>
<defs>
<linearGradient id="paint0_linear_18_3" x1="0" y1="0" x2="51856.9" y2="98775.1" gradientUnits="userSpaceOnUse">
<stop stop-color="#F3F0FF"/>
<stop offset="0.35" stop-color="#E5DBFF"/>
<stop offset="0.65" stop-color="#D0BFFF"/>
<stop offset="1" stop-color="#BAA2FF"/>
</linearGradient>
<radialGradient id="paint1_radial_18_3" cx="0" cy="0" r="1" gradientUnits="userSpaceOnUse" gradientTransform="translate(24000 12600) scale(60000 31500)">
<stop stop-color="#F3F0FF" stop-opacity="0.7"/>
<stop offset="1" stop-color="#F3F0FF" stop-opacity="0"/>
</radialGradient>
<radialGradient id="paint2_radial_18_3" cx="0" cy="0" r="1" gradientUnits="userSpaceOnUse" gradientTransform="translate(96000 50400) scale(72000 37800)">
<stop stop-color="#B197FC" stop-opacity="0.5"/>
<stop offset="1" stop-color="#B197FC" stop-opacity="0"/>
</radialGradient>
<radialGradient id="paint3_radial_18_3" cx="0" cy="0" r="1" gradientUnits="userSpaceOnUse" gradientTransform="translate(60000 25200) scale(84000 44100)">
<stop stop-color="#E5DBFF" stop-opacity="0.4"/>
<stop offset="1" stop-color="#E5DBFF" stop-opacity="0"/>
</radialGradient>
<linearGradient id="paint4_linear_18_3" x1="0" y1="419.595" x2="120000" y2="419.595" gradientUnits="userSpaceOnUse">
<stop stop-color="#B197FC" stop-opacity="0.45"/>
<stop offset="0.5" stop-color="#9775FA" stop-opacity="0.5"/>
<stop offset="1" stop-color="#845EF7" stop-opacity="0.45"/>
</linearGradient>
<linearGradient id="paint5_linear_18_3" x1="0" y1="466.077" x2="120000" y2="466.077" gradientUnits="userSpaceOnUse">
<stop stop-color="#9775FA" stop-opacity="0.4"/>
<stop offset="0.5" stop-color="#845EF7" stop-opacity="0.45"/>
<stop offset="1" stop-color="#7950F2" stop-opacity="0.4"/>
</linearGradient>
<linearGradient id="paint6_linear_18_3" x1="0" y1="516.077" x2="120000" y2="516.077" gradientUnits="userSpaceOnUse">
<stop stop-color="#845EF7" stop-opacity="0.3"/>
<stop offset="0.5" stop-color="#7950F2" stop-opacity="0.35"/>
<stop offset="1" stop-color="#7048E8" stop-opacity="0.3"/>
</linearGradient>
<clipPath id="clip0_18_3">
<rect width="1200" height="630" fill="white"/>
</clipPath>
</defs>
</svg>
