<svg width="1200" height="630" viewBox="0 0 1200 630" fill="none" xmlns="http://www.w3.org/2000/svg">
<g clip-path="url(#clip0_2_14)">
<path d="M1200 0H0V630H1200V0Z" fill="url(#paint0_linear_2_14)"/>
<path d="M1200 0H0V630H1200V0Z" fill="url(#paint1_radial_2_14)"/>
<path d="M1200 0H0V630H1200V0Z" fill="url(#paint2_radial_2_14)"/>
<path d="M1200 0H0V630H1200V0Z" fill="url(#paint3_radial_2_14)"/>
<path d="M102.288 278.768C100.432 278.768 98.576 278.544 96.72 278.096C94.928 277.648 93.264 276.912 91.728 275.888C90.256 274.8 88.976 273.488 87.888 271.952C86.864 270.416 86.032 268.784 85.392 267.056C84.752 265.264 84.336 263.472 84.144 261.68C83.952 259.824 83.856 257.968 83.856 256.112V237.776H72.24V228.08H83.856V207.44H95.184V228.08H110.832V237.776H95.184V256.112C95.184 257.008 95.216 257.936 95.28 258.896C95.344 259.792 95.472 260.688 95.664 261.584C95.856 262.48 96.08 263.376 96.336 264.272C96.656 265.104 97.072 265.904 97.584 266.672C98.16 267.376 98.832 267.952 99.6 268.4C100.432 268.848 101.328 269.072 102.288 269.072C103.376 269.072 104.4 268.784 105.36 268.208C106.32 267.632 107.056 266.864 107.568 265.904C108.144 264.944 108.528 263.92 108.72 262.832C108.976 261.744 109.104 260.656 109.104 259.568C109.104 259.44 109.104 259.344 109.104 259.28C109.104 259.152 109.104 259.056 109.104 258.992H120.528C120.528 259.184 120.528 259.376 120.528 259.568C120.528 259.696 120.528 259.856 120.528 260.048C120.528 261.712 120.336 263.376 119.952 265.04C119.632 266.64 119.12 268.176 118.416 269.648C117.712 271.12 116.784 272.464 115.632 273.68C114.544 274.896 113.264 275.92 111.792 276.752C110.32 277.52 108.752 278.032 107.088 278.288C105.488 278.608 103.888 278.768 102.288 278.768ZM146.507 278.768C144.459 278.768 142.411 278.512 140.363 278C138.379 277.488 136.619 276.56 135.083 275.216C133.547 273.872 132.395 272.24 131.627 270.32C130.923 268.336 130.571 266.32 130.571 264.272C130.571 262.48 130.859 260.688 131.435 258.896C132.011 257.104 132.907 255.536 134.123 254.192C135.403 252.784 136.843 251.664 138.443 250.832C140.107 249.936 141.803 249.232 143.531 248.72C145.323 248.208 147.115 247.856 148.906 247.664C150.763 247.472 152.619 247.376 154.475 247.376H161.963V244.208C161.963 243.056 161.675 241.968 161.099 240.944C160.587 239.92 159.819 239.12 158.795 238.544C157.835 237.904 156.779 237.488 155.627 237.296C154.475 237.104 153.323 237.008 152.171 237.008C151.083 237.008 149.995 237.104 148.906 237.296C147.819 237.488 146.795 237.872 145.835 238.448C144.875 238.96 144.075 239.728 143.435 240.752C142.859 241.712 142.571 242.736 142.571 243.824H131.147C131.147 242.16 131.403 240.528 131.915 238.928C132.491 237.264 133.259 235.792 134.219 234.512C135.243 233.168 136.459 232.016 137.867 231.056C139.275 230.096 140.747 229.328 142.283 228.752C143.883 228.176 145.515 227.792 147.179 227.6C148.843 227.408 150.507 227.312 152.171 227.312C153.899 227.312 155.595 227.408 157.259 227.6C158.987 227.792 160.651 228.176 162.251 228.752C163.915 229.328 165.451 230.096 166.859 231.056C168.331 232.016 169.547 233.2 170.507 234.608C171.531 235.952 172.267 237.456 172.715 239.12C173.163 240.784 173.387 242.48 173.387 244.208V278H161.963V270.224C161.259 271.632 160.331 272.912 159.179 274.064C158.091 275.152 156.843 276.08 155.435 276.848C154.091 277.552 152.651 278.032 151.115 278.288C149.579 278.608 148.043 278.768 146.507 278.768ZM151.019 269.072C152.363 269.072 153.707 268.944 155.051 268.688C156.395 268.368 157.611 267.792 158.699 266.96C159.787 266.128 160.587 265.072 161.099 263.792C161.675 262.512 161.963 261.2 161.963 259.856V257.072H154.475C153.643 257.072 152.779 257.104 151.883 257.168C151.051 257.232 150.219 257.328 149.387 257.456C148.555 257.584 147.723 257.776 146.891 258.032C146.059 258.224 145.259 258.544 144.491 258.992C143.787 259.44 143.179 260.048 142.667 260.816C142.219 261.52 141.995 262.288 141.995 263.12C141.995 264.144 142.283 265.104 142.859 266C143.435 266.832 144.171 267.504 145.067 268.016C145.963 268.464 146.923 268.752 147.947 268.88C148.971 269.008 149.995 269.072 151.019 269.072ZM190.629 278V268.304H205.029V237.776H192.165V228.08H216.357V268.304H229.221V278H190.629ZM209.925 221.36C208.901 221.36 207.877 221.2 206.853 220.88C205.829 220.56 204.965 220.048 204.261 219.344C203.557 218.64 203.045 217.776 202.725 216.752C202.405 215.728 202.245 214.704 202.245 213.68C202.245 212.656 202.405 211.632 202.725 210.608C203.045 209.584 203.557 208.72 204.261 208.016C204.965 207.312 205.829 206.8 206.853 206.48C207.877 206.16 208.901 206 209.925 206C210.949 206 211.973 206.16 212.997 206.48C214.021 206.8 214.885 207.312 215.589 208.016C216.293 208.72 216.805 209.584 217.125 210.608C217.445 211.632 217.605 212.656 217.605 213.68C217.605 214.704 217.445 215.728 217.125 216.752C216.805 217.776 216.293 218.64 215.589 219.344C214.885 220.048 214.021 220.56 212.997 220.88C211.973 221.2 210.949 221.36 209.925 221.36ZM248.192 278V268.304H262.592V217.136H249.728V207.44H273.92V268.304H286.784V278H248.192ZM324.858 278.768C323.194 278.768 321.53 278.672 319.866 278.48C318.266 278.288 316.666 277.936 315.066 277.424C313.53 276.848 312.058 276.112 310.65 275.216C309.242 274.256 308.026 273.136 307.002 271.856C305.978 270.576 305.178 269.136 304.602 267.536C304.09 265.936 303.834 264.304 303.834 262.64H315.258C315.258 263.728 315.578 264.752 316.218 265.712C316.858 266.608 317.658 267.312 318.618 267.824C319.578 268.336 320.57 268.688 321.594 268.88C322.682 269.008 323.77 269.072 324.858 269.072C325.562 269.072 326.266 269.072 326.97 269.072C327.674 269.008 328.346 268.912 328.986 268.784C329.69 268.592 330.362 268.368 331.002 268.112C331.706 267.856 332.314 267.504 332.826 267.056C333.402 266.608 333.85 266.096 334.17 265.52C334.554 264.88 334.746 264.208 334.746 263.504C334.746 262.8 334.554 262.16 334.17 261.584C333.85 261.008 333.402 260.56 332.826 260.24C332.25 259.856 331.642 259.6 331.002 259.472C330.362 259.28 329.722 259.152 329.082 259.088C327.29 258.832 325.498 258.544 323.706 258.224C321.978 257.904 320.25 257.52 318.522 257.072C316.794 256.624 315.098 256.016 313.434 255.248C311.77 254.48 310.266 253.488 308.922 252.272C307.642 251.056 306.618 249.616 305.85 247.952C305.146 246.224 304.794 244.464 304.794 242.672C304.794 241.136 305.05 239.6 305.562 238.064C306.138 236.528 306.906 235.152 307.866 233.936C308.89 232.656 310.074 231.6 311.418 230.768C312.826 229.872 314.266 229.168 315.738 228.656C317.274 228.144 318.842 227.792 320.442 227.6C322.042 227.408 323.642 227.312 325.242 227.312C326.842 227.312 328.442 227.408 330.042 227.6C331.642 227.792 333.178 228.176 334.65 228.752C336.186 229.264 337.626 230 338.97 230.96C340.378 231.856 341.562 232.944 342.522 234.224C343.482 235.504 344.218 236.912 344.73 238.448C345.242 239.984 345.498 241.584 345.498 243.248H334.074C334.074 242.224 333.786 241.264 333.21 240.368C332.634 239.472 331.898 238.768 331.002 238.256C330.17 237.744 329.242 237.424 328.218 237.296C327.258 237.104 326.266 237.008 325.242 237.008C324.218 237.008 323.226 237.072 322.266 237.2C321.306 237.328 320.378 237.616 319.482 238.064C318.586 238.448 317.786 239.056 317.082 239.888C316.442 240.656 316.122 241.552 316.122 242.576C316.122 243.216 316.282 243.856 316.602 244.496C316.986 245.072 317.466 245.552 318.042 245.936C318.618 246.256 319.226 246.512 319.866 246.704C320.506 246.832 321.146 246.928 321.786 246.992C323.578 247.248 325.338 247.536 327.066 247.856C328.858 248.176 330.618 248.56 332.346 249.008C334.074 249.456 335.77 250.064 337.434 250.832C339.098 251.6 340.57 252.592 341.85 253.808C343.13 255.024 344.154 256.464 344.922 258.128C345.69 259.792 346.074 261.52 346.074 263.312C346.074 264.976 345.786 266.608 345.21 268.208C344.634 269.744 343.802 271.152 342.714 272.432C341.69 273.648 340.442 274.672 338.97 275.504C337.562 276.336 336.09 277.008 334.554 277.52C333.018 277.968 331.418 278.288 329.754 278.48C328.154 278.672 326.522 278.768 324.858 278.768ZM382.421 278.768C380.501 278.768 378.581 278.608 376.661 278.288C374.805 277.968 373.013 277.424 371.285 276.656C369.557 275.824 367.989 274.736 366.581 273.392C365.237 272.048 364.117 270.544 363.221 268.88C362.325 267.216 361.685 265.456 361.301 263.6C360.981 261.68 360.821 259.76 360.821 257.84V248.24C360.821 246.32 360.981 244.432 361.301 242.576C361.685 240.656 362.325 238.864 363.221 237.2C364.117 235.536 365.237 234.032 366.581 232.688C367.989 231.344 369.557 230.288 371.285 229.52C373.013 228.688 374.805 228.112 376.661 227.792C378.581 227.472 380.501 227.312 382.421 227.312C384.149 227.312 385.909 227.44 387.701 227.696C389.493 227.952 391.189 228.432 392.789 229.136C394.453 229.84 395.989 230.768 397.397 231.92C398.805 233.008 399.989 234.32 400.949 235.856C401.909 237.392 402.613 239.024 403.061 240.752C403.573 242.48 403.829 244.24 403.829 246.032H392.405C392.405 244.752 392.149 243.504 391.637 242.288C391.189 241.072 390.485 240.048 389.525 239.216C388.565 238.384 387.445 237.808 386.165 237.488C384.885 237.168 383.637 237.008 382.421 237.008C380.949 237.008 379.509 237.264 378.101 237.776C376.757 238.288 375.605 239.088 374.645 240.176C373.749 241.264 373.109 242.544 372.725 244.016C372.405 245.424 372.245 246.832 372.245 248.24V257.84C372.245 259.248 372.405 260.688 372.725 262.16C373.109 263.568 373.749 264.816 374.645 265.904C375.605 266.992 376.757 267.792 378.101 268.304C379.509 268.816 380.949 269.072 382.421 269.072C383.637 269.072 384.885 268.912 386.165 268.592C387.445 268.272 388.565 267.696 389.525 266.864C390.485 266.032 391.189 265.008 391.637 263.792C392.149 262.576 392.405 261.328 392.405 260.048H403.829C403.829 261.84 403.573 263.6 403.061 265.328C402.613 267.056 401.909 268.688 400.949 270.224C399.989 271.76 398.805 273.104 397.397 274.256C395.989 275.344 394.453 276.24 392.789 276.944C391.189 277.648 389.493 278.128 387.701 278.384C385.909 278.64 384.149 278.768 382.421 278.768ZM434.319 278.768C432.271 278.768 430.223 278.512 428.175 278C426.191 277.488 424.431 276.56 422.895 275.216C421.359 273.872 420.207 272.24 419.439 270.32C418.735 268.336 418.383 266.32 418.383 264.272C418.383 262.48 418.671 260.688 419.247 258.896C419.823 257.104 420.719 255.536 421.935 254.192C423.215 252.784 424.655 251.664 426.255 250.832C427.919 249.936 429.615 249.232 431.343 248.72C433.135 248.208 434.927 247.856 436.719 247.664C438.575 247.472 440.431 247.376 442.287 247.376H449.775V244.208C449.775 243.056 449.487 241.968 448.911 240.944C448.399 239.92 447.631 239.12 446.607 238.544C445.647 237.904 444.591 237.488 443.439 237.296C442.287 237.104 441.135 237.008 439.983 237.008C438.895 237.008 437.807 237.104 436.719 237.296C435.631 237.488 434.607 237.872 433.647 238.448C432.687 238.96 431.887 239.728 431.247 240.752C430.671 241.712 430.383 242.736 430.383 243.824H418.959C418.959 242.16 419.215 240.528 419.727 238.928C420.303 237.264 421.071 235.792 422.031 234.512C423.055 233.168 424.271 232.016 425.679 231.056C427.087 230.096 428.559 229.328 430.095 228.752C431.695 228.176 433.327 227.792 434.991 227.6C436.655 227.408 438.319 227.312 439.983 227.312C441.711 227.312 443.407 227.408 445.071 227.6C446.799 227.792 448.463 228.176 450.063 228.752C451.727 229.328 453.263 230.096 454.671 231.056C456.143 232.016 457.359 233.2 458.319 234.608C459.343 235.952 460.079 237.456 460.527 239.12C460.975 240.784 461.199 242.48 461.199 244.208V278H449.775V270.224C449.071 271.632 448.143 272.912 446.991 274.064C445.903 275.152 444.655 276.08 443.247 276.848C441.903 277.552 440.463 278.032 438.927 278.288C437.391 278.608 435.855 278.768 434.319 278.768ZM438.831 269.072C440.175 269.072 441.519 268.944 442.863 268.688C444.207 268.368 445.423 267.792 446.511 266.96C447.599 266.128 448.399 265.072 448.911 263.792C449.487 262.512 449.775 261.2 449.775 259.856V257.072H442.287C441.455 257.072 440.591 257.104 439.695 257.168C438.863 257.232 438.031 257.328 437.199 257.456C436.367 257.584 435.535 257.776 434.703 258.032C433.871 258.224 433.071 258.544 432.303 258.992C431.599 259.44 430.991 260.048 430.479 260.816C430.031 261.52 429.807 262.288 429.807 263.12C429.807 264.144 430.095 265.104 430.671 266C431.247 266.832 431.983 267.504 432.879 268.016C433.775 268.464 434.735 268.752 435.759 268.88C436.783 269.008 437.807 269.072 438.831 269.072ZM478.442 278V268.304H492.842V217.136H479.978V207.44H504.17V268.304H517.034V278H478.442ZM555.588 278.768C553.668 278.768 551.748 278.608 549.828 278.288C547.908 277.968 546.052 277.424 544.26 276.656C542.532 275.824 540.932 274.768 539.46 273.488C538.052 272.144 536.9 270.64 536.004 268.976C535.108 267.312 534.468 265.52 534.084 263.6C533.7 261.68 533.508 259.76 533.508 257.84V248.24C533.508 246.32 533.668 244.432 533.988 242.576C534.372 240.656 535.012 238.864 535.908 237.2C536.804 235.472 537.956 233.968 539.364 232.688C540.836 231.344 542.436 230.288 544.164 229.52C545.892 228.688 547.684 228.112 549.54 227.792C551.46 227.472 553.38 227.312 555.3 227.312C557.22 227.312 559.108 227.472 560.964 227.792C562.884 228.112 564.708 228.688 566.436 229.52C568.164 230.288 569.732 231.344 571.14 232.688C572.612 233.968 573.796 235.472 574.692 237.2C575.588 238.864 576.196 240.656 576.516 242.576C576.9 244.432 577.092 246.32 577.092 248.24V257.84H544.932C544.932 259.312 545.124 260.784 545.508 262.256C545.892 263.664 546.564 264.912 547.524 266C548.548 267.088 549.764 267.888 551.172 268.4C552.644 268.848 554.116 269.072 555.588 269.072C556.612 269.072 557.668 269.008 558.756 268.88C559.844 268.688 560.868 268.368 561.828 267.92C562.788 267.472 563.62 266.832 564.324 266C565.028 265.104 565.412 264.144 565.476 263.12H576.9C576.772 264.72 576.388 266.32 575.748 267.92C575.172 269.456 574.34 270.864 573.252 272.144C572.228 273.36 571.012 274.416 569.604 275.312C568.26 276.208 566.788 276.912 565.188 277.424C563.652 277.936 562.052 278.288 560.388 278.48C558.788 278.672 557.188 278.768 555.588 278.768ZM544.932 248.24H565.668C565.668 246.768 565.476 245.328 565.092 243.92C564.708 242.448 564.036 241.168 563.076 240.08C562.116 238.992 560.932 238.224 559.524 237.776C558.18 237.264 556.772 237.008 555.3 237.008C553.828 237.008 552.388 237.264 550.98 237.776C549.636 238.224 548.484 238.992 547.524 240.08C546.564 241.168 545.892 242.448 545.508 243.92C545.124 245.328 544.932 246.768 544.932 248.24ZM661.305 278V241.616H649.401V231.92H661.305V223.184C661.305 221.712 661.401 220.272 661.593 218.864C661.849 217.392 662.297 215.984 662.937 214.64C663.577 213.296 664.409 212.112 665.433 211.088C666.457 210 667.609 209.136 668.889 208.496C670.169 207.792 671.545 207.312 673.017 207.056C674.489 206.8 675.961 206.672 677.433 206.672C678.777 206.672 680.121 206.768 681.465 206.96C682.809 207.152 684.089 207.504 685.305 208.016C686.521 208.528 687.641 209.232 688.665 210.128C689.753 211.024 690.649 212.048 691.353 213.2C692.057 214.288 692.569 215.504 692.889 216.848C693.273 218.192 693.465 219.536 693.465 220.88C693.465 221.008 693.465 221.136 693.465 221.264C693.465 221.392 693.465 221.52 693.465 221.648H682.041C682.041 221.584 682.041 221.552 682.041 221.552C682.041 221.488 682.041 221.424 682.041 221.36C682.041 220.72 681.945 220.08 681.753 219.44C681.561 218.8 681.241 218.256 680.793 217.808C680.409 217.296 679.897 216.944 679.257 216.752C678.681 216.496 678.073 216.368 677.433 216.368C676.665 216.368 675.929 216.592 675.225 217.04C674.521 217.424 673.977 217.968 673.593 218.672C673.209 219.312 672.953 220.048 672.825 220.88C672.697 221.648 672.633 222.416 672.633 223.184V231.92H689.337V241.616H672.633V278H661.305ZM723.38 278.768C721.716 278.768 720.052 278.544 718.388 278.096C716.724 277.648 715.22 276.912 713.876 275.888C712.596 274.864 711.476 273.648 710.516 272.24C709.62 270.832 708.884 269.328 708.308 267.728C707.796 266.128 707.444 264.496 707.252 262.832C707.06 261.168 706.964 259.504 706.964 257.84V228.08H718.388V257.84C718.388 259.248 718.548 260.656 718.868 262.064C719.188 263.408 719.764 264.656 720.596 265.808C721.428 266.896 722.516 267.728 723.859 268.304C725.204 268.816 726.58 269.072 727.988 269.072C729.396 269.072 730.772 268.816 732.116 268.304C733.46 267.728 734.548 266.896 735.38 265.808C736.212 264.656 736.788 263.408 737.108 262.064C737.428 260.656 737.588 259.248 737.588 257.84V228.08H749.012V278H737.588V269.744C737.012 271.088 736.244 272.368 735.284 273.584C734.324 274.736 733.204 275.728 731.924 276.56C730.644 277.328 729.268 277.872 727.796 278.192C726.324 278.576 724.852 278.768 723.38 278.768ZM764.526 278V228.08H775.95V236.336C776.526 234.992 777.294 233.744 778.254 232.592C779.214 231.376 780.334 230.384 781.614 229.616C782.894 228.784 784.27 228.208 785.742 227.888C787.214 227.504 788.686 227.312 790.158 227.312C791.822 227.312 793.486 227.536 795.15 227.984C796.814 228.432 798.286 229.168 799.566 230.192C800.91 231.216 802.03 232.432 802.926 233.84C803.886 235.248 804.622 236.752 805.134 238.352C805.71 239.952 806.094 241.584 806.286 243.248C806.478 244.912 806.574 246.576 806.574 248.24V278H795.15V248.24C795.15 246.832 794.99 245.456 794.67 244.112C794.35 242.704 793.774 241.456 792.942 240.368C792.11 239.216 791.022 238.384 789.678 237.872C788.334 237.296 786.958 237.008 785.55 237.008C784.142 237.008 782.766 237.296 781.422 237.872C780.078 238.384 778.99 239.216 778.158 240.368C777.326 241.456 776.75 242.704 776.43 244.112C776.11 245.456 775.95 246.832 775.95 248.24V278H764.526ZM822.089 278V228.08H833.513V236.336C834.089 234.992 834.857 233.744 835.817 232.592C836.777 231.376 837.897 230.384 839.177 229.616C840.457 228.784 841.833 228.208 843.305 227.888C844.777 227.504 846.249 227.312 847.721 227.312C849.385 227.312 851.049 227.536 852.713 227.984C854.377 228.432 855.849 229.168 857.129 230.192C858.473 231.216 859.593 232.432 860.489 233.84C861.449 235.248 862.185 236.752 862.697 238.352C863.273 239.952 863.657 241.584 863.849 243.248C864.041 244.912 864.137 246.576 864.137 248.24V278H852.713V248.24C852.713 246.832 852.553 245.456 852.233 244.112C851.913 242.704 851.337 241.456 850.505 240.368C849.673 239.216 848.585 238.384 847.241 237.872C845.897 237.296 844.521 237.008 843.113 237.008C841.705 237.008 840.329 237.296 838.984 237.872C837.641 238.384 836.553 239.216 835.721 240.368C834.889 241.456 834.313 242.704 833.993 244.112C833.673 245.456 833.513 246.832 833.513 248.24V278H822.089ZM900.963 278.768C899.043 278.768 897.123 278.608 895.203 278.288C893.283 277.968 891.427 277.424 889.635 276.656C887.907 275.824 886.307 274.768 884.835 273.488C883.427 272.144 882.275 270.64 881.379 268.976C880.483 267.312 879.843 265.52 879.459 263.6C879.075 261.68 878.883 259.76 878.883 257.84V248.24C878.883 246.32 879.043 244.432 879.363 242.576C879.747 240.656 880.387 238.864 881.283 237.2C882.179 235.472 883.331 233.968 884.739 232.688C886.211 231.344 887.811 230.288 889.539 229.52C891.267 228.688 893.059 228.112 894.915 227.792C896.835 227.472 898.755 227.312 900.675 227.312C902.595 227.312 904.483 227.472 906.339 227.792C908.259 228.112 910.083 228.688 911.811 229.52C913.539 230.288 915.107 231.344 916.515 232.688C917.987 233.968 919.171 235.472 920.067 237.2C920.963 238.864 921.571 240.656 921.891 242.576C922.275 244.432 922.467 246.32 922.467 248.24V257.84H890.307C890.307 259.312 890.499 260.784 890.883 262.256C891.267 263.664 891.939 264.912 892.899 266C893.923 267.088 895.139 267.888 896.547 268.4C898.019 268.848 899.491 269.072 900.963 269.072C901.987 269.072 903.043 269.008 904.131 268.88C905.219 268.688 906.243 268.368 907.203 267.92C908.163 267.472 908.995 266.832 909.699 266C910.403 265.104 910.787 264.144 910.851 263.12H922.275C922.147 264.72 921.763 266.32 921.123 267.92C920.547 269.456 919.715 270.864 918.627 272.144C917.603 273.36 916.387 274.416 914.979 275.312C913.635 276.208 912.163 276.912 910.563 277.424C909.027 277.936 907.427 278.288 905.763 278.48C904.163 278.672 902.563 278.768 900.963 278.768ZM890.307 248.24H911.043C911.043 246.768 910.851 245.328 910.467 243.92C910.083 242.448 909.411 241.168 908.451 240.08C907.491 238.992 906.307 238.224 904.899 237.776C903.555 237.264 902.147 237.008 900.675 237.008C899.203 237.008 897.763 237.264 896.355 237.776C895.011 238.224 893.859 238.992 892.899 240.08C891.939 241.168 891.267 242.448 890.883 243.92C890.499 245.328 890.307 246.768 890.307 248.24ZM938.942 278V268.304H953.342V217.136H940.478V207.44H964.67V268.304H977.534V278H938.942ZM1034.62 208.016C1032.18 212.048 1028.98 216.144 1025.02 220.304C1021.05 224.464 1016.6 228.432 1011.67 232.208C1006.81 235.92 1001.69 239.184 996.312 242C995.864 241.04 995.224 239.984 994.392 238.832C993.56 237.68 992.696 236.528 991.8 235.376C990.904 234.224 990.04 233.264 989.208 232.496C994.904 229.744 1000.25 226.352 1005.24 222.32C1010.3 218.288 1014.78 214 1018.68 209.456C1022.58 204.848 1025.66 200.432 1027.9 196.208H1040.28C1042.78 200.24 1045.56 204.048 1048.63 207.632C1051.77 211.216 1055.06 214.512 1058.52 217.52C1062.04 220.464 1065.72 223.088 1069.56 225.392C1073.4 227.696 1077.27 229.616 1081.18 231.152C1079.7 232.624 1078.33 234.32 1077.05 236.24C1075.77 238.096 1074.62 239.92 1073.59 241.712C1068.47 239.088 1063.42 235.952 1058.42 232.304C1053.43 228.656 1048.86 224.752 1044.7 220.592C1040.6 216.368 1037.24 212.176 1034.62 208.016ZM1045.27 231.632H1057.27V286.544H1045.27V231.632ZM1012.15 232.112H1024.06V244.016C1024.06 247.408 1023.83 250.992 1023.38 254.768C1023 258.48 1022.1 262.224 1020.7 266C1019.35 269.776 1017.27 273.424 1014.46 276.944C1011.7 280.464 1007.96 283.696 1003.22 286.64C1002.52 285.808 1001.59 284.848 1000.44 283.76C999.352 282.736 998.2 281.712 996.984 280.688C995.768 279.728 994.648 278.96 993.624 278.384C997.784 275.888 1001.11 273.2 1003.61 270.32C1006.1 267.44 1007.96 264.496 1009.18 261.488C1010.39 258.416 1011.19 255.376 1011.58 252.368C1011.96 249.36 1012.15 246.48 1012.15 243.728V232.112ZM1089.43 261.776C1089.3 261.072 1089.05 260.144 1088.66 258.992C1088.28 257.776 1087.86 256.528 1087.42 255.248C1086.97 253.968 1086.52 252.88 1086.07 251.984C1087.35 251.728 1088.6 251.088 1089.82 250.064C1091.1 248.976 1092.54 247.6 1094.14 245.936C1095.03 245.104 1096.28 243.728 1097.88 241.808C1099.54 239.888 1101.37 237.616 1103.35 234.992C1105.4 232.304 1107.45 229.392 1109.5 226.256C1111.54 223.12 1113.46 219.92 1115.26 216.656L1124.18 222.608C1120.34 228.816 1115.99 234.896 1111.13 240.848C1106.26 246.736 1101.37 251.92 1096.44 256.4V256.688C1096.44 256.688 1096.09 256.88 1095.38 257.264C1094.68 257.584 1093.85 258 1092.89 258.512C1091.99 259.024 1091.19 259.568 1090.49 260.144C1089.78 260.72 1089.43 261.264 1089.43 261.776ZM1089.43 261.776L1088.76 253.04L1093.66 249.68L1122.55 244.784C1122.36 246.192 1122.23 247.824 1122.17 249.68C1122.17 251.472 1122.2 252.976 1122.26 254.192C1115.8 255.408 1110.55 256.432 1106.52 257.264C1102.49 258.032 1099.35 258.704 1097.11 259.28C1094.87 259.792 1093.18 260.24 1092.02 260.624C1090.94 261.008 1090.07 261.392 1089.43 261.776ZM1088.47 238.352C1088.34 237.584 1088.06 236.592 1087.61 235.376C1087.22 234.096 1086.78 232.784 1086.26 231.44C1085.82 230.032 1085.37 228.848 1084.92 227.888C1085.94 227.632 1086.94 227.024 1087.9 226.064C1088.86 225.104 1089.88 223.856 1090.97 222.32C1091.54 221.552 1092.38 220.304 1093.46 218.576C1094.62 216.848 1095.83 214.8 1097.11 212.432C1098.46 210 1099.77 207.408 1101.05 204.656C1102.39 201.904 1103.58 199.152 1104.6 196.4L1114.87 201.488C1113.14 205.2 1111.16 208.944 1108.92 212.72C1106.74 216.432 1104.44 220.016 1102.01 223.472C1099.58 226.864 1097.11 229.936 1094.62 232.688V232.976C1094.62 232.976 1094.3 233.168 1093.66 233.552C1093.08 233.872 1092.38 234.32 1091.54 234.896C1090.71 235.472 1089.98 236.08 1089.34 236.72C1088.76 237.296 1088.47 237.84 1088.47 238.352ZM1088.47 238.352L1088.18 230.576L1092.98 227.504L1112.38 225.968C1112.06 227.312 1111.8 228.848 1111.61 230.576C1111.42 232.304 1111.32 233.744 1111.32 234.896C1106.97 235.344 1103.38 235.728 1100.57 236.048C1097.82 236.368 1095.64 236.656 1094.04 236.912C1092.5 237.168 1091.32 237.424 1090.49 237.68C1089.66 237.872 1088.98 238.096 1088.47 238.352ZM1085.98 271.472C1088.86 270.896 1092.18 270.224 1095.96 269.456C1099.74 268.688 1103.74 267.856 1107.96 266.96C1112.18 266.064 1116.41 265.168 1120.63 264.272L1121.69 273.776C1115.8 275.312 1109.91 276.816 1104.02 278.288C1098.2 279.76 1092.86 281.104 1087.99 282.32L1085.98 271.472ZM1131.38 272.24H1165.75V282.608H1131.38V272.24ZM1124.09 201.008H1167V211.472H1124.09V201.008ZM1126.78 245.936H1171.8V286.16H1160.38V256.208H1137.53V286.544H1126.78V245.936ZM1162.3 201.008H1173.34C1173.34 201.008 1173.34 201.552 1173.34 202.64C1173.34 203.728 1173.3 204.624 1173.24 205.328C1172.98 212.176 1172.7 217.808 1172.38 222.224C1172.06 226.64 1171.61 230.064 1171.03 232.496C1170.52 234.928 1169.85 236.688 1169.02 237.776C1168.06 238.992 1167 239.856 1165.85 240.368C1164.76 240.88 1163.48 241.264 1162.01 241.52C1160.73 241.712 1159.1 241.84 1157.11 241.904C1155.13 241.904 1153.05 241.872 1150.87 241.808C1150.81 240.144 1150.49 238.32 1149.91 236.336C1149.34 234.352 1148.57 232.656 1147.61 231.248C1149.46 231.376 1151.19 231.472 1152.79 231.536C1154.39 231.6 1155.58 231.632 1156.34 231.632C1157.11 231.632 1157.72 231.568 1158.17 231.44C1158.62 231.248 1159.06 230.928 1159.51 230.48C1159.96 229.84 1160.34 228.56 1160.66 226.64C1161.05 224.656 1161.37 221.744 1161.62 217.904C1161.94 214.064 1162.17 209.008 1162.3 202.736V201.008ZM1137.14 204.752H1148.47C1148.15 209.104 1147.61 213.232 1146.84 217.136C1146.14 220.976 1144.98 224.56 1143.38 227.888C1141.85 231.216 1139.67 234.224 1136.86 236.912C1134.1 239.6 1130.49 241.968 1126.01 244.016C1125.43 242.608 1124.47 241.04 1123.13 239.312C1121.85 237.584 1120.6 236.24 1119.38 235.28C1123.03 233.68 1125.98 231.824 1128.22 229.712C1130.52 227.6 1132.28 225.264 1133.5 222.704C1134.71 220.144 1135.58 217.36 1136.09 214.352C1136.6 211.344 1136.95 208.144 1137.14 204.752Z" fill="#4A4A4A"/>
<path d="M322.038 408.12L346.838 405L347.278 407.84L322.478 410.96L322.038 408.12ZM337.678 396.68L339.838 395.24C340.638 395.88 341.465 396.587 342.318 397.36C343.171 398.133 343.958 398.907 344.678 399.68C345.425 400.427 346.025 401.093 346.478 401.68L344.158 403.28C343.705 402.667 343.118 401.987 342.398 401.24C341.705 400.467 340.945 399.68 340.118 398.88C339.291 398.053 338.478 397.32 337.678 396.68ZM321.598 394.8L324.438 395.72C323.425 398.067 322.238 400.36 320.878 402.6C319.545 404.84 318.091 406.947 316.518 408.92C314.945 410.867 313.331 412.587 311.678 414.08C311.571 413.84 311.411 413.533 311.198 413.16C310.985 412.787 310.758 412.427 310.518 412.08C310.305 411.707 310.105 411.413 309.918 411.2C311.465 409.893 312.958 408.373 314.398 406.64C315.865 404.907 317.211 403.027 318.438 401C319.665 398.973 320.718 396.907 321.598 394.8ZM317.038 405.48L320.078 402.44L320.118 402.52V431.12H317.038V405.48ZM330.998 394.96H333.998C334.158 399.467 334.451 403.667 334.878 407.56C335.305 411.453 335.891 414.88 336.638 417.84C337.385 420.8 338.318 423.133 339.438 424.84C340.558 426.547 341.865 427.48 343.358 427.64C343.945 427.667 344.411 427.093 344.758 425.92C345.105 424.747 345.371 423 345.558 420.68C345.771 420.867 346.038 421.067 346.358 421.28C346.678 421.493 346.998 421.693 347.318 421.88C347.638 422.04 347.891 422.173 348.078 422.28C347.785 424.573 347.411 426.387 346.958 427.72C346.505 429.027 345.985 429.933 345.398 430.44C344.838 430.973 344.198 431.213 343.478 431.16C341.691 431.027 340.131 430.347 338.798 429.12C337.465 427.893 336.331 426.2 335.398 424.04C334.491 421.88 333.745 419.32 333.158 416.36C332.571 413.4 332.105 410.12 331.758 406.52C331.438 402.92 331.185 399.067 330.998 394.96ZM368.118 406.4V411.56H382.958V406.4H368.118ZM368.118 398.88V403.96H382.958V398.88H368.118ZM365.358 396.24H385.838V414.16H365.358V396.24ZM364.878 418.88H386.398V421.6H364.878V418.88ZM361.798 427.12H387.758V429.88H361.798V427.12ZM350.918 397.08H363.398V399.92H350.918V397.08ZM351.318 408.68H362.798V411.48H351.318V408.68ZM350.478 424C351.571 423.68 352.798 423.32 354.158 422.92C355.545 422.493 356.998 422.027 358.518 421.52C360.065 420.987 361.611 420.467 363.158 419.96L363.678 422.88C361.518 423.6 359.345 424.333 357.158 425.08C354.971 425.8 352.998 426.453 351.238 427.04L350.478 424ZM355.878 398.2H358.758V423L355.878 423.56V398.2ZM374.238 397.48H376.838V412.88H377.078V428.36H373.998V412.88H374.238V397.48ZM391.678 402.84H426.558V405.88H391.678V402.84ZM399.638 420.68H418.278V423.72H399.638V420.68ZM407.478 394.44H410.638V431.2H407.478V394.44ZM406.518 403.84L409.238 404.72C408.038 407.547 406.571 410.253 404.838 412.84C403.105 415.4 401.185 417.72 399.078 419.8C396.971 421.853 394.771 423.547 392.478 424.88C392.318 424.64 392.105 424.373 391.838 424.08C391.571 423.76 391.305 423.453 391.038 423.16C390.798 422.867 390.558 422.613 390.318 422.4C391.998 421.52 393.625 420.427 395.198 419.12C396.798 417.813 398.305 416.347 399.718 414.72C401.158 413.067 402.451 411.32 403.598 409.48C404.745 407.64 405.718 405.76 406.518 403.84ZM411.598 403.96C412.665 406.493 414.038 408.947 415.718 411.32C417.398 413.667 419.278 415.787 421.358 417.68C423.465 419.547 425.665 421.04 427.958 422.16C427.718 422.373 427.451 422.627 427.158 422.92C426.891 423.213 426.625 423.533 426.358 423.88C426.091 424.2 425.865 424.507 425.678 424.8C423.358 423.493 421.131 421.827 418.998 419.8C416.891 417.747 414.985 415.44 413.278 412.88C411.571 410.32 410.131 407.653 408.958 404.88L411.598 403.96ZM454.478 394.4H457.318V422.28H454.478V394.4ZM441.918 410.88L463.438 401.8L464.598 404.36L443.038 413.56L441.918 410.88ZM446.238 398.12H449.118V424.92C449.118 425.64 449.198 426.2 449.358 426.6C449.518 426.973 449.811 427.227 450.238 427.36C450.691 427.493 451.371 427.56 452.278 427.56C452.545 427.56 452.985 427.56 453.598 427.56C454.211 427.56 454.918 427.56 455.718 427.56C456.545 427.56 457.371 427.56 458.198 427.56C459.025 427.56 459.771 427.56 460.438 427.56C461.105 427.56 461.598 427.56 461.918 427.56C462.718 427.56 463.305 427.413 463.678 427.12C464.078 426.8 464.358 426.227 464.518 425.4C464.705 424.573 464.851 423.4 464.958 421.88C465.305 422.147 465.731 422.387 466.238 422.6C466.771 422.813 467.238 422.947 467.638 423C467.505 424.84 467.265 426.293 466.918 427.36C466.571 428.427 466.011 429.173 465.238 429.6C464.491 430.053 463.425 430.28 462.038 430.28C461.798 430.28 461.345 430.28 460.678 430.28C460.038 430.28 459.278 430.28 458.398 430.28C457.518 430.28 456.638 430.28 455.758 430.28C454.878 430.28 454.105 430.28 453.438 430.28C452.798 430.28 452.371 430.28 452.158 430.28C450.638 430.28 449.438 430.12 448.558 429.8C447.705 429.507 447.105 428.96 446.758 428.16C446.411 427.387 446.238 426.28 446.238 424.84V398.12ZM462.918 402.2H462.598L463.278 401.6L463.838 401.16L465.958 401.96L465.798 402.52C465.798 404.413 465.785 406.187 465.758 407.84C465.758 409.493 465.745 410.987 465.718 412.32C465.691 413.653 465.651 414.773 465.598 415.68C465.545 416.56 465.491 417.2 465.438 417.6C465.331 418.4 465.091 419.013 464.718 419.44C464.345 419.84 463.851 420.107 463.238 420.24C462.705 420.4 462.078 420.493 461.358 420.52C460.665 420.547 460.038 420.56 459.478 420.56C459.425 420.16 459.331 419.707 459.198 419.2C459.091 418.693 458.945 418.267 458.758 417.92C459.238 417.947 459.745 417.973 460.278 418C460.838 418 461.225 418 461.438 418C461.758 418 462.011 417.933 462.198 417.8C462.411 417.667 462.558 417.373 462.638 416.92C462.718 416.653 462.771 416.12 462.798 415.32C462.851 414.493 462.878 413.44 462.878 412.16C462.905 410.88 462.918 409.4 462.918 407.72C462.918 406.04 462.918 404.2 462.918 402.2ZM430.758 404.04H443.438V406.88H430.758V404.04ZM435.878 394.88H438.718V420.84H435.878V394.88ZM430.398 421.84C431.465 421.44 432.691 420.96 434.078 420.4C435.491 419.813 436.985 419.2 438.558 418.56C440.131 417.893 441.705 417.227 443.278 416.56L443.958 419.24C441.825 420.227 439.665 421.213 437.478 422.2C435.318 423.187 433.358 424.067 431.598 424.84L430.398 421.84ZM494.343 428L499.183 398.6H502.543L500.583 410.4C500.903 409.867 501.289 409.373 501.743 408.92C502.196 408.44 502.703 408.04 503.263 407.72C503.823 407.4 504.396 407.187 504.983 407.08C505.596 406.947 506.196 406.88 506.783 406.88C507.556 406.88 508.316 406.987 509.063 407.2C509.809 407.387 510.463 407.707 511.023 408.16C511.609 408.587 512.089 409.12 512.463 409.76C512.836 410.4 513.103 411.08 513.262 411.8C513.423 412.52 513.489 413.28 513.463 414.08C513.436 414.853 513.356 415.627 513.223 416.4L511.303 428H507.943L509.943 415.92C510.023 415.413 510.076 414.907 510.103 414.4C510.129 413.893 510.089 413.413 509.983 412.96C509.876 412.48 509.703 412.04 509.463 411.64C509.223 411.213 508.916 410.867 508.543 410.6C508.169 410.307 507.743 410.107 507.263 410C506.809 409.867 506.329 409.8 505.823 409.8C505.343 409.8 504.863 409.853 504.383 409.96C503.929 410.04 503.476 410.187 503.023 410.4C502.596 410.587 502.196 410.84 501.823 411.16C501.449 411.48 501.116 411.853 500.823 412.28C500.556 412.68 500.343 413.107 500.183 413.56C500.023 414.013 499.903 414.467 499.823 414.92L497.663 428H494.343ZM531.167 428.32C530.367 428.32 529.58 428.227 528.807 428.04C528.06 427.88 527.38 427.587 526.767 427.16C526.18 426.733 525.687 426.2 525.287 425.56C524.887 424.92 524.594 424.24 524.407 423.52C524.247 422.773 524.18 422 524.207 421.2C524.234 420.4 524.314 419.6 524.447 418.8L525.887 410.12H520.727V407.2H526.367L527.807 398.6H531.127L529.727 407.2H536.847V410.12H529.207L527.727 419.28C527.647 419.76 527.58 420.24 527.527 420.72C527.5 421.173 527.514 421.64 527.567 422.12C527.647 422.573 527.767 423.013 527.927 423.44C528.114 423.84 528.354 424.2 528.647 424.52C528.967 424.813 529.34 425.027 529.767 425.16C530.22 425.293 530.687 425.36 531.167 425.36C531.7 425.36 532.247 425.253 532.807 425.04C533.367 424.827 533.86 424.507 534.287 424.08C534.714 423.653 535.074 423.187 535.367 422.68C535.687 422.147 535.94 421.613 536.127 421.08L539.167 422.28C538.847 423.107 538.42 423.907 537.887 424.68C537.38 425.427 536.767 426.093 536.047 426.68C535.354 427.24 534.567 427.653 533.687 427.92C532.834 428.187 531.994 428.32 531.167 428.32ZM555.151 428.32C554.351 428.32 553.565 428.227 552.791 428.04C552.045 427.88 551.365 427.587 550.751 427.16C550.165 426.733 549.671 426.2 549.271 425.56C548.871 424.92 548.578 424.24 548.391 423.52C548.231 422.773 548.165 422 548.191 421.2C548.218 420.4 548.298 419.6 548.431 418.8L549.871 410.12H544.711V407.2H550.351L551.791 398.6H555.111L553.711 407.2H560.831V410.12H553.191L551.711 419.28C551.631 419.76 551.565 420.24 551.511 420.72C551.485 421.173 551.498 421.64 551.551 422.12C551.631 422.573 551.751 423.013 551.911 423.44C552.098 423.84 552.338 424.2 552.631 424.52C552.951 424.813 553.325 425.027 553.751 425.16C554.205 425.293 554.671 425.36 555.151 425.36C555.685 425.36 556.231 425.253 556.791 425.04C557.351 424.827 557.845 424.507 558.271 424.08C558.698 423.653 559.058 423.187 559.351 422.68C559.671 422.147 559.925 421.613 560.111 421.08L563.151 422.28C562.831 423.107 562.405 423.907 561.871 424.68C561.365 425.427 560.751 426.093 560.031 426.68C559.338 427.24 558.551 427.653 557.671 427.92C556.818 428.187 555.978 428.32 555.151 428.32ZM564.856 436.6L569.736 407.2H573.056L572.496 410.64C572.869 410.053 573.322 409.507 573.856 409C574.389 408.493 574.962 408.08 575.576 407.76C576.216 407.44 576.869 407.213 577.536 407.08C578.202 406.947 578.869 406.88 579.536 406.88C579.536 406.88 579.549 406.88 579.576 406.88C580.322 406.88 581.056 406.987 581.776 407.2C582.496 407.387 583.122 407.72 583.656 408.2C584.189 408.653 584.616 409.2 584.936 409.84C585.256 410.48 585.469 411.16 585.576 411.88C585.709 412.6 585.749 413.347 585.696 414.12C585.669 414.867 585.602 415.627 585.496 416.4L584.816 420.4C584.709 421.093 584.536 421.787 584.296 422.48C584.082 423.147 583.776 423.8 583.376 424.44C583.002 425.053 582.536 425.613 581.976 426.12C581.442 426.627 580.842 427.053 580.176 427.4C579.536 427.747 578.856 427.987 578.136 428.12C577.442 428.253 576.749 428.32 576.056 428.32C575.336 428.32 574.642 428.227 573.976 428.04C573.309 427.88 572.722 427.6 572.216 427.2C571.736 426.773 571.336 426.267 571.016 425.68C570.696 425.093 570.469 424.467 570.336 423.8L568.216 436.6H564.856ZM575.256 425.4C575.736 425.4 576.216 425.36 576.696 425.28C577.202 425.173 577.682 425.013 578.136 424.8C578.616 424.56 579.056 424.267 579.456 423.92C579.882 423.573 580.229 423.187 580.496 422.76C580.789 422.307 581.016 421.84 581.176 421.36C581.362 420.88 581.496 420.4 581.576 419.92L582.216 415.92C582.296 415.413 582.336 414.907 582.336 414.4C582.362 413.867 582.309 413.36 582.176 412.88C582.069 412.4 581.882 411.96 581.616 411.56C581.376 411.16 581.056 410.827 580.656 410.56C580.256 410.293 579.802 410.107 579.296 410C578.816 409.893 578.322 409.84 577.816 409.84C577.336 409.84 576.856 409.88 576.376 409.96C575.922 410.013 575.469 410.147 575.016 410.36C574.589 410.573 574.176 410.84 573.776 411.16C573.402 411.48 573.069 411.853 572.776 412.28C572.509 412.68 572.296 413.107 572.136 413.56C571.976 414.013 571.856 414.467 571.776 414.92L571.136 418.92C571.056 419.453 571.002 419.987 570.976 420.52C570.949 421.027 570.976 421.533 571.056 422.04C571.162 422.52 571.322 422.987 571.536 423.44C571.749 423.867 572.042 424.24 572.416 424.56C572.789 424.853 573.216 425.067 573.696 425.2C574.202 425.333 574.722 425.4 575.256 425.4ZM589.04 433.72L609.48 395.08H612.96L592.52 433.72H589.04ZM627.104 428.32C626.304 428.32 625.518 428.227 624.744 428.04C623.998 427.88 623.318 427.587 622.704 427.16C622.118 426.733 621.624 426.2 621.224 425.56C620.824 424.92 620.531 424.24 620.344 423.52C620.184 422.773 620.118 422 620.144 421.2C620.171 420.4 620.251 419.6 620.384 418.8L621.824 410.12H616.664V407.2H622.304L623.744 398.6H627.064L625.664 407.2H632.784V410.12H625.144L623.664 419.28C623.584 419.76 623.518 420.24 623.464 420.72C623.438 421.173 623.451 421.64 623.504 422.12C623.584 422.573 623.704 423.013 623.864 423.44C624.051 423.84 624.291 424.2 624.584 424.52C624.904 424.813 625.278 425.027 625.704 425.16C626.158 425.293 626.624 425.36 627.104 425.36C627.638 425.36 628.184 425.253 628.744 425.04C629.304 424.827 629.798 424.507 630.224 424.08C630.651 423.653 631.011 423.187 631.304 422.68C631.624 422.147 631.878 421.613 632.064 421.08L635.104 422.28C634.784 423.107 634.358 423.907 633.824 424.68C633.318 425.427 632.704 426.093 631.984 426.68C631.291 427.24 630.504 427.653 629.624 427.92C628.771 428.187 627.931 428.32 627.104 428.32ZM647.609 428.32C646.969 428.32 646.329 428.28 645.689 428.2C645.075 428.12 644.475 427.987 643.889 427.8C643.302 427.613 642.742 427.36 642.209 427.04C641.702 426.693 641.249 426.307 640.849 425.88C640.475 425.427 640.155 424.92 639.889 424.36C639.649 423.8 639.462 423.213 639.329 422.6C639.222 421.987 639.182 421.36 639.209 420.72C639.262 420.08 639.342 419.44 639.449 418.8L640.089 414.8C640.222 414.08 640.409 413.36 640.649 412.64C640.915 411.92 641.262 411.253 641.689 410.64C642.142 410 642.675 409.427 643.289 408.92C643.902 408.413 644.555 408.013 645.249 407.72C645.969 407.4 646.702 407.187 647.449 407.08C648.195 406.947 648.929 406.88 649.649 406.88C650.369 406.88 651.075 406.933 651.769 407.04C652.489 407.12 653.169 407.28 653.809 407.52C654.475 407.76 655.075 408.093 655.609 408.52C656.142 408.947 656.569 409.453 656.889 410.04C657.235 410.627 657.462 411.267 657.569 411.96C657.702 412.653 657.702 413.36 657.569 414.08C657.569 414.133 657.569 414.173 657.569 414.2C657.569 414.227 657.555 414.267 657.529 414.32H654.249C654.249 414.293 654.249 414.267 654.249 414.24C654.249 414.213 654.249 414.2 654.249 414.2C654.355 413.56 654.315 412.933 654.129 412.32C653.942 411.707 653.609 411.213 653.129 410.84C652.675 410.44 652.142 410.173 651.529 410.04C650.915 409.907 650.289 409.84 649.649 409.84C649.169 409.84 648.675 409.88 648.169 409.96C647.662 410.04 647.169 410.2 646.689 410.44C646.235 410.653 645.809 410.933 645.409 411.28C645.009 411.627 644.662 412.027 644.369 412.48C644.102 412.907 643.889 413.36 643.729 413.84C643.569 414.32 643.449 414.8 643.369 415.28L642.689 419.28C642.609 419.813 642.569 420.347 642.569 420.88C642.569 421.413 642.635 421.933 642.769 422.44C642.929 422.92 643.169 423.36 643.489 423.76C643.809 424.133 644.182 424.453 644.609 424.72C645.035 424.96 645.502 425.133 646.009 425.24C646.542 425.32 647.075 425.36 647.609 425.36C648.249 425.36 648.889 425.293 649.529 425.16C650.195 425 650.809 424.733 651.369 424.36C651.929 423.987 652.422 423.533 652.849 423C653.302 422.44 653.662 421.853 653.929 421.24L657.009 422.28C656.609 423.187 656.089 424.04 655.449 424.84C654.809 425.64 654.049 426.307 653.169 426.84C652.315 427.373 651.409 427.76 650.449 428C649.489 428.213 648.542 428.32 647.609 428.32ZM660.793 436.6L665.673 407.2H668.993L668.433 410.64C668.806 410.053 669.26 409.507 669.793 409C670.326 408.493 670.9 408.08 671.513 407.76C672.153 407.44 672.806 407.213 673.473 407.08C674.14 406.947 674.806 406.88 675.473 406.88C675.473 406.88 675.486 406.88 675.513 406.88C676.26 406.88 676.993 406.987 677.713 407.2C678.433 407.387 679.06 407.72 679.593 408.2C680.126 408.653 680.553 409.2 680.873 409.84C681.193 410.48 681.406 411.16 681.513 411.88C681.646 412.6 681.686 413.347 681.633 414.12C681.606 414.867 681.54 415.627 681.433 416.4L680.753 420.4C680.646 421.093 680.473 421.787 680.233 422.48C680.02 423.147 679.713 423.8 679.313 424.44C678.94 425.053 678.473 425.613 677.913 426.12C677.38 426.627 676.78 427.053 676.113 427.4C675.473 427.747 674.793 427.987 674.073 428.12C673.38 428.253 672.686 428.32 671.993 428.32C671.273 428.32 670.58 428.227 669.913 428.04C669.246 427.88 668.66 427.6 668.153 427.2C667.673 426.773 667.273 426.267 666.953 425.68C666.633 425.093 666.406 424.467 666.273 423.8L664.153 436.6H660.793ZM671.193 425.4C671.673 425.4 672.153 425.36 672.633 425.28C673.14 425.173 673.62 425.013 674.073 424.8C674.553 424.56 674.993 424.267 675.393 423.92C675.82 423.573 676.166 423.187 676.433 422.76C676.726 422.307 676.953 421.84 677.113 421.36C677.3 420.88 677.433 420.4 677.513 419.92L678.153 415.92C678.233 415.413 678.273 414.907 678.273 414.4C678.3 413.867 678.246 413.36 678.113 412.88C678.006 412.4 677.82 411.96 677.553 411.56C677.313 411.16 676.993 410.827 676.593 410.56C676.193 410.293 675.74 410.107 675.233 410C674.753 409.893 674.26 409.84 673.753 409.84C673.273 409.84 672.793 409.88 672.313 409.96C671.86 410.013 671.406 410.147 670.953 410.36C670.526 410.573 670.113 410.84 669.713 411.16C669.34 411.48 669.006 411.853 668.713 412.28C668.446 412.68 668.233 413.107 668.073 413.56C667.913 414.013 667.793 414.467 667.713 414.92L667.073 418.92C666.993 419.453 666.94 419.987 666.913 420.52C666.886 421.027 666.913 421.533 666.993 422.04C667.1 422.52 667.26 422.987 667.473 423.44C667.686 423.867 667.98 424.24 668.353 424.56C668.726 424.853 669.153 425.067 669.633 425.2C670.14 425.333 670.66 425.4 671.193 425.4ZM714.442 395.88H723.762V398.68H714.442V395.88ZM714.442 405.24H723.842V408.04H714.442V405.24ZM730.042 409.6H744.602V412.36H730.042V409.6ZM714.362 414.8H723.762V417.64H714.362V414.8ZM713.242 395.88H715.962V410.24C715.962 411.813 715.922 413.507 715.842 415.32C715.762 417.133 715.615 418.987 715.402 420.88C715.189 422.747 714.869 424.573 714.442 426.36C714.015 428.147 713.442 429.773 712.722 431.24C712.562 431.08 712.335 430.907 712.042 430.72C711.749 430.533 711.442 430.36 711.122 430.2C710.802 430.04 710.522 429.92 710.282 429.84C710.975 428.427 711.509 426.893 711.882 425.24C712.282 423.587 712.575 421.893 712.762 420.16C712.949 418.4 713.069 416.68 713.122 415C713.202 413.293 713.242 411.707 713.242 410.24V395.88ZM722.082 395.88H724.882V427.6C724.882 428.4 724.775 429.04 724.562 429.52C724.349 430.027 723.989 430.4 723.482 430.64C722.975 430.907 722.295 431.067 721.442 431.12C720.589 431.173 719.482 431.2 718.122 431.2C718.095 430.96 718.042 430.653 717.962 430.28C717.882 429.933 717.775 429.587 717.642 429.24C717.535 428.893 717.415 428.587 717.282 428.32C718.215 428.347 719.055 428.36 719.802 428.36C720.549 428.36 721.055 428.347 721.322 428.32C721.589 428.32 721.775 428.267 721.882 428.16C722.015 428.053 722.082 427.853 722.082 427.56V395.88ZM742.482 396H745.402V403.76C745.402 404.48 745.295 405.053 745.082 405.48C744.869 405.907 744.442 406.24 743.802 406.48C743.189 406.667 742.362 406.787 741.322 406.84C740.282 406.867 739.002 406.88 737.482 406.88C737.429 406.453 737.295 406.013 737.082 405.56C736.895 405.08 736.709 404.667 736.522 404.32C737.349 404.32 738.109 404.333 738.802 404.36C739.522 404.387 740.135 404.4 740.642 404.4C741.149 404.373 741.509 404.36 741.722 404.36C742.042 404.333 742.242 404.28 742.322 404.2C742.429 404.12 742.482 403.96 742.482 403.72V396ZM743.762 409.6H744.282L744.802 409.48L746.562 410.12C745.895 413.533 744.895 416.587 743.562 419.28C742.255 421.947 740.709 424.253 738.922 426.2C737.162 428.147 735.242 429.733 733.162 430.96C733.002 430.64 732.749 430.253 732.402 429.8C732.055 429.347 731.722 429 731.402 428.76C733.322 427.747 735.109 426.347 736.762 424.56C738.415 422.747 739.855 420.627 741.082 418.2C742.309 415.747 743.202 413.067 743.762 410.16V409.6ZM734.522 411.32C735.295 413.907 736.309 416.347 737.562 418.64C738.842 420.933 740.335 422.973 742.042 424.76C743.749 426.52 745.642 427.907 747.722 428.92C747.402 429.187 747.055 429.547 746.682 430C746.309 430.48 746.002 430.893 745.762 431.24C743.629 430.067 741.682 428.52 739.922 426.6C738.189 424.653 736.669 422.44 735.362 419.96C734.055 417.453 732.975 414.787 732.122 411.96L734.522 411.32ZM728.402 396H743.322V398.8H731.242V431.2H728.402V396ZM753.962 416.72H781.762V419.36H753.962V416.72ZM780.722 416.72H783.722C783.722 416.72 783.709 416.8 783.682 416.96C783.682 417.12 783.669 417.307 783.642 417.52C783.642 417.733 783.615 417.92 783.562 418.08C783.269 420.48 782.962 422.467 782.642 424.04C782.349 425.613 782.015 426.84 781.642 427.72C781.269 428.6 780.855 429.24 780.402 429.64C779.975 430.04 779.509 430.307 779.002 430.44C778.495 430.6 777.882 430.707 777.162 430.76C776.549 430.76 775.695 430.747 774.602 430.72C773.509 430.72 772.362 430.693 771.162 430.64C771.135 430.213 771.029 429.747 770.842 429.24C770.682 428.76 770.469 428.333 770.202 427.96C771.029 428.04 771.842 428.093 772.642 428.12C773.469 428.173 774.202 428.2 774.842 428.2C775.482 428.227 775.962 428.24 776.282 428.24C776.709 428.24 777.055 428.213 777.322 428.16C777.589 428.107 777.829 428 778.042 427.84C778.389 427.547 778.722 427 779.042 426.2C779.362 425.373 779.655 424.227 779.922 422.76C780.189 421.267 780.455 419.4 780.722 417.16V416.72ZM766.762 412.76L769.882 413C769.349 416.6 768.389 419.6 767.002 422C765.615 424.373 763.749 426.28 761.402 427.72C759.082 429.16 756.229 430.293 752.842 431.12C752.762 430.88 752.615 430.6 752.402 430.28C752.215 429.987 752.015 429.68 751.802 429.36C751.589 429.04 751.389 428.773 751.202 428.56C754.429 427.947 757.122 427.027 759.282 425.8C761.442 424.547 763.135 422.867 764.362 420.76C765.589 418.627 766.389 415.96 766.762 412.76ZM761.802 398.52H781.202V401.08H761.802V398.52ZM780.482 398.52H781.082L781.602 398.36L783.402 399.6C781.962 401.76 780.095 403.653 777.802 405.28C775.535 406.88 772.975 408.24 770.122 409.36C767.295 410.48 764.322 411.4 761.202 412.12C758.109 412.813 755.029 413.347 751.962 413.72C751.855 413.347 751.682 412.907 751.442 412.4C751.229 411.867 751.002 411.427 750.762 411.08C753.722 410.787 756.695 410.333 759.682 409.72C762.695 409.107 765.549 408.307 768.242 407.32C770.935 406.307 773.335 405.107 775.442 403.72C777.575 402.333 779.255 400.733 780.482 398.92V398.52ZM761.762 401.52C763.229 403.387 765.229 404.96 767.762 406.24C770.295 407.493 773.229 408.467 776.562 409.16C779.922 409.853 783.522 410.307 787.362 410.52C787.175 410.76 786.962 411.04 786.722 411.36C786.509 411.68 786.309 412 786.122 412.32C785.935 412.64 785.789 412.947 785.682 413.24C781.789 412.893 778.149 412.307 774.762 411.48C771.375 410.653 768.362 409.52 765.722 408.08C763.109 406.613 760.949 404.773 759.242 402.56L761.762 401.52ZM764.202 394.36L767.322 394.96C765.989 397.12 764.255 399.253 762.122 401.36C760.015 403.467 757.442 405.373 754.402 407.08C754.269 406.84 754.095 406.587 753.882 406.32C753.669 406.027 753.442 405.747 753.202 405.48C752.962 405.213 752.735 405 752.522 404.84C754.415 403.853 756.109 402.773 757.602 401.6C759.122 400.427 760.429 399.213 761.522 397.96C762.642 396.707 763.535 395.507 764.202 394.36ZM790.962 397H811.482V399.76H790.962V397ZM792.122 416.08H810.322V418.8H792.122V416.08ZM799.762 411.28H802.722V426.96L799.762 427.4V411.28ZM790.522 427C792.255 426.787 794.255 426.547 796.522 426.28C798.815 425.987 801.255 425.667 803.842 425.32C806.429 424.973 809.002 424.627 811.562 424.28L811.642 427.08C809.162 427.427 806.669 427.773 804.162 428.12C801.682 428.493 799.309 428.827 797.042 429.12C794.775 429.44 792.749 429.733 790.962 430L790.522 427ZM790.842 407.88C792.362 407.827 794.122 407.76 796.122 407.68C798.122 407.6 800.255 407.507 802.522 407.4C804.789 407.293 807.055 407.173 809.322 407.04L809.282 409.68C807.095 409.813 804.909 409.947 802.722 410.08C800.535 410.213 798.455 410.333 796.482 410.44C794.509 410.547 792.709 410.64 791.082 410.72L790.842 407.88ZM803.602 403.04L805.882 401.8C806.682 402.707 807.495 403.707 808.322 404.8C809.149 405.893 809.909 406.96 810.602 408C811.322 409.04 811.869 409.96 812.242 410.76L809.882 412.2C809.509 411.373 808.975 410.427 808.282 409.36C807.615 408.293 806.869 407.213 806.042 406.12C805.242 405 804.429 403.973 803.602 403.04ZM797.842 398.48L801.122 399.12C800.669 400.293 800.175 401.533 799.642 402.84C799.109 404.12 798.575 405.373 798.042 406.6C797.509 407.8 796.989 408.867 796.482 409.8L793.882 409.12C794.362 408.187 794.842 407.093 795.322 405.84C795.829 404.56 796.309 403.28 796.762 402C797.215 400.693 797.575 399.52 797.842 398.48ZM813.202 399.2H816.122V421.4H813.202V399.2ZM822.682 395.52H825.602V427.16C825.602 428.2 825.469 428.973 825.202 429.48C824.935 430.013 824.482 430.4 823.842 430.64C823.175 430.88 822.242 431.027 821.042 431.08C819.869 431.16 818.469 431.2 816.842 431.2C816.762 430.8 816.615 430.293 816.402 429.68C816.215 429.067 816.002 428.533 815.762 428.08C817.122 428.107 818.362 428.12 819.482 428.12C820.602 428.12 821.362 428.12 821.762 428.12C822.135 428.093 822.375 428.013 822.482 427.88C822.615 427.747 822.682 427.507 822.682 427.16V395.52ZM845.642 408.88L849.162 409.8C848.522 411.293 847.829 412.867 847.082 414.52C846.362 416.147 845.615 417.787 844.842 419.44C844.069 421.067 843.282 422.627 842.482 424.12C841.682 425.587 840.922 426.933 840.202 428.16L837.402 427.24C838.122 426.013 838.869 424.64 839.642 423.12C840.415 421.6 841.162 420.013 841.882 418.36C842.629 416.707 843.322 415.067 843.962 413.44C844.602 411.813 845.162 410.293 845.642 408.88ZM832.522 426.32C834.335 426.267 836.389 426.2 838.682 426.12C841.002 426.04 843.455 425.947 846.042 425.84C848.655 425.707 851.322 425.587 854.042 425.48C856.789 425.347 859.509 425.227 862.202 425.12L862.122 427.96C858.629 428.147 855.109 428.333 851.562 428.52C848.015 428.733 844.642 428.92 841.442 429.08C838.269 429.24 835.429 429.373 832.922 429.48L832.522 426.32ZM853.322 417.68L856.162 416.32C857.389 417.733 858.629 419.253 859.882 420.88C861.135 422.48 862.295 424.053 863.362 425.6C864.429 427.147 865.282 428.533 865.922 429.76L862.922 431.4C862.282 430.147 861.429 428.733 860.362 427.16C859.322 425.56 858.175 423.933 856.922 422.28C855.695 420.6 854.495 419.067 853.322 417.68ZM841.602 395.56L844.922 396.48C844.042 398.64 843.002 400.733 841.802 402.76C840.602 404.787 839.322 406.68 837.962 408.44C836.602 410.173 835.202 411.693 833.762 413C833.575 412.787 833.309 412.547 832.962 412.28C832.615 412.013 832.255 411.747 831.882 411.48C831.509 411.213 831.189 411 830.922 410.84C832.389 409.64 833.775 408.24 835.082 406.64C836.415 405.013 837.642 403.253 838.762 401.36C839.882 399.467 840.829 397.533 841.602 395.56ZM855.882 395.56C856.549 396.867 857.335 398.213 858.242 399.6C859.175 400.987 860.162 402.347 861.202 403.68C862.242 405.013 863.282 406.267 864.322 407.44C865.362 408.613 866.349 409.613 867.282 410.44C867.015 410.653 866.722 410.907 866.402 411.2C866.082 411.493 865.775 411.8 865.482 412.12C865.189 412.44 864.935 412.733 864.722 413C863.815 412.04 862.829 410.92 861.762 409.64C860.722 408.36 859.669 407 858.602 405.56C857.562 404.12 856.549 402.653 855.562 401.16C854.575 399.64 853.709 398.173 852.962 396.76L855.882 395.56ZM883.322 399.28L886.082 399.36C885.895 403.467 885.575 407.253 885.122 410.72C884.669 414.16 883.962 417.28 883.002 420.08C882.069 422.853 880.762 425.307 879.082 427.44C878.949 427.28 878.735 427.08 878.442 426.84C878.149 426.6 877.842 426.373 877.522 426.16C877.229 425.947 876.975 425.773 876.762 425.64C878.415 423.747 879.682 421.48 880.562 418.84C881.469 416.2 882.122 413.227 882.522 409.92C882.949 406.613 883.215 403.067 883.322 399.28ZM893.962 399.28L896.722 399.36C896.562 403.52 896.269 407.347 895.842 410.84C895.415 414.307 894.722 417.44 893.762 420.24C892.802 423.013 891.455 425.44 889.722 427.52C889.589 427.36 889.375 427.173 889.082 426.96C888.789 426.72 888.482 426.493 888.162 426.28C887.869 426.04 887.602 425.853 887.362 425.72C889.095 423.827 890.415 421.573 891.322 418.96C892.229 416.32 892.869 413.347 893.242 410.04C893.615 406.733 893.855 403.147 893.962 399.28ZM876.882 407.56L878.522 405.76C879.882 407.013 881.242 408.373 882.602 409.84C883.989 411.307 885.255 412.76 886.402 414.2C887.549 415.613 888.469 416.893 889.162 418.04L887.362 420.16C886.669 418.987 885.749 417.667 884.602 416.2C883.455 414.707 882.202 413.213 880.842 411.72C879.509 410.2 878.189 408.813 876.882 407.56ZM887.802 407.12L889.482 405.32C890.549 406.307 891.629 407.373 892.722 408.52C893.815 409.64 894.869 410.787 895.882 411.96C896.895 413.107 897.815 414.227 898.642 415.32C899.469 416.387 900.162 417.36 900.722 418.24L898.882 420.4C898.322 419.493 897.629 418.48 896.802 417.36C895.975 416.24 895.055 415.08 894.042 413.88C893.055 412.68 892.029 411.507 890.962 410.36C889.895 409.187 888.842 408.107 887.802 407.12ZM872.442 396.8H904.282V399.68H875.362V431.12H872.442V396.8ZM902.682 396.8H905.602V427.32C905.602 428.227 905.469 428.92 905.202 429.4C904.962 429.907 904.549 430.293 903.962 430.56C903.349 430.8 902.522 430.947 901.482 431C900.442 431.08 899.069 431.107 897.362 431.08C897.309 430.84 897.215 430.533 897.082 430.16C896.975 429.813 896.855 429.467 896.722 429.12C896.589 428.773 896.455 428.467 896.322 428.2C897.549 428.227 898.669 428.24 899.682 428.24C900.695 428.24 901.375 428.24 901.722 428.24C902.069 428.213 902.309 428.133 902.442 428C902.602 427.893 902.682 427.667 902.682 427.32V396.8Z" fill="#666666"/>
<path opacity="0.6" d="M0 630C100 630 200 550 300 520C400 490 500 450 600 430C700 410 800 420 900 450C1000 480 1100 500 1200 490V630H0Z" fill="url(#paint4_linear_2_14)"/>
<path opacity="0.5" d="M0 630C150 630 250 570 350 540C450 510 550 480 650 470C750 460 850 470 950 490C1050 510 1150 520 1200 515V630H0Z" fill="url(#paint5_linear_2_14)"/>
<path opacity="0.4" d="M0 630C200 630 300 590 400 570C500 550 600 530 700 520C800 510 900 520 1000 540C1100 560 1150 565 1200 563V630H0Z" fill="url(#paint6_linear_2_14)"/>
<g clip-path="url(#clip1_2_14)">
<path d="M114.447 153.621C115.799 153.621 116.894 152.528 116.894 151.18C116.894 149.831 115.799 148.738 114.447 148.738C113.096 148.738 112 149.831 112 151.18C112 152.528 113.096 153.621 114.447 153.621Z" fill="#1F1E1E"/>
<path d="M121.791 153.621C123.142 153.621 124.238 152.528 124.238 151.18C124.238 149.831 123.142 148.738 121.791 148.738C120.439 148.738 119.344 149.831 119.344 151.18C119.344 152.528 120.439 153.621 121.791 153.621Z" fill="#1F1E1E"/>
<path opacity="0.2" d="M114.447 160.949C115.799 160.949 116.894 159.856 116.894 158.508C116.894 157.159 115.799 156.066 114.447 156.066C113.096 156.066 112 157.159 112 158.508C112 159.856 113.096 160.949 114.447 160.949Z" fill="#1F1E1E"/>
<path opacity="0.2" d="M129.127 160.949C130.478 160.949 131.574 159.856 131.574 158.508C131.574 157.159 130.478 156.066 129.127 156.066C127.775 156.066 126.68 157.159 126.68 158.508C126.68 159.856 127.775 160.949 129.127 160.949Z" fill="#1F1E1E"/>
<path d="M121.791 160.949C123.142 160.949 124.238 159.856 124.238 158.508C124.238 157.159 123.142 156.066 121.791 156.066C120.439 156.066 119.344 157.159 119.344 158.508C119.344 159.856 120.439 160.949 121.791 160.949Z" fill="#1F1E1E"/>
<path d="M129.127 153.621C130.478 153.621 131.574 152.528 131.574 151.18C131.574 149.831 130.478 148.738 129.127 148.738C127.775 148.738 126.68 149.831 126.68 151.18C126.68 152.528 127.775 153.621 129.127 153.621Z" fill="#1F1E1E"/>
<path opacity="0.2" d="M114.447 146.301C115.799 146.301 116.894 145.208 116.894 143.859C116.894 142.511 115.799 141.418 114.447 141.418C113.096 141.418 112 142.511 112 143.859C112 145.208 113.096 146.301 114.447 146.301Z" fill="#1F1E1E"/>
<path opacity="0.2" d="M121.791 146.301C123.142 146.301 124.238 145.208 124.238 143.859C124.238 142.511 123.142 141.418 121.791 141.418C120.439 141.418 119.344 142.511 119.344 143.859C119.344 145.208 120.439 146.301 121.791 146.301Z" fill="#1F1E1E"/>
<path opacity="0.2" d="M129.127 146.301C130.478 146.301 131.574 145.208 131.574 143.859C131.574 142.511 130.478 141.418 129.127 141.418C127.775 141.418 126.68 142.511 126.68 143.859C126.68 145.208 127.775 146.301 129.127 146.301Z" fill="#1F1E1E"/>
<path d="M146.398 159.458C147.091 159.458 147.654 159.393 148.325 159.264V156.758C147.913 156.91 147.459 156.953 147.026 156.953C145.965 156.953 145.575 156.434 145.575 155.441V150.344H148.325V147.839H145.575V144.124H142.544V147.839H140.574V150.344H142.544V155.722C142.544 158.097 143.8 159.458 146.398 159.458Z" fill="#1F1E1E"/>
<path d="M153.275 159.458C154.898 159.458 155.981 158.918 156.522 158.076C156.565 158.443 156.695 158.94 156.869 159.242H159.596C159.445 158.724 159.337 157.903 159.337 157.363V151.446C159.337 149.005 157.583 147.623 154.617 147.623C152.365 147.623 150.612 148.465 149.638 149.696L151.37 151.402C152.149 150.538 153.145 150.085 154.357 150.085C155.829 150.085 156.479 150.582 156.479 151.316C156.479 151.942 156.046 152.374 153.708 152.374C151.456 152.374 149.183 153.303 149.183 155.895C149.183 158.292 150.915 159.458 153.275 159.458ZM153.881 157.169C152.712 157.169 152.171 156.672 152.171 155.787C152.171 155.009 152.82 154.491 153.903 154.491C155.634 154.491 156.111 154.383 156.479 154.016V154.944C156.479 156.175 155.44 157.169 153.881 157.169Z" fill="#1F1E1E"/>
<path d="M161.307 146.392H164.468V143.562H161.307V146.392ZM161.372 159.242H164.403V147.839H161.372V159.242Z" fill="#1F1E1E"/>
<path d="M166.611 159.242H169.642V143.908H166.611V159.242Z" fill="#1F1E1E"/>
<path d="M175.942 159.458C179.276 159.458 180.986 157.709 180.986 155.873C180.986 154.21 180.142 152.979 177.37 152.482C175.422 152.137 174.21 151.705 174.21 151.035C174.21 150.452 174.902 150.042 176.071 150.042C177.111 150.042 177.977 150.387 178.626 151.143L180.553 149.523C179.579 148.314 177.977 147.623 176.071 147.623C173.149 147.623 171.33 149.178 171.33 151.078C171.33 153.152 173.235 154.08 175.292 154.448C177.002 154.75 177.955 155.074 177.955 155.808C177.955 156.434 177.284 156.953 176.007 156.953C174.751 156.953 173.777 156.37 173.322 155.506L170.767 156.715C171.395 158.27 173.538 159.458 175.942 159.458Z" fill="#1F1E1E"/>
<path d="M187.762 159.458C189.927 159.458 191.486 158.594 192.655 156.65L190.23 155.419C189.776 156.327 189.04 156.953 187.762 156.953C185.835 156.953 184.796 155.398 184.796 153.519C184.796 151.64 185.9 150.128 187.762 150.128C188.931 150.128 189.711 150.754 190.165 151.705L192.612 150.409C191.789 148.616 190.165 147.623 187.762 147.623C183.8 147.623 181.765 150.517 181.765 153.519C181.765 156.78 184.233 159.458 187.762 159.458Z" fill="#1F1E1E"/>
<path d="M197.483 159.458C199.107 159.458 200.189 158.918 200.73 158.076C200.774 158.443 200.904 158.94 201.077 159.242H203.805C203.653 158.724 203.545 157.903 203.545 157.363V151.446C203.545 149.005 201.791 147.623 198.825 147.623C196.574 147.623 194.82 148.465 193.846 149.696L195.578 151.402C196.357 150.538 197.353 150.085 198.565 150.085C200.038 150.085 200.687 150.582 200.687 151.316C200.687 151.942 200.254 152.374 197.916 152.374C195.664 152.374 193.391 153.303 193.391 155.895C193.391 158.292 195.123 159.458 197.483 159.458ZM198.089 157.169C196.92 157.169 196.379 156.672 196.379 155.787C196.379 155.009 197.028 154.491 198.111 154.491C199.843 154.491 200.319 154.383 200.687 154.016V154.944C200.687 156.175 199.648 157.169 198.089 157.169Z" fill="#1F1E1E"/>
<path d="M205.326 159.242H208.357V143.908H205.326V159.242Z" fill="#1F1E1E"/>
<path d="M215.631 159.458C217.861 159.458 219.658 158.573 220.654 156.996L218.359 155.527C217.753 156.478 216.952 156.996 215.631 156.996C214.138 156.996 213.055 156.175 212.774 154.577H221.39V153.519C221.39 150.517 219.55 147.623 215.61 147.623C211.864 147.623 209.829 150.538 209.829 153.54C209.829 157.817 213.055 159.458 215.631 159.458ZM212.882 152.201C213.358 150.754 214.354 150.085 215.675 150.085C217.168 150.085 218.078 150.97 218.381 152.201H212.882Z" fill="#1F1E1E"/>
</g>
</g>
<defs>
<linearGradient id="paint0_linear_2_14" x1="0" y1="0" x2="51856.9" y2="98775.1" gradientUnits="userSpaceOnUse">
<stop stop-color="#F3F0FF"/>
<stop offset="0.35" stop-color="#E5DBFF"/>
<stop offset="0.65" stop-color="#D0BFFF"/>
<stop offset="1" stop-color="#BAA2FF"/>
</linearGradient>
<radialGradient id="paint1_radial_2_14" cx="0" cy="0" r="1" gradientUnits="userSpaceOnUse" gradientTransform="translate(24000 12600) scale(60000 31500)">
<stop stop-color="#F3F0FF" stop-opacity="0.7"/>
<stop offset="1" stop-color="#F3F0FF" stop-opacity="0"/>
</radialGradient>
<radialGradient id="paint2_radial_2_14" cx="0" cy="0" r="1" gradientUnits="userSpaceOnUse" gradientTransform="translate(96000 50400) scale(72000 37800)">
<stop stop-color="#B197FC" stop-opacity="0.5"/>
<stop offset="1" stop-color="#B197FC" stop-opacity="0"/>
</radialGradient>
<radialGradient id="paint3_radial_2_14" cx="0" cy="0" r="1" gradientUnits="userSpaceOnUse" gradientTransform="translate(60000 25200) scale(84000 44100)">
<stop stop-color="#E5DBFF" stop-opacity="0.4"/>
<stop offset="1" stop-color="#E5DBFF" stop-opacity="0"/>
</radialGradient>
<linearGradient id="paint4_linear_2_14" x1="0" y1="419.595" x2="120000" y2="419.595" gradientUnits="userSpaceOnUse">
<stop stop-color="#B197FC" stop-opacity="0.45"/>
<stop offset="0.5" stop-color="#9775FA" stop-opacity="0.5"/>
<stop offset="1" stop-color="#845EF7" stop-opacity="0.45"/>
</linearGradient>
<linearGradient id="paint5_linear_2_14" x1="0" y1="466.077" x2="120000" y2="466.077" gradientUnits="userSpaceOnUse">
<stop stop-color="#9775FA" stop-opacity="0.4"/>
<stop offset="0.5" stop-color="#845EF7" stop-opacity="0.45"/>
<stop offset="1" stop-color="#7950F2" stop-opacity="0.4"/>
</linearGradient>
<linearGradient id="paint6_linear_2_14" x1="0" y1="516.077" x2="120000" y2="516.077" gradientUnits="userSpaceOnUse">
<stop stop-color="#845EF7" stop-opacity="0.3"/>
<stop offset="0.5" stop-color="#7950F2" stop-opacity="0.35"/>
<stop offset="1" stop-color="#7048E8" stop-opacity="0.3"/>
</linearGradient>
<clipPath id="clip0_2_14">
<rect width="1200" height="630" fill="white"/>
</clipPath>
<clipPath id="clip1_2_14">
<rect width="110" height="20" fill="white" transform="translate(112 141)"/>
</clipPath>
</defs>
</svg>
