<?xml version="1.0" encoding="UTF-8"?>
<svg width="1200" height="630" viewBox="0 0 1200 630" xmlns="http://www.w3.org/2000/svg">
    <defs>
        <!-- 背景渐变 - 主渐变 -->
        <linearGradient id="bgGradient" x1="0%" y1="0%" x2="100%" y2="100%">
            <stop offset="0%" style="stop-color:#f3f0ff;stop-opacity:1" />
            <stop offset="35%" style="stop-color:#e5dbff;stop-opacity:1" />
            <stop offset="65%" style="stop-color:#d0bfff;stop-opacity:1" />
            <stop offset="100%" style="stop-color:#baa2ff;stop-opacity:1" />
        </linearGradient>

        <!-- 背景渐变 - 左上角区域 -->
        <radialGradient id="topLeftGlow" cx="20%" cy="20%" r="50%" fx="20%" fy="20%">
            <stop offset="0%" style="stop-color:#f3f0ff;stop-opacity:0.7" />
            <stop offset="100%" style="stop-color:#f3f0ff;stop-opacity:0" />
        </radialGradient>

        <!-- 背景渐变 - 右下角区域 -->
        <radialGradient id="bottomRightGlow" cx="80%" cy="80%" r="60%" fx="80%" fy="80%">
            <stop offset="0%" style="stop-color:#b197fc;stop-opacity:0.5" />
            <stop offset="100%" style="stop-color:#b197fc;stop-opacity:0" />
        </radialGradient>

        <!-- 背景渐变 - 中间区域 -->
        <radialGradient id="centerGlow" cx="50%" cy="40%" r="70%" fx="50%" fy="40%">
            <stop offset="0%" style="stop-color:#e5dbff;stop-opacity:0.4" />
            <stop offset="100%" style="stop-color:#e5dbff;stop-opacity:0" />
        </radialGradient>
        
        <!-- 波浪渐变 -->
        <linearGradient id="waveGradient1" x1="0%" y1="0%" x2="100%" y2="0%">
            <stop offset="0%" style="stop-color:#b197fc;stop-opacity:0.45" />
            <stop offset="50%" style="stop-color:#9775fa;stop-opacity:0.5" />
            <stop offset="100%" style="stop-color:#845ef7;stop-opacity:0.45" />
        </linearGradient>

        <linearGradient id="waveGradient2" x1="0%" y1="0%" x2="100%" y2="0%">
            <stop offset="0%" style="stop-color:#9775fa;stop-opacity:0.4" />
            <stop offset="50%" style="stop-color:#845ef7;stop-opacity:0.45" />
            <stop offset="100%" style="stop-color:#7950f2;stop-opacity:0.4" />
        </linearGradient>

        <linearGradient id="waveGradient3" x1="0%" y1="0%" x2="100%" y2="0%">
            <stop offset="0%" style="stop-color:#845ef7;stop-opacity:0.3" />
            <stop offset="50%" style="stop-color:#7950f2;stop-opacity:0.35" />
            <stop offset="100%" style="stop-color:#7048e8;stop-opacity:0.3" />
        </linearGradient>
    </defs>

    <!-- 背景层 -->
    <rect width="100%" height="100%" fill="url(#bgGradient)"/>
    <rect width="100%" height="100%" fill="url(#topLeftGlow)"/>
    <rect width="100%" height="100%" fill="url(#bottomRightGlow)"/>
    <rect width="100%" height="100%" fill="url(#centerGlow)"/>

    <!-- 波浪形状 - 最底层 -->
    <path d="M 0,630 
             C 100,630 200,550 300,520
             C 400,490 500,450 600,430
             C 700,410 800,420 900,450
             C 1000,480 1100,500 1200,490
             L 1200,630 Z" 
          fill="url(#waveGradient1)"
          opacity="0.6"/>

    <!-- 波浪形状 - 中层 -->
    <path d="M 0,630
             C 150,630 250,570 350,540
             C 450,510 550,480 650,470
             C 750,460 850,470 950,490
             C 1050,510 1150,520 1200,515
             L 1200,630 Z" 
          fill="url(#waveGradient2)"
          opacity="0.5"/>

    <!-- 波浪形状 - 顶层 -->
    <path d="M 0,630
             C 200,630 300,590 400,570
             C 500,550 600,530 700,520
             C 800,510 900,520 1000,540
             C 1100,560 1150,565 1200,563
             L 1200,630 Z" 
          fill="url(#waveGradient3)"
          opacity="0.4"/>
</svg> 