<svg width="1600" height="960" viewBox="0 0 1600 960" fill="none" xmlns="http://www.w3.org/2000/svg">
<g clip-path="url(#clip0_115_4)">
<rect width="1600" height="960" fill="white"/>
<g filter="url(#filter0_f_115_4)">
<circle cx="135.5" cy="89.5" r="299.5" fill="#CEF3D1"/>
</g>
<g filter="url(#filter1_f_115_4)">
<circle cx="1367.5" cy="904.5" r="421.5" fill="#99E1E8"/>
</g>
<g filter="url(#filter2_d_115_4)">
<path d="M516.526 542.579L471.364 551.03L473.845 528.038L483.921 526.174L482.326 508.527H509.701L510.86 520.954L518.146 519.463L524.157 504.301H478.407L480.567 484.292H552.817L550.375 506.911L543.921 526.174L550.845 528.038L548.364 551.03L516.526 542.579ZM559.106 461.922L552.415 481.061H524.04L526.964 453.968H513.464L508.165 481.061H479.54L488.521 436.072H553.646L550.856 461.922H559.106ZM474.747 469.876L469.355 519.836H475.48L466.69 549.166H441.565L447.748 491.873H440.873L443.247 469.876H474.747ZM444.637 462.792L447.628 435.078L479.859 441.043L476.841 469.006L444.637 462.792ZM656.587 496.844H633.837L636.828 469.13H659.578L663.24 435.202H692.115L688.453 469.13H710.953L707.962 496.844H685.462L679.775 549.538H650.9L656.587 496.844ZM630.533 471.864L625.101 522.197H635.226L627.163 549.414H595.288L600.385 502.188H590.885L594.158 471.864H630.533ZM595.833 463.289L598.865 435.202L636.739 442.162L633.68 470.497L595.833 463.289ZM797.967 548.917L806.9 466.148L800.174 483.298H781.549L774.467 548.917H744.092L750.396 490.506H739.271L761.803 433.462H792.678L773.982 480.44H779.857L798.553 433.462H819.678L816.734 441.043H866.359L863.677 465.899H834.427L833.367 475.717H858.742L856.18 499.454H830.805L829.799 508.775H855.174L852.585 532.761H827.21L825.467 548.917H797.967ZM1007.27 436.072L1001.69 487.772H901.816L907.396 436.072H1007.27ZM934.475 467.763H973.6L974.66 457.945H935.535L934.475 467.763ZM949.931 492.495L943.761 549.663H890.136L896.306 492.495H949.931ZM915.341 526.92H923.591L925.147 512.503H916.897L915.341 526.92ZM1008.68 492.495L1002.51 549.663H948.886L955.056 492.495H1008.68ZM974.091 526.92H982.341L983.897 512.503H975.647L974.091 526.92ZM1109.27 456.951L1109.63 453.596H1087.13L1088.5 440.919H1109.62L1108.67 434.705H1143.79L1144.75 440.919H1167.12L1165.75 453.596H1144.13L1143.77 456.951H1165.39L1164.02 469.627H1142.4L1142.02 473.107H1163.65L1162.28 485.784H1140.66L1140.29 489.139H1161.92L1160.56 501.691H1081.94L1083.29 489.139H1105.79L1106.16 485.784H1083.66L1085.02 473.107H1107.52L1107.9 469.627H1085.4L1086.77 456.951H1109.27ZM1117.62 542.827L1116.95 549.041H1079.83L1080.5 542.827L1041 549.787L1043.13 530.027L1082.47 524.558L1082.56 523.688H1043.69L1045.38 508.029H1084.25L1084.71 503.804H1121.84L1121.38 508.029H1160.13L1158.44 523.688H1119.69L1119.6 524.558L1157.76 530.027L1155.62 549.787L1117.62 542.827ZM1078.49 464.159H1082.24L1078.19 501.691H1047.69L1050.91 471.864H1044.91L1056.73 435.327H1088.1L1078.49 464.159Z" fill="#333333"/>
</g>
<mask id="path-4-outside-1_115_4" maskUnits="userSpaceOnUse" x="336" y="352" width="928" height="129" fill="black">
<rect fill="white" x="336" y="352" width="928" height="129"/>
<path d="M427.912 423.2L419.176 444.884H375.184V479.048H337.276V354.404H427.912V423.2ZM375.184 411.5H392.188V388.256H375.184V411.5ZM448.623 479.048V384.2L462.195 354.248H538.323V451.124L526.935 479.048H448.623ZM484.347 444.884H502.443V389.972H484.347V444.884ZM559.565 479.048V354.404H648.485V423.044L635.693 439.736L655.037 479.048H616.193L596.381 441.296V479.048H559.565ZM596.381 421.64H612.293V387.008H596.381V421.64ZM692.292 479.048V392.468H667.176V354.404H757.032V392.468H733.788V479.048H692.292ZM773.692 383.576L786.952 354.404H857.308V391.376H813.316V405.416H853.252V439.112H813.316V479.204H773.692V383.576ZM875.899 479.048V384.2L889.471 354.248H965.599V451.124L954.211 479.048H875.899ZM911.623 444.884H929.719V389.972H911.623V444.884ZM984.813 353.936H1026.62V441.764H1064.68L1055.48 479.204H984.813V353.936ZM1096.86 442.544V391.22H1080.02V353.936H1152.4V391.22H1136.64V442.544H1152.4V479.204H1080.02V442.544H1096.86ZM1172.63 479.048V384.2L1186.2 354.248H1262.33V451.124L1250.94 479.048H1172.63ZM1208.35 444.884H1226.45V389.972H1208.35V444.884Z"/>
</mask>
<path d="M427.912 423.2L428.84 423.574L428.912 423.394V423.2H427.912ZM419.176 444.884V445.884H419.851L420.104 445.258L419.176 444.884ZM375.184 444.884V443.884H374.184V444.884H375.184ZM375.184 479.048V480.048H376.184V479.048H375.184ZM337.276 479.048H336.276V480.048H337.276V479.048ZM337.276 354.404V353.404H336.276V354.404H337.276ZM427.912 354.404H428.912V353.404H427.912V354.404ZM375.184 411.5H374.184V412.5H375.184V411.5ZM392.188 411.5V412.5H393.188V411.5H392.188ZM392.188 388.256H393.188V387.256H392.188V388.256ZM375.184 388.256V387.256H374.184V388.256H375.184ZM426.984 422.826L418.248 444.51L420.104 445.258L428.84 423.574L426.984 422.826ZM419.176 443.884H375.184V445.884H419.176V443.884ZM374.184 444.884V479.048H376.184V444.884H374.184ZM375.184 478.048H337.276V480.048H375.184V478.048ZM338.276 479.048V354.404H336.276V479.048H338.276ZM337.276 355.404H427.912V353.404H337.276V355.404ZM426.912 354.404V423.2H428.912V354.404H426.912ZM375.184 412.5H392.188V410.5H375.184V412.5ZM393.188 411.5V388.256H391.188V411.5H393.188ZM392.188 387.256H375.184V389.256H392.188V387.256ZM374.184 388.256V411.5H376.184V388.256H374.184ZM448.623 479.048H447.623V480.048H448.623V479.048ZM448.623 384.2L447.713 383.787L447.623 383.984V384.2H448.623ZM462.195 354.248V353.248H461.551L461.285 353.835L462.195 354.248ZM538.323 354.248H539.323V353.248H538.323V354.248ZM538.323 451.124L539.249 451.502L539.323 451.32V451.124H538.323ZM526.935 479.048V480.048H527.608L527.861 479.426L526.935 479.048ZM484.347 444.884H483.347V445.884H484.347V444.884ZM502.443 444.884V445.884H503.443V444.884H502.443ZM502.443 389.972H503.443V388.972H502.443V389.972ZM484.347 389.972V388.972H483.347V389.972H484.347ZM449.623 479.048V384.2H447.623V479.048H449.623ZM449.534 384.613L463.106 354.661L461.285 353.835L447.713 383.787L449.534 384.613ZM462.195 355.248H538.323V353.248H462.195V355.248ZM537.323 354.248V451.124H539.323V354.248H537.323ZM537.397 450.746L526.009 478.67L527.861 479.426L539.249 451.502L537.397 450.746ZM526.935 478.048H448.623V480.048H526.935V478.048ZM484.347 445.884H502.443V443.884H484.347V445.884ZM503.443 444.884V389.972H501.443V444.884H503.443ZM502.443 388.972H484.347V390.972H502.443V388.972ZM483.347 389.972V444.884H485.347V389.972H483.347ZM559.565 479.048H558.565V480.048H559.565V479.048ZM559.565 354.404V353.404H558.565V354.404H559.565ZM648.485 354.404H649.485V353.404H648.485V354.404ZM648.485 423.044L649.279 423.652L649.485 423.383V423.044H648.485ZM635.693 439.736L634.899 439.128L634.522 439.62L634.796 440.178L635.693 439.736ZM655.037 479.048V480.048H656.644L655.934 478.606L655.037 479.048ZM616.193 479.048L615.308 479.513L615.588 480.048H616.193V479.048ZM596.381 441.296L597.267 440.831L595.381 441.296H596.381ZM596.381 479.048V480.048H597.381V479.048H596.381ZM596.381 421.64H595.381V422.64H596.381V421.64ZM612.293 421.64V422.64H613.293V421.64H612.293ZM612.293 387.008H613.293V386.008H612.293V387.008ZM596.381 387.008V386.008H595.381V387.008H596.381ZM560.565 479.048V354.404H558.565V479.048H560.565ZM559.565 355.404H648.485V353.404H559.565V355.404ZM647.485 354.404V423.044H649.485V354.404H647.485ZM647.691 422.436L634.899 439.128L636.487 440.344L649.279 423.652L647.691 422.436ZM634.796 440.178L654.14 479.49L655.934 478.606L636.59 439.294L634.796 440.178ZM655.037 478.048H616.193V480.048H655.037V478.048ZM617.078 478.583L597.267 440.831L595.496 441.761L615.308 479.513L617.078 478.583ZM595.381 441.296V479.048H597.381V441.296H595.381ZM596.381 478.048H559.565V480.048H596.381V478.048ZM596.381 422.64H612.293V420.64H596.381V422.64ZM613.293 421.64V387.008H611.293V421.64H613.293ZM612.293 386.008H596.381V388.008H612.293V386.008ZM595.381 387.008V421.64H597.381V387.008H595.381ZM692.292 479.048H691.292V480.048H692.292V479.048ZM692.292 392.468H693.292V391.468H692.292V392.468ZM667.176 392.468H666.176V393.468H667.176V392.468ZM667.176 354.404V353.404H666.176V354.404H667.176ZM757.032 354.404H758.032V353.404H757.032V354.404ZM757.032 392.468V393.468H758.032V392.468H757.032ZM733.788 392.468V391.468H732.788V392.468H733.788ZM733.788 479.048V480.048H734.788V479.048H733.788ZM693.292 479.048V392.468H691.292V479.048H693.292ZM692.292 391.468H667.176V393.468H692.292V391.468ZM668.176 392.468V354.404H666.176V392.468H668.176ZM667.176 355.404H757.032V353.404H667.176V355.404ZM756.032 354.404V392.468H758.032V354.404H756.032ZM757.032 391.468H733.788V393.468H757.032V391.468ZM732.788 392.468V479.048H734.788V392.468H732.788ZM733.788 478.048H692.292V480.048H733.788V478.048ZM773.692 383.576L772.782 383.162L772.692 383.359V383.576H773.692ZM786.952 354.404V353.404H786.308L786.042 353.99L786.952 354.404ZM857.308 354.404H858.308V353.404H857.308V354.404ZM857.308 391.376V392.376H858.308V391.376H857.308ZM813.316 391.376V390.376H812.316V391.376H813.316ZM813.316 405.416H812.316V406.416H813.316V405.416ZM853.252 405.416H854.252V404.416H853.252V405.416ZM853.252 439.112V440.112H854.252V439.112H853.252ZM813.316 439.112V438.112H812.316V439.112H813.316ZM813.316 479.204V480.204H814.316V479.204H813.316ZM773.692 479.204H772.692V480.204H773.692V479.204ZM774.602 383.99L787.862 354.818L786.042 353.99L772.782 383.162L774.602 383.99ZM786.952 355.404H857.308V353.404H786.952V355.404ZM856.308 354.404V391.376H858.308V354.404H856.308ZM857.308 390.376H813.316V392.376H857.308V390.376ZM812.316 391.376V405.416H814.316V391.376H812.316ZM813.316 406.416H853.252V404.416H813.316V406.416ZM852.252 405.416V439.112H854.252V405.416H852.252ZM853.252 438.112H813.316V440.112H853.252V438.112ZM812.316 439.112V479.204H814.316V439.112H812.316ZM813.316 478.204H773.692V480.204H813.316V478.204ZM774.692 479.204V383.576H772.692V479.204H774.692ZM875.899 479.048H874.899V480.048H875.899V479.048ZM875.899 384.2L874.988 383.787L874.899 383.984V384.2H875.899ZM889.471 354.248V353.248H888.826L888.56 353.835L889.471 354.248ZM965.599 354.248H966.599V353.248H965.599V354.248ZM965.599 451.124L966.525 451.502L966.599 451.32V451.124H965.599ZM954.211 479.048V480.048H954.883L955.137 479.426L954.211 479.048ZM911.623 444.884H910.623V445.884H911.623V444.884ZM929.719 444.884V445.884H930.719V444.884H929.719ZM929.719 389.972H930.719V388.972H929.719V389.972ZM911.623 389.972V388.972H910.623V389.972H911.623ZM876.899 479.048V384.2H874.899V479.048H876.899ZM876.81 384.613L890.382 354.661L888.56 353.835L874.988 383.787L876.81 384.613ZM889.471 355.248H965.599V353.248H889.471V355.248ZM964.599 354.248V451.124H966.599V354.248H964.599ZM964.673 450.746L953.285 478.67L955.137 479.426L966.525 451.502L964.673 450.746ZM954.211 478.048H875.899V480.048H954.211V478.048ZM911.623 445.884H929.719V443.884H911.623V445.884ZM930.719 444.884V389.972H928.719V444.884H930.719ZM929.719 388.972H911.623V390.972H929.719V388.972ZM910.623 389.972V444.884H912.623V389.972H910.623ZM984.812 353.936V352.936H983.812V353.936H984.812ZM1026.62 353.936H1027.62V352.936H1026.62V353.936ZM1026.62 441.764H1025.62V442.764H1026.62V441.764ZM1064.68 441.764L1065.66 442.003L1065.96 440.764H1064.68V441.764ZM1055.48 479.204V480.204H1056.26L1056.45 479.443L1055.48 479.204ZM984.812 479.204H983.812V480.204H984.812V479.204ZM984.812 354.936H1026.62V352.936H984.812V354.936ZM1025.62 353.936V441.764H1027.62V353.936H1025.62ZM1026.62 442.764H1064.68V440.764H1026.62V442.764ZM1063.71 441.525L1054.51 478.965L1056.45 479.443L1065.66 442.003L1063.71 441.525ZM1055.48 478.204H984.812V480.204H1055.48V478.204ZM985.812 479.204V353.936H983.812V479.204H985.812ZM1096.86 442.544V443.544H1097.86V442.544H1096.86ZM1096.86 391.22H1097.86V390.22H1096.86V391.22ZM1080.02 391.22H1079.02V392.22H1080.02V391.22ZM1080.02 353.936V352.936H1079.02V353.936H1080.02ZM1152.4 353.936H1153.4V352.936H1152.4V353.936ZM1152.4 391.22V392.22H1153.4V391.22H1152.4ZM1136.64 391.22V390.22H1135.64V391.22H1136.64ZM1136.64 442.544H1135.64V443.544H1136.64V442.544ZM1152.4 442.544H1153.4V441.544H1152.4V442.544ZM1152.4 479.204V480.204H1153.4V479.204H1152.4ZM1080.02 479.204H1079.02V480.204H1080.02V479.204ZM1080.02 442.544V441.544H1079.02V442.544H1080.02ZM1097.86 442.544V391.22H1095.86V442.544H1097.86ZM1096.86 390.22H1080.02V392.22H1096.86V390.22ZM1081.02 391.22V353.936H1079.02V391.22H1081.02ZM1080.02 354.936H1152.4V352.936H1080.02V354.936ZM1151.4 353.936V391.22H1153.4V353.936H1151.4ZM1152.4 390.22H1136.64V392.22H1152.4V390.22ZM1135.64 391.22V442.544H1137.64V391.22H1135.64ZM1136.64 443.544H1152.4V441.544H1136.64V443.544ZM1151.4 442.544V479.204H1153.4V442.544H1151.4ZM1152.4 478.204H1080.02V480.204H1152.4V478.204ZM1081.02 479.204V442.544H1079.02V479.204H1081.02ZM1080.02 443.544H1096.86V441.544H1080.02V443.544ZM1172.63 479.048H1171.63V480.048H1172.63V479.048ZM1172.63 384.2L1171.72 383.787L1171.63 383.984V384.2H1172.63ZM1186.2 354.248V353.248H1185.56L1185.29 353.835L1186.2 354.248ZM1262.33 354.248H1263.33V353.248H1262.33V354.248ZM1262.33 451.124L1263.25 451.502L1263.33 451.32V451.124H1262.33ZM1250.94 479.048V480.048H1251.61L1251.87 479.426L1250.94 479.048ZM1208.35 444.884H1207.35V445.884H1208.35V444.884ZM1226.45 444.884V445.884H1227.45V444.884H1226.45ZM1226.45 389.972H1227.45V388.972H1226.45V389.972ZM1208.35 389.972V388.972H1207.35V389.972H1208.35ZM1173.63 479.048V384.2H1171.63V479.048H1173.63ZM1173.54 384.613L1187.11 354.661L1185.29 353.835L1171.72 383.787L1173.54 384.613ZM1186.2 355.248H1262.33V353.248H1186.2V355.248ZM1261.33 354.248V451.124H1263.33V354.248H1261.33ZM1261.4 450.746L1250.01 478.67L1251.87 479.426L1263.25 451.502L1261.4 450.746ZM1250.94 478.048H1172.63V480.048H1250.94V478.048ZM1208.35 445.884H1226.45V443.884H1208.35V445.884ZM1227.45 444.884V389.972H1225.45V444.884H1227.45ZM1226.45 388.972H1208.35V390.972H1226.45V388.972ZM1207.35 389.972V444.884H1209.35V389.972H1207.35Z" fill="url(#paint0_linear_115_4)" mask="url(#path-4-outside-1_115_4)"/>
<path d="M798.367 351.245C886.367 301.245 989.386 251.265 1036.87 301.245C1084.37 351.245 951.867 494.582 863.461 554.967C747 634.513 625.622 659.516 592.356 610.812C582.83 596.865 581.562 578.385 587.339 557.245" stroke="url(#paint1_linear_115_4)" stroke-width="2"/>
<path d="M956.5 440L957.389 443.6C959.703 452.976 967.024 460.297 976.4 462.611L980 463.5L976.4 464.389C967.024 466.703 959.703 474.024 957.389 483.4L956.5 487L955.611 483.4C953.297 474.024 945.976 466.703 936.6 464.389L933 463.5L936.6 462.611C945.976 460.297 953.297 452.976 955.611 443.6L956.5 440Z" fill="#99E1E7"/>
<path d="M604 383L604.592 385.397C606.906 394.773 614.227 402.094 623.603 404.408L626 405L623.603 405.592C614.227 407.906 606.906 415.227 604.592 424.603L604 427L603.408 424.603C601.094 415.227 593.773 407.906 584.397 405.592L582 405L584.397 404.408C593.773 402.094 601.094 394.773 603.408 385.397L604 383Z" fill="#D3F4D6"/>
<path d="M60.289 870.862V872.069H64.573V883H65.95V872.069H70.234V870.862H60.289ZM71.7494 870.862V883H80.6404V881.793H73.1434V877.339H79.9434V876.132H73.1434V872.069H80.3514V870.862H71.7494ZM82.5736 870.862V883H90.9716V881.793H83.9506V870.862H82.5736ZM98.0078 869.06L91.9728 884.7H93.1968L99.2148 869.06H98.0078ZM99.9288 870.862L103.414 883H104.961L107.732 872.885H107.783L110.537 883H112.084L115.569 870.862H114.005L111.336 881.045H111.268L108.514 870.862H107.001L104.23 881.045H104.162L101.493 870.862H99.9288ZM116.872 870.862V883H125.763V881.793H118.266V877.339H125.066V876.132H118.266V872.069H125.474V870.862H116.872ZM132.933 870.624C131.063 870.624 129.601 871.253 128.581 872.545C127.646 873.701 127.187 875.18 127.187 876.982C127.187 878.784 127.629 880.246 128.547 881.368C129.55 882.609 130.995 883.238 132.882 883.238C134.174 883.238 135.296 882.864 136.231 882.133C137.234 881.351 137.863 880.246 138.135 878.835H136.792C136.554 879.889 136.061 880.688 135.347 881.232C134.667 881.742 133.851 881.997 132.882 881.997C131.454 881.997 130.383 881.521 129.635 880.586C128.921 879.702 128.581 878.495 128.581 876.982C128.581 875.469 128.938 874.262 129.652 873.344C130.417 872.358 131.505 871.865 132.916 871.865C133.868 871.865 134.667 872.086 135.33 872.545C136.01 873.021 136.452 873.701 136.622 874.585H137.965C137.795 873.378 137.251 872.409 136.333 871.695C135.415 870.981 134.276 870.624 132.933 870.624ZM140.065 870.862V883H141.459V877.339H148.48V883H149.874V870.862H148.48V876.132H141.459V870.862H140.065ZM155.853 870.862L151.076 883H152.572L153.864 879.6H159.44L160.732 883H162.245L157.468 870.862H155.853ZM154.306 878.427L156.635 872.358H156.703L158.998 878.427H154.306ZM162.538 870.862V872.069H166.822V883H168.199V872.069H172.483V870.862H162.538ZM177.024 872.647C176.718 872.647 176.48 872.749 176.276 872.97C176.072 873.157 175.987 873.395 175.987 873.701C175.987 873.99 176.072 874.228 176.276 874.432C176.48 874.636 176.718 874.738 177.024 874.738C177.313 874.738 177.568 874.636 177.772 874.432C177.976 874.228 178.078 873.99 178.078 873.701C178.078 873.395 177.976 873.157 177.772 872.97C177.568 872.749 177.313 872.647 177.024 872.647ZM177.024 878.869C176.718 878.869 176.48 878.971 176.276 879.192C176.072 879.379 175.987 879.617 175.987 879.923C175.987 880.212 176.072 880.45 176.276 880.654C176.48 880.858 176.718 880.96 177.024 880.96C177.313 880.96 177.568 880.858 177.772 880.654C177.976 880.45 178.078 880.212 178.078 879.923C178.078 879.617 177.976 879.379 177.772 879.192C177.568 878.971 177.313 878.869 177.024 878.869Z" fill="#666666"/>
<path d="M1450.22 870.862V883H1454.44C1456.34 883 1457.81 882.439 1458.83 881.334C1459.8 880.28 1460.29 878.801 1460.29 876.931C1460.29 875.027 1459.83 873.548 1458.93 872.528C1457.94 871.406 1456.5 870.862 1454.58 870.862H1450.22ZM1451.62 872.069H1454.36C1455.95 872.069 1457.11 872.477 1457.86 873.31C1458.55 874.092 1458.91 875.299 1458.91 876.931C1458.91 878.512 1458.52 879.719 1457.77 880.535C1456.97 881.368 1455.78 881.793 1454.2 881.793H1451.62V872.069ZM1462.23 870.862V883H1471.12V881.793H1463.62V877.339H1470.42V876.132H1463.62V872.069H1470.83V870.862H1462.23ZM1477.13 870.624C1475.87 870.624 1474.84 870.896 1474.04 871.44C1473.14 872.018 1472.69 872.851 1472.69 873.905C1472.69 874.925 1473.15 875.707 1474.09 876.251C1474.48 876.455 1475.41 876.795 1476.88 877.237C1478.24 877.628 1479.1 877.917 1479.44 878.121C1480.24 878.546 1480.65 879.141 1480.65 879.906C1480.65 880.552 1480.34 881.062 1479.73 881.436C1479.12 881.81 1478.3 881.997 1477.32 881.997C1476.23 881.997 1475.41 881.759 1474.85 881.317C1474.24 880.824 1473.87 880.042 1473.75 878.988H1472.37C1472.47 880.484 1473 881.589 1473.95 882.32C1474.77 882.932 1475.89 883.238 1477.32 883.238C1478.76 883.238 1479.9 882.932 1480.75 882.337C1481.6 881.725 1482.03 880.875 1482.03 879.821C1482.03 878.716 1481.52 877.866 1480.51 877.254C1480 876.948 1478.95 876.557 1477.35 876.081C1476.18 875.741 1475.43 875.486 1475.13 875.316C1474.43 874.942 1474.09 874.449 1474.09 873.837C1474.09 873.14 1474.38 872.63 1474.96 872.29C1475.47 871.984 1476.16 871.848 1477.06 871.848C1478.05 871.848 1478.81 872.052 1479.36 872.494C1479.89 872.919 1480.23 873.565 1480.38 874.449H1481.76C1481.64 873.174 1481.18 872.205 1480.36 871.559C1479.58 870.93 1478.49 870.624 1477.13 870.624ZM1483.89 870.862V883H1485.27V870.862H1483.89ZM1493.01 870.624C1491.23 870.624 1489.82 871.253 1488.78 872.528C1487.79 873.701 1487.32 875.18 1487.32 876.982C1487.32 878.784 1487.81 880.263 1488.8 881.402C1489.85 882.626 1491.35 883.238 1493.27 883.238C1494.27 883.238 1495.2 883.102 1496.09 882.83C1496.92 882.558 1497.64 882.201 1498.21 881.725V876.761H1493.03V877.968H1496.84V881.062C1496.41 881.334 1495.9 881.572 1495.31 881.742C1494.69 881.912 1494.07 882.014 1493.4 882.014C1491.82 882.014 1490.63 881.538 1489.83 880.603C1489.08 879.719 1488.71 878.512 1488.71 876.982C1488.71 875.418 1489.08 874.177 1489.87 873.259C1490.65 872.324 1491.69 871.865 1493.01 871.865C1494.08 871.865 1494.95 872.12 1495.61 872.647C1496.24 873.14 1496.65 873.837 1496.84 874.755H1498.23C1498.01 873.429 1497.48 872.426 1496.63 871.729C1495.73 870.981 1494.52 870.624 1493.01 870.624ZM1500.54 870.862V883H1501.94V873.021H1501.99L1508.89 883H1510.32V870.862H1508.92V880.739H1508.87L1502.01 870.862H1500.54ZM1518.42 870.862V883H1523.81C1525.05 883 1526.04 882.745 1526.75 882.269C1527.59 881.691 1528.01 880.807 1528.01 879.617C1528.01 878.801 1527.77 878.155 1527.33 877.645C1526.89 877.135 1526.28 876.795 1525.48 876.659C1526.09 876.455 1526.58 876.132 1526.96 875.69C1527.31 875.197 1527.5 874.602 1527.5 873.922C1527.5 872.97 1527.18 872.222 1526.53 871.678C1525.87 871.134 1524.97 870.862 1523.85 870.862H1518.42ZM1519.82 872.035H1523.52C1524.37 872.035 1525.02 872.188 1525.46 872.528C1525.9 872.868 1526.12 873.378 1526.12 874.058C1526.12 874.755 1525.89 875.282 1525.44 875.639C1525 875.979 1524.36 876.166 1523.51 876.166H1519.82V872.035ZM1519.82 877.322H1523.69C1524.63 877.322 1525.34 877.492 1525.84 877.866C1526.35 878.24 1526.62 878.818 1526.62 879.6C1526.62 880.382 1526.31 880.977 1525.72 881.351C1525.21 881.657 1524.54 881.827 1523.69 881.827H1519.82V877.322ZM1528.79 870.862L1533.63 878.07V883H1535.03V878.07L1539.87 870.862H1538.19L1534.33 876.778L1530.47 870.862H1528.79Z" fill="#666666"/>
<path d="M65.104 900.292C64.576 900.864 63.916 901.37 63.124 901.854C62.332 902.294 61.606 902.602 60.902 902.778V905.154C62.354 904.736 63.564 904.076 64.51 903.174V916H66.908V900.292H65.104ZM71.0705 900.292L70.2125 909.092H72.4565C72.7645 908.52 73.1825 908.102 73.7545 907.838C74.2825 907.574 74.8765 907.464 75.5805 907.464C76.6365 907.464 77.4285 907.772 78.0005 908.388C78.5725 909.004 78.8585 909.862 78.8585 910.962C78.8585 911.974 78.5285 912.766 77.8685 913.382C77.2085 913.976 76.3945 914.284 75.4265 914.284C74.5465 914.284 73.8425 914.086 73.3145 913.69C72.7205 913.25 72.3685 912.568 72.2805 911.688H69.9265C70.0365 913.14 70.6525 914.306 71.7745 915.142C72.7865 915.912 73.9965 916.308 75.4045 916.308C76.9665 916.308 78.3085 915.846 79.4305 914.922C80.6185 913.888 81.2345 912.568 81.2345 910.94C81.2345 909.246 80.7505 907.926 79.8265 906.958C78.9025 905.99 77.6925 905.506 76.2185 905.506C75.5145 905.506 74.8545 905.616 74.2825 905.858C73.6445 906.078 73.0945 906.43 72.6105 906.936H72.5445L73.0065 902.404H80.5305V900.292H71.0705ZM89.0139 899.984C87.3419 899.984 85.9779 900.534 84.9659 901.678C83.9759 902.734 83.4699 904.142 83.4479 905.902H85.8459C85.8899 904.626 86.1539 903.68 86.6819 903.02C87.1879 902.338 87.9359 902.008 88.9259 902.008C89.8499 902.008 90.5759 902.228 91.0599 902.668C91.5439 903.108 91.7859 903.768 91.7859 904.648C91.7859 905.572 91.4119 906.43 90.7079 907.222C90.2679 907.684 89.5199 908.278 88.4639 909.026C86.6819 910.258 85.4939 911.204 84.9219 911.886C83.8659 913.074 83.3599 914.438 83.3599 916H94.1839V913.888H86.3299C86.6599 913.03 87.6719 912.04 89.3659 910.918C90.9279 909.862 92.0059 909.026 92.6219 908.388C93.6339 907.266 94.1619 906.034 94.1619 904.67C94.1619 903.284 93.6779 902.162 92.7319 901.282C91.7639 900.402 90.5099 899.984 89.0139 899.984ZM102.205 899.984C100.533 899.984 99.1693 900.534 98.1573 901.678C97.1673 902.734 96.6613 904.142 96.6393 905.902H99.0373C99.0813 904.626 99.3453 903.68 99.8733 903.02C100.379 902.338 101.127 902.008 102.117 902.008C103.041 902.008 103.767 902.228 104.251 902.668C104.735 903.108 104.977 903.768 104.977 904.648C104.977 905.572 104.603 906.43 103.899 907.222C103.459 907.684 102.711 908.278 101.655 909.026C99.8733 910.258 98.6853 911.204 98.1133 911.886C97.0573 913.074 96.5513 914.438 96.5513 916H107.375V913.888H99.5213C99.8513 913.03 100.863 912.04 102.557 910.918C104.119 909.862 105.197 909.026 105.813 908.388C106.825 907.266 107.353 906.034 107.353 904.67C107.353 903.284 106.869 902.162 105.923 901.282C104.955 900.402 103.701 899.984 102.205 899.984ZM110.645 900.292L109.787 909.092H112.031C112.339 908.52 112.757 908.102 113.329 907.838C113.857 907.574 114.451 907.464 115.155 907.464C116.211 907.464 117.003 907.772 117.575 908.388C118.147 909.004 118.433 909.862 118.433 910.962C118.433 911.974 118.103 912.766 117.443 913.382C116.783 913.976 115.969 914.284 115.001 914.284C114.121 914.284 113.417 914.086 112.889 913.69C112.295 913.25 111.943 912.568 111.855 911.688H109.501C109.611 913.14 110.227 914.306 111.349 915.142C112.361 915.912 113.571 916.308 114.979 916.308C116.541 916.308 117.883 915.846 119.005 914.922C120.193 913.888 120.809 912.568 120.809 910.94C120.809 909.246 120.325 907.926 119.401 906.958C118.477 905.99 117.267 905.506 115.793 905.506C115.089 905.506 114.429 905.616 113.857 905.858C113.219 906.078 112.669 906.43 112.185 906.936H112.119L112.581 902.404H120.105V900.292H110.645ZM128.566 899.984C126.762 899.984 125.31 900.776 124.254 902.382C123.198 903.966 122.692 906.034 122.692 908.586C122.692 910.984 123.176 912.854 124.144 914.196C125.156 915.604 126.608 916.308 128.544 916.308C130.084 916.308 131.404 915.78 132.46 914.768C133.494 913.756 134.022 912.458 134.022 910.896C134.022 909.356 133.56 908.08 132.658 907.09C131.734 906.122 130.502 905.638 128.962 905.638C128.126 905.638 127.4 905.792 126.784 906.122C126.102 906.452 125.552 906.958 125.112 907.662H125.024C125.002 907.53 125.002 907.442 125.002 907.376C125.002 905.836 125.31 904.582 125.948 903.57C126.586 902.492 127.444 901.964 128.544 901.964C130.128 901.964 131.074 902.712 131.404 904.252H133.736C133.34 901.392 131.602 899.984 128.566 899.984ZM128.478 907.574C129.446 907.574 130.238 907.882 130.81 908.498C131.382 909.07 131.668 909.884 131.668 910.896C131.668 911.886 131.36 912.7 130.766 913.36C130.194 913.998 129.424 914.328 128.456 914.328C127.51 914.328 126.74 914.02 126.168 913.404C125.574 912.788 125.288 911.974 125.288 910.962C125.288 909.928 125.574 909.114 126.146 908.498C126.718 907.882 127.488 907.574 128.478 907.574ZM141.758 899.984C139.954 899.984 138.502 900.776 137.446 902.382C136.389 903.966 135.884 906.034 135.884 908.586C135.884 910.984 136.368 912.854 137.336 914.196C138.348 915.604 139.8 916.308 141.736 916.308C143.276 916.308 144.596 915.78 145.652 914.768C146.686 913.756 147.214 912.458 147.214 910.896C147.214 909.356 146.752 908.08 145.85 907.09C144.926 906.122 143.694 905.638 142.154 905.638C141.318 905.638 140.591 905.792 139.976 906.122C139.294 906.452 138.744 906.958 138.304 907.662H138.216C138.194 907.53 138.194 907.442 138.194 907.376C138.194 905.836 138.502 904.582 139.14 903.57C139.778 902.492 140.636 901.964 141.736 901.964C143.32 901.964 144.266 902.712 144.596 904.252H146.928C146.532 901.392 144.794 899.984 141.758 899.984ZM141.67 907.574C142.638 907.574 143.43 907.882 144.002 908.498C144.574 909.07 144.86 909.884 144.86 910.896C144.86 911.886 144.552 912.7 143.958 913.36C143.386 913.998 142.616 914.328 141.648 914.328C140.702 914.328 139.932 914.02 139.36 913.404C138.766 912.788 138.48 911.974 138.48 910.962C138.48 909.928 138.766 909.114 139.338 908.498C139.91 907.882 140.68 907.574 141.67 907.574ZM148.811 900.292V902.47H156.951L151.253 916H153.805L159.371 902.228V900.292H148.811ZM166.67 899.984C165.108 899.984 163.81 900.49 162.754 901.524C161.698 902.536 161.192 903.812 161.192 905.396C161.192 906.936 161.632 908.19 162.534 909.158C163.458 910.148 164.712 910.654 166.252 910.654C167.066 910.654 167.792 910.478 168.43 910.17C169.09 909.818 169.662 909.312 170.102 908.63H170.19C170.19 908.74 170.212 908.828 170.212 908.916C170.212 910.434 169.882 911.71 169.266 912.722C168.606 913.778 167.748 914.328 166.67 914.328C165.086 914.328 164.118 913.558 163.81 912.04H161.478C161.874 914.878 163.59 916.308 166.648 916.308C168.452 916.308 169.882 915.494 170.96 913.91C171.994 912.326 172.522 910.258 172.522 907.706C172.522 905.286 172.016 903.416 171.048 902.074C170.036 900.666 168.584 899.984 166.67 899.984ZM166.758 901.964C167.682 901.964 168.452 902.272 169.046 902.888C169.618 903.482 169.926 904.296 169.926 905.33C169.926 906.342 169.64 907.178 169.068 907.794C168.496 908.41 167.704 908.718 166.736 908.718C165.746 908.718 164.976 908.41 164.426 907.794C163.832 907.2 163.546 906.408 163.546 905.396C163.546 904.384 163.832 903.57 164.426 902.932C164.998 902.272 165.79 901.964 166.758 901.964ZM179.862 899.984C178.3 899.984 177.002 900.49 175.946 901.524C174.889 902.536 174.384 903.812 174.384 905.396C174.384 906.936 174.824 908.19 175.726 909.158C176.65 910.148 177.904 910.654 179.444 910.654C180.258 910.654 180.984 910.478 181.622 910.17C182.282 909.818 182.854 909.312 183.294 908.63H183.382C183.382 908.74 183.404 908.828 183.404 908.916C183.404 910.434 183.074 911.71 182.458 912.722C181.798 913.778 180.94 914.328 179.862 914.328C178.278 914.328 177.31 913.558 177.002 912.04H174.67C175.066 914.878 176.782 916.308 179.84 916.308C181.644 916.308 183.074 915.494 184.152 913.91C185.186 912.326 185.714 910.258 185.714 907.706C185.714 905.286 185.208 903.416 184.24 902.074C183.228 900.666 181.776 899.984 179.862 899.984ZM179.95 901.964C180.874 901.964 181.644 902.272 182.238 902.888C182.81 903.482 183.118 904.296 183.118 905.33C183.118 906.342 182.832 907.178 182.26 907.794C181.688 908.41 180.896 908.718 179.928 908.718C178.938 908.718 178.168 908.41 177.618 907.794C177.024 907.2 176.738 906.408 176.738 905.396C176.738 904.384 177.024 903.57 177.618 902.932C178.19 902.272 178.982 901.964 179.95 901.964ZM194.813 900.292L187.069 910.324V912.59H194.725V916H197.013V912.59H199.389V910.676H197.013V900.292H194.813ZM194.659 903.328H194.725V910.676H189.027L194.659 903.328Z" fill="black"/>
<path d="M61.54 66.292V76.016C61.54 78.062 62.112 79.624 63.256 80.724C64.356 81.78 65.94 82.308 68.03 82.308C70.098 82.308 71.682 81.758 72.804 80.702C73.926 79.624 74.498 78.062 74.498 76.016V66.292H72.1V76.06C72.1 77.468 71.77 78.502 71.132 79.184C70.472 79.866 69.438 80.218 68.03 80.218C66.6 80.218 65.566 79.866 64.906 79.184C64.246 78.502 63.938 77.468 63.938 76.06V66.292H61.54ZM77.6113 66.292V82H79.9873V66.292H77.6113ZM89.9083 63.96L82.2083 84.2H84.2543L91.9323 63.96H89.9083ZM94.1103 66.292V76.016C94.1103 78.062 94.6823 79.624 95.8263 80.724C96.9263 81.78 98.5103 82.308 100.6 82.308C102.668 82.308 104.252 81.758 105.374 80.702C106.496 79.624 107.068 78.062 107.068 76.016V66.292H104.67V76.06C104.67 77.468 104.34 78.502 103.702 79.184C103.042 79.866 102.008 80.218 100.6 80.218C99.1703 80.218 98.1363 79.866 97.4763 79.184C96.8163 78.502 96.5083 77.468 96.5083 76.06V66.292H94.1103ZM109.082 66.292L114.362 73.882L108.708 82H111.634L115.836 75.774L120.038 82H122.964L117.266 73.882L122.59 66.292H119.664L115.836 71.968L112.008 66.292H109.082ZM131.944 66.292V82H137.62C140.15 82 142.064 81.296 143.384 79.888C144.638 78.524 145.276 76.61 145.276 74.146C145.276 71.66 144.66 69.746 143.428 68.426C142.108 66.996 140.194 66.292 137.664 66.292H131.944ZM134.342 68.338H137.224C139.204 68.338 140.656 68.8 141.58 69.746C142.46 70.67 142.922 72.122 142.922 74.146C142.922 76.126 142.46 77.578 141.558 78.524C140.634 79.47 139.16 79.954 137.18 79.954H134.342V68.338ZM147.714 66.292V82H159.374V79.954H150.112V74.96H158.472V72.914H150.112V68.338H159V66.292H147.714ZM167.308 65.984C165.636 65.984 164.25 66.358 163.15 67.106C161.984 67.898 161.412 68.976 161.412 70.362C161.412 71.726 162.006 72.782 163.216 73.508C163.7 73.772 164.888 74.19 166.824 74.806C168.562 75.334 169.596 75.686 169.948 75.862C170.938 76.368 171.444 77.05 171.444 77.93C171.444 78.634 171.092 79.184 170.388 79.58C169.684 79.976 168.738 80.196 167.55 80.196C166.23 80.196 165.262 79.954 164.624 79.47C163.92 78.942 163.48 78.04 163.304 76.808H160.928C161.06 78.788 161.764 80.24 163.062 81.164C164.14 81.912 165.636 82.308 167.55 82.308C169.53 82.308 171.07 81.912 172.17 81.12C173.27 80.306 173.82 79.206 173.82 77.798C173.82 76.346 173.138 75.224 171.796 74.41C171.18 74.036 169.794 73.53 167.682 72.87C166.208 72.43 165.306 72.1 164.954 71.902C164.162 71.484 163.788 70.934 163.788 70.23C163.788 69.438 164.118 68.866 164.8 68.514C165.35 68.206 166.142 68.052 167.176 68.052C168.364 68.052 169.244 68.272 169.86 68.734C170.476 69.174 170.872 69.922 171.092 70.934H173.468C173.314 69.218 172.698 67.964 171.598 67.15C170.564 66.358 169.134 65.984 167.308 65.984ZM176.096 66.292V82H178.472V66.292H176.096ZM188.393 65.984C186.083 65.984 184.235 66.776 182.871 68.404C181.573 69.922 180.935 71.858 180.935 74.212C180.935 76.544 181.573 78.458 182.871 79.932C184.257 81.516 186.193 82.308 188.701 82.308C190.065 82.308 191.319 82.132 192.463 81.78C193.541 81.428 194.487 80.944 195.301 80.306V73.706H188.569V75.752H192.903V79.162C192.375 79.492 191.803 79.756 191.143 79.932C190.461 80.108 189.735 80.218 188.965 80.218C187.007 80.218 185.555 79.668 184.631 78.568C183.751 77.556 183.333 76.104 183.333 74.212C183.333 72.276 183.795 70.758 184.763 69.658C185.665 68.602 186.875 68.096 188.393 68.096C189.625 68.096 190.637 68.36 191.385 68.91C192.133 69.438 192.617 70.23 192.837 71.286H195.257C194.971 69.526 194.267 68.228 193.145 67.348C191.979 66.424 190.395 65.984 188.393 65.984ZM198.181 66.292V82H200.579V70.186H200.667L208.785 82H211.117V66.292H208.719V77.974H208.631L200.601 66.292H198.181ZM232.82 72.408C232.336 72.408 231.962 72.562 231.654 72.914C231.302 73.222 231.148 73.596 231.148 74.08C231.148 74.52 231.302 74.916 231.654 75.246C231.962 75.576 232.336 75.752 232.82 75.752C233.282 75.752 233.678 75.576 233.986 75.246C234.316 74.916 234.492 74.52 234.492 74.08C234.492 73.596 234.316 73.222 233.986 72.914C233.678 72.562 233.282 72.408 232.82 72.408ZM255.943 64.136L254.491 65.522C256.075 66.798 257.307 67.964 258.165 69.064L259.683 67.59C258.649 66.446 257.395 65.302 255.943 64.136ZM268.549 83.892H273.609L274.137 81.824C273.521 81.868 272.663 81.912 271.563 81.934C270.441 81.956 269.341 81.978 268.263 81.978C266.591 81.978 265.139 81.956 263.907 81.934C262.631 81.89 261.663 81.692 261.025 81.384C260.497 81.098 259.969 80.658 259.463 80.064C259.353 79.932 259.265 79.844 259.177 79.756V71.418H254.249V73.354H257.219V79.58C256.339 80.02 255.327 81.142 254.227 82.924L255.767 84.354C256.889 82.374 257.681 81.384 258.143 81.384C258.407 81.384 258.671 81.56 258.957 81.934C259.617 82.682 260.365 83.21 261.245 83.474C262.147 83.694 263.291 83.826 264.699 83.848C266.085 83.87 267.361 83.892 268.549 83.892ZM261.927 65.038V66.974H272.223V65.038H261.927ZM260.541 70.01V71.99H264.963C263.313 75.972 262.037 78.106 261.157 78.37L261.685 80.174C265.513 79.778 268.637 79.294 271.013 78.7C271.233 79.316 271.453 79.932 271.673 80.592L273.543 80.108C272.641 77.512 271.607 75.224 270.463 73.222L268.769 73.772C269.297 74.762 269.803 75.796 270.287 76.896C268.593 77.336 266.525 77.688 264.061 77.996C265.007 76.61 265.997 74.608 267.053 71.99H273.829V70.01H260.541ZM280.319 71.924V76.632H291.737V71.924H280.319ZM289.823 75.092H282.255V73.508H289.823V75.092ZM293.805 77.82H278.339V84.288H280.385V83.43H291.781V84.288H293.805V77.82ZM280.385 81.692V79.536H291.781V81.692H280.385ZM276.447 65.324V67.15H281.221V68.272H283.289V67.15H288.657V68.272H290.725V67.15H295.499V65.324H290.725V64.004H288.657V65.324H283.289V64.004H281.221V65.324H276.447ZM295.059 68.954H276.887V73.442H278.889V70.714H293.057V73.332H295.059V68.954ZM300.691 64.29L299.261 65.654C300.779 66.798 301.967 67.898 302.803 68.932L304.233 67.48C303.265 66.424 302.099 65.346 300.691 64.29ZM297.875 70.56V72.562H300.779V80.57C300.779 81.032 300.581 81.428 300.229 81.736L301.021 83.628C302.627 82.594 304.145 81.406 305.575 80.086L305.003 77.886C304.211 78.634 303.485 79.294 302.803 79.866V70.56H297.875ZM305.729 73.178V75.202H306.983C307.511 76.962 308.545 78.568 310.041 80.02C308.457 81.076 306.499 81.934 304.167 82.616L305.333 84.376C307.841 83.628 309.975 82.638 311.691 81.406C313.187 82.506 315.013 83.518 317.213 84.398L318.335 82.594C316.355 81.89 314.639 81.054 313.231 80.13C314.705 78.722 315.761 77.05 316.399 75.092V73.178H305.729ZM308.941 75.202H314.287C313.649 76.566 312.725 77.776 311.537 78.854C310.305 77.754 309.447 76.544 308.941 75.202ZM307.269 64.686V67.524C307.269 69.02 306.323 70.186 304.475 71.022L305.861 72.628C308.171 71.374 309.337 69.592 309.337 67.304V66.644H312.989V69.768C312.989 71.22 313.759 71.968 315.321 71.968H317.807V70.054H315.871C315.321 70.054 315.057 69.79 315.057 69.306V64.686H307.269ZM326.783 70.384V72.452H332.547V84.31H334.703V72.452H340.159V70.384H334.703V63.938H332.547V70.384H326.783ZM322.779 64.136L321.327 65.566C322.889 66.71 324.099 67.81 324.979 68.844L326.409 67.392C325.419 66.292 324.209 65.214 322.779 64.136ZM319.875 70.516V72.518H322.955V80.614C322.955 81.054 322.757 81.428 322.383 81.736L323.175 83.606C324.781 82.572 326.299 81.384 327.707 80.064L327.157 77.93C326.387 78.656 325.661 79.316 324.957 79.888V70.516H319.875ZM361.125 72.408C360.641 72.408 360.267 72.562 359.959 72.914C359.607 73.222 359.453 73.596 359.453 74.08C359.453 74.52 359.607 74.916 359.959 75.246C360.267 75.576 360.641 75.752 361.125 75.752C361.587 75.752 361.983 75.576 362.291 75.246C362.621 74.916 362.797 74.52 362.797 74.08C362.797 73.596 362.621 73.222 362.291 72.914C361.983 72.562 361.587 72.408 361.125 72.408ZM378.703 64.708V72.386H391.199V64.708H378.703ZM389.109 70.406H380.793V66.688H389.109V70.406ZM383.895 74.036H375.755V83.936H377.801V82.88H381.871V83.936H383.895V74.036ZM377.801 80.922V76.016H381.871V80.922H377.801ZM394.147 74.036H385.765V83.936H387.811V82.88H392.057V83.936H394.147V74.036ZM387.811 80.922V76.016H392.057V80.922H387.811ZM401.803 64.202V69.9H400.065V64.642H398.041V72.716C398.019 77.49 397.535 80.966 396.567 83.122L398.107 84.464C399.053 82.616 399.669 79.976 399.933 76.5H402.045V83.958H404.069V74.542H400.021C400.043 73.97 400.065 73.354 400.065 72.716V71.858H404.927V69.9H403.827V64.202H401.803ZM405.697 65.808V75.466H408.711C408.183 76.126 407.391 76.676 406.357 77.16L407.039 78.216H404.817V80.218H411.373V84.2H413.397V80.218H417.027V78.216H413.397V76.148H411.373V78.216H408.073C409.217 77.622 410.075 76.852 410.669 75.884C410.735 75.752 410.801 75.62 410.889 75.466H416.037V65.808H411.241C411.483 65.258 411.681 64.686 411.835 64.092L409.767 63.828C409.635 64.51 409.415 65.17 409.129 65.808H405.697ZM414.145 73.662H411.483C411.615 73.002 411.725 72.276 411.791 71.484H414.145V73.662ZM409.569 73.662H407.567V71.484H409.899C409.855 72.276 409.745 73.002 409.569 73.662ZM407.567 69.746V67.634H409.943V69.746H407.567ZM411.835 67.634H414.145V69.746H411.835V67.634ZM421.669 64.29L420.239 65.654C421.757 66.798 422.945 67.898 423.781 68.932L425.211 67.48C424.243 66.424 423.077 65.346 421.669 64.29ZM418.853 70.56V72.562H421.757V80.57C421.757 81.032 421.559 81.428 421.207 81.736L421.999 83.628C423.605 82.594 425.123 81.406 426.553 80.086L425.981 77.886C425.189 78.634 424.463 79.294 423.781 79.866V70.56H418.853ZM426.707 73.178V75.202H427.961C428.489 76.962 429.523 78.568 431.019 80.02C429.435 81.076 427.477 81.934 425.145 82.616L426.311 84.376C428.819 83.628 430.953 82.638 432.669 81.406C434.165 82.506 435.991 83.518 438.191 84.398L439.313 82.594C437.333 81.89 435.617 81.054 434.209 80.13C435.683 78.722 436.739 77.05 437.377 75.092V73.178H426.707ZM429.919 75.202H435.265C434.627 76.566 433.703 77.776 432.515 78.854C431.283 77.754 430.425 76.544 429.919 75.202ZM428.247 64.686V67.524C428.247 69.02 427.301 70.186 425.453 71.022L426.839 72.628C429.149 71.374 430.315 69.592 430.315 67.304V66.644H433.967V69.768C433.967 71.22 434.737 71.968 436.299 71.968H438.785V70.054H436.849C436.299 70.054 436.035 69.79 436.035 69.306V64.686H428.247ZM447.761 70.384V72.452H453.525V84.31H455.681V72.452H461.137V70.384H455.681V63.938H453.525V70.384H447.761ZM443.757 64.136L442.305 65.566C443.867 66.71 445.077 67.81 445.957 68.844L447.387 67.392C446.397 66.292 445.187 65.214 443.757 64.136ZM440.853 70.516V72.518H443.933V80.614C443.933 81.054 443.735 81.428 443.361 81.736L444.153 83.606C445.759 82.572 447.277 81.384 448.685 80.064L448.135 77.93C447.365 78.656 446.639 79.316 445.935 79.888V70.516H440.853Z" fill="#666666"/>
<mask id="path-13-outside-2_115_4" maskUnits="userSpaceOnUse" x="1496" y="73" width="53" height="36" fill="black">
<rect fill="white" x="1496" y="73" width="53" height="36"/>
<path d="M1509 74.24C1505.53 74.24 1502.74 75.41 1500.62 77.75C1498.56 79.955 1497.52 82.835 1497.48 86.435H1502.74C1502.83 83.915 1503.37 81.98 1504.36 80.72C1505.35 79.37 1506.84 78.695 1508.82 78.695C1510.66 78.695 1512.06 79.1 1513 79.955C1513.9 80.81 1514.4 82.115 1514.4 83.87C1514.4 85.67 1513.68 87.38 1512.28 88.955C1511.38 89.9 1509.94 91.115 1507.87 92.555C1504.14 95.12 1501.66 97.1 1500.49 98.45C1498.33 100.88 1497.3 103.715 1497.3 107H1519.71V102.365H1503.87C1504.59 100.745 1506.56 98.855 1509.85 96.695C1513 94.58 1515.25 92.87 1516.51 91.52C1518.58 89.225 1519.66 86.705 1519.66 83.915C1519.66 81.035 1518.67 78.74 1516.69 76.94C1514.67 75.14 1512.1 74.24 1509 74.24ZM1535.48 74.24C1531.7 74.24 1528.78 75.77 1526.71 78.92C1524.73 81.89 1523.74 85.895 1523.74 90.935C1523.74 95.975 1524.73 99.98 1526.71 102.95C1528.78 106.055 1531.7 107.63 1535.48 107.63C1539.22 107.63 1542.14 106.055 1544.26 102.95C1546.24 99.98 1547.23 95.975 1547.23 90.935C1547.23 85.895 1546.24 81.89 1544.26 78.92C1542.14 75.77 1539.22 74.24 1535.48 74.24ZM1535.48 78.695C1538 78.695 1539.8 80.09 1540.88 82.97C1541.6 84.905 1541.96 87.56 1541.96 90.935C1541.96 94.265 1541.6 96.92 1540.88 98.9C1539.8 101.735 1538 103.175 1535.48 103.175C1532.92 103.175 1531.12 101.735 1530.08 98.9C1529.36 96.92 1529 94.265 1529 90.935C1529 87.56 1529.36 84.905 1530.08 82.97C1531.12 80.09 1532.92 78.695 1535.48 78.695Z"/>
</mask>
<path d="M1500.62 77.75L1501.35 78.4344L1501.36 78.4275L1501.37 78.4205L1500.62 77.75ZM1497.48 86.435L1496.48 86.4225L1496.46 87.435H1497.48V86.435ZM1502.74 86.435V87.435H1503.7L1503.74 86.4707L1502.74 86.435ZM1504.36 80.72L1505.15 81.3378L1505.16 81.3248L1505.17 81.3114L1504.36 80.72ZM1513 79.955L1513.69 79.23L1513.68 79.2216L1513.67 79.2135L1513 79.955ZM1512.28 88.955L1513 89.6447L1513.02 89.6316L1513.03 89.618L1512.28 88.955ZM1507.87 92.555L1508.44 93.3793L1508.44 93.3759L1507.87 92.555ZM1500.49 98.45L1501.24 99.1144L1501.25 99.1049L1500.49 98.45ZM1497.3 107H1496.3V108H1497.3V107ZM1519.71 107V108H1520.71V107H1519.71ZM1519.71 102.365H1520.71V101.365H1519.71V102.365ZM1503.87 102.365L1502.95 101.959L1502.33 103.365H1503.87V102.365ZM1509.85 96.695L1510.4 97.5306L1510.41 97.5252L1509.85 96.695ZM1516.51 91.52L1517.24 92.2023L1517.25 92.1961L1517.25 92.1898L1516.51 91.52ZM1516.69 76.94L1517.36 76.2L1517.35 76.1926L1516.69 76.94ZM1509 73.24C1505.28 73.24 1502.21 74.5077 1499.88 77.0795L1501.37 78.4205C1503.27 76.3123 1505.78 75.24 1509 75.24V73.24ZM1499.9 77.0656C1497.62 79.4886 1496.52 82.6263 1496.48 86.4225L1498.47 86.4475C1498.52 83.0437 1499.49 80.4214 1501.35 78.4344L1499.9 77.0656ZM1497.48 87.435H1502.74V85.435H1497.48V87.435ZM1503.74 86.4707C1503.83 84.0442 1504.35 82.3576 1505.15 81.3378L1503.57 80.1022C1502.39 81.6024 1501.83 83.7858 1501.74 86.3993L1503.74 86.4707ZM1505.17 81.3114C1505.93 80.2672 1507.09 79.695 1508.82 79.695V77.695C1506.58 77.695 1504.77 78.4728 1503.55 80.1286L1505.17 81.3114ZM1508.82 79.695C1510.53 79.695 1511.64 80.0748 1512.33 80.6965L1513.67 79.2135C1512.47 78.1252 1510.79 77.695 1508.82 77.695V79.695ZM1512.31 80.68C1512.96 81.2921 1513.4 82.2991 1513.4 83.87H1515.4C1515.4 81.9309 1514.84 80.3279 1513.69 79.23L1512.31 80.68ZM1513.4 83.87C1513.4 85.3809 1512.8 86.8633 1511.53 88.292L1513.03 89.618C1514.55 87.8967 1515.4 85.9591 1515.4 83.87H1513.4ZM1511.56 88.2653C1510.72 89.1439 1509.34 90.3156 1507.3 91.7341L1508.44 93.3759C1510.54 91.9144 1512.04 90.656 1513 89.6447L1511.56 88.2653ZM1507.3 91.7307C1503.57 94.293 1501 96.3369 1499.73 97.7951L1501.25 99.1049C1502.32 97.8631 1504.7 95.947 1508.44 93.3793L1507.3 91.7307ZM1499.74 97.7856C1497.41 100.407 1496.3 103.481 1496.3 107H1498.3C1498.3 103.949 1499.25 101.353 1501.24 99.1144L1499.74 97.7856ZM1497.3 108H1519.71V106H1497.3V108ZM1520.71 107V102.365H1518.71V107H1520.71ZM1519.71 101.365H1503.87V103.365H1519.71V101.365ZM1504.78 102.771C1505.37 101.438 1507.13 99.6825 1510.4 97.5306L1509.3 95.8594C1506 98.0275 1503.8 100.052 1502.95 101.959L1504.78 102.771ZM1510.41 97.5252C1513.56 95.4108 1515.89 93.6451 1517.24 92.2023L1515.78 90.8377C1514.61 92.0949 1512.44 93.7492 1509.29 95.8648L1510.41 97.5252ZM1517.25 92.1898C1519.46 89.7427 1520.66 86.992 1520.66 83.915H1518.66C1518.66 86.418 1517.7 88.7073 1515.77 90.8502L1517.25 92.1898ZM1520.66 83.915C1520.66 80.7721 1519.56 78.2019 1517.36 76.2001L1516.02 77.6799C1517.78 79.2781 1518.66 81.2979 1518.66 83.915H1520.66ZM1517.35 76.1926C1515.12 74.2062 1512.31 73.24 1509 73.24V75.24C1511.89 75.24 1514.21 76.0738 1516.03 77.6874L1517.35 76.1926ZM1526.71 78.92L1527.54 79.4747L1527.54 79.4692L1526.71 78.92ZM1526.71 102.95L1525.88 103.505L1526.71 102.95ZM1544.26 102.95L1545.08 103.513L1545.09 103.505L1544.26 102.95ZM1544.26 78.92L1545.09 78.3653L1545.09 78.3626L1544.26 78.92ZM1540.88 82.97L1541.82 82.6213L1541.82 82.6189L1540.88 82.97ZM1540.88 98.9L1541.82 99.256L1541.82 99.2489L1541.82 99.2417L1540.88 98.9ZM1530.08 98.9L1529.14 99.2417L1529.14 99.2429L1530.08 98.9ZM1530.08 82.97L1531.02 83.3188L1531.02 83.3082L1530.08 82.97ZM1535.48 73.24C1531.38 73.24 1528.13 74.9309 1525.87 78.3708L1527.54 79.4692C1529.42 76.6091 1532.03 75.24 1535.48 75.24V73.24ZM1525.88 78.3653C1523.75 81.5543 1522.74 85.7757 1522.74 90.935H1524.74C1524.74 86.0143 1525.71 82.2257 1527.54 79.4747L1525.88 78.3653ZM1522.74 90.935C1522.74 96.0943 1523.75 100.316 1525.88 103.505L1527.54 102.395C1525.71 99.6443 1524.74 95.8557 1524.74 90.935H1522.74ZM1525.88 103.505C1528.13 106.888 1531.37 108.63 1535.48 108.63V106.63C1532.04 106.63 1529.42 105.222 1527.54 102.395L1525.88 103.505ZM1535.48 108.63C1539.56 108.63 1542.79 106.886 1545.08 103.513L1543.43 102.387C1541.5 105.224 1538.88 106.63 1535.48 106.63V108.63ZM1545.09 103.505C1547.22 100.316 1548.23 96.0943 1548.23 90.935H1546.23C1546.23 95.8557 1545.26 99.6443 1543.43 102.395L1545.09 103.505ZM1548.23 90.935C1548.23 85.7757 1547.22 81.5543 1545.09 78.3653L1543.43 79.4747C1545.26 82.2257 1546.23 86.0143 1546.23 90.935H1548.23ZM1545.09 78.3626C1542.79 74.9337 1539.55 73.24 1535.48 73.24V75.24C1538.89 75.24 1541.5 76.6063 1543.43 79.4774L1545.09 78.3626ZM1535.48 79.695C1536.55 79.695 1537.4 79.9842 1538.1 80.5381C1538.82 81.1023 1539.45 81.9973 1539.95 83.3211L1541.82 82.6189C1541.24 81.0627 1540.42 79.8202 1539.34 78.9669C1538.24 78.1033 1536.94 77.695 1535.48 77.695V79.695ZM1539.95 83.3187C1540.61 85.0938 1540.96 87.6133 1540.96 90.935H1542.96C1542.96 87.5067 1542.6 84.7162 1541.82 82.6213L1539.95 83.3187ZM1540.96 90.935C1540.96 94.2081 1540.61 96.7325 1539.94 98.5583L1541.82 99.2417C1542.6 97.1075 1542.96 94.3219 1542.96 90.935H1540.96ZM1539.95 98.544C1539.45 99.8467 1538.82 100.745 1538.1 101.317C1537.39 101.879 1536.54 102.175 1535.48 102.175V104.175C1536.95 104.175 1538.25 103.751 1539.34 102.884C1540.42 102.027 1541.23 100.788 1541.82 99.256L1539.95 98.544ZM1535.48 102.175C1534.4 102.175 1533.53 101.876 1532.83 101.317C1532.11 100.749 1531.5 99.8552 1531.02 98.5571L1529.14 99.2429C1529.7 100.78 1530.5 102.024 1531.59 102.884C1532.68 103.754 1534 104.175 1535.48 104.175V102.175ZM1531.02 98.5583C1530.36 96.7325 1530 94.2081 1530 90.935H1528C1528 94.3219 1528.37 97.1075 1529.14 99.2417L1531.02 98.5583ZM1530 90.935C1530 87.6133 1530.36 85.0938 1531.02 83.3187L1529.15 82.6213C1528.37 84.7162 1528 87.5067 1528 90.935H1530ZM1531.02 83.3082C1531.5 81.9888 1532.12 81.099 1532.83 80.5381C1533.53 79.9867 1534.39 79.695 1535.48 79.695V77.695C1534.01 77.695 1532.69 78.1008 1531.59 78.9669C1530.5 79.8235 1529.7 81.0712 1529.14 82.6318L1531.02 83.3082Z" fill="black" mask="url(#path-13-outside-2_115_4)"/>
<path d="M1509 117.24C1505.53 117.24 1502.74 118.41 1500.62 120.75C1498.56 122.955 1497.52 125.835 1497.48 129.435H1502.74C1502.83 126.915 1503.37 124.98 1504.36 123.72C1505.35 122.37 1506.84 121.695 1508.82 121.695C1510.66 121.695 1512.06 122.1 1513 122.955C1513.9 123.81 1514.4 125.115 1514.4 126.87C1514.4 128.67 1513.68 130.38 1512.28 131.955C1511.38 132.9 1509.94 134.115 1507.87 135.555C1504.14 138.12 1501.66 140.1 1500.49 141.45C1498.33 143.88 1497.3 146.715 1497.3 150H1519.71V145.365H1503.87C1504.59 143.745 1506.56 141.855 1509.85 139.695C1513 137.58 1515.25 135.87 1516.51 134.52C1518.58 132.225 1519.66 129.705 1519.66 126.915C1519.66 124.035 1518.67 121.74 1516.69 119.94C1514.67 118.14 1512.1 117.24 1509 117.24ZM1537.82 117.87C1536.74 118.995 1535.39 120.03 1533.77 121.02C1532.15 121.92 1530.62 122.55 1529.18 122.91V128.13C1532.15 127.275 1534.58 125.97 1536.52 124.215V150H1541.78V117.87H1537.82Z" fill="black"/>
<path d="M1352.54 900.292V916H1363.56V913.954H1354.92V900.292H1352.54ZM1365.58 900.292V916H1367.96V900.292H1365.58ZM1375.59 900.292L1369.54 916H1372.09L1373.57 911.952H1380.32L1381.8 916H1384.37L1378.32 900.292H1375.59ZM1374.29 909.972L1376.91 902.866H1377L1379.6 909.972H1374.29ZM1385.91 900.292V916H1388.3V904.186H1388.39L1396.51 916H1398.84V900.292H1396.44V911.974H1396.36L1388.33 900.292H1385.91ZM1408.73 899.984C1406.42 899.984 1404.57 900.776 1403.21 902.404C1401.91 903.922 1401.27 905.858 1401.27 908.212C1401.27 910.544 1401.91 912.458 1403.21 913.932C1404.59 915.516 1406.53 916.308 1409.04 916.308C1410.4 916.308 1411.66 916.132 1412.8 915.78C1413.88 915.428 1414.82 914.944 1415.64 914.306V907.706H1408.91V909.752H1413.24V913.162C1412.71 913.492 1412.14 913.756 1411.48 913.932C1410.8 914.108 1410.07 914.218 1409.3 914.218C1407.34 914.218 1405.89 913.668 1404.97 912.568C1404.09 911.556 1403.67 910.104 1403.67 908.212C1403.67 906.276 1404.13 904.758 1405.1 903.658C1406 902.602 1407.21 902.096 1408.73 902.096C1409.96 902.096 1410.97 902.36 1411.72 902.91C1412.47 903.438 1412.95 904.23 1413.17 905.286H1415.59C1415.31 903.526 1414.6 902.228 1413.48 901.348C1412.32 900.424 1410.73 899.984 1408.73 899.984ZM1424.02 899.984C1422.35 899.984 1420.96 900.358 1419.86 901.106C1418.69 901.898 1418.12 902.976 1418.12 904.362C1418.12 905.726 1418.72 906.782 1419.93 907.508C1420.41 907.772 1421.6 908.19 1423.53 908.806C1425.27 909.334 1426.31 909.686 1426.66 909.862C1427.65 910.368 1428.15 911.05 1428.15 911.93C1428.15 912.634 1427.8 913.184 1427.1 913.58C1426.39 913.976 1425.45 914.196 1424.26 914.196C1422.94 914.196 1421.97 913.954 1421.33 913.47C1420.63 912.942 1420.19 912.04 1420.01 910.808H1417.64C1417.77 912.788 1418.47 914.24 1419.77 915.164C1420.85 915.912 1422.35 916.308 1424.26 916.308C1426.24 916.308 1427.78 915.912 1428.88 915.12C1429.98 914.306 1430.53 913.206 1430.53 911.798C1430.53 910.346 1429.85 909.224 1428.51 908.41C1427.89 908.036 1426.5 907.53 1424.39 906.87C1422.92 906.43 1422.02 906.1 1421.66 905.902C1420.87 905.484 1420.5 904.934 1420.5 904.23C1420.5 903.438 1420.83 902.866 1421.51 902.514C1422.06 902.206 1422.85 902.052 1423.89 902.052C1425.07 902.052 1425.95 902.272 1426.57 902.734C1427.19 903.174 1427.58 903.922 1427.8 904.934H1430.18C1430.02 903.218 1429.41 901.964 1428.31 901.15C1427.27 900.358 1425.84 899.984 1424.02 899.984ZM1432.76 900.292V916H1435.16V908.96H1443.39V916H1445.79V900.292H1443.39V906.914H1435.16V900.292H1432.76ZM1453.39 900.292L1447.34 916H1449.89L1451.36 911.952H1458.12L1459.59 916H1462.16L1456.11 900.292H1453.39ZM1452.09 909.972L1454.71 902.866H1454.79L1457.39 909.972H1452.09ZM1463.7 900.292V916H1466.1V904.186H1466.19L1474.3 916H1476.64V900.292H1474.24V911.974H1474.15L1466.12 900.292H1463.7ZM1485.23 899.984C1483.56 899.984 1482.17 900.358 1481.07 901.106C1479.9 901.898 1479.33 902.976 1479.33 904.362C1479.33 905.726 1479.93 906.782 1481.14 907.508C1481.62 907.772 1482.81 908.19 1484.74 908.806C1486.48 909.334 1487.52 909.686 1487.87 909.862C1488.86 910.368 1489.36 911.05 1489.36 911.93C1489.36 912.634 1489.01 913.184 1488.31 913.58C1487.6 913.976 1486.66 914.196 1485.47 914.196C1484.15 914.196 1483.18 913.954 1482.54 913.47C1481.84 912.942 1481.4 912.04 1481.22 910.808H1478.85C1478.98 912.788 1479.68 914.24 1480.98 915.164C1482.06 915.912 1483.56 916.308 1485.47 916.308C1487.45 916.308 1488.99 915.912 1490.09 915.12C1491.19 914.306 1491.74 913.206 1491.74 911.798C1491.74 910.346 1491.06 909.224 1489.72 908.41C1489.1 908.036 1487.71 907.53 1485.6 906.87C1484.13 906.43 1483.23 906.1 1482.87 905.902C1482.08 905.484 1481.71 904.934 1481.71 904.23C1481.71 903.438 1482.04 902.866 1482.72 902.514C1483.27 902.206 1484.06 902.052 1485.1 902.052C1486.28 902.052 1487.16 902.272 1487.78 902.734C1488.4 903.174 1488.79 903.922 1489.01 904.934H1491.39C1491.23 903.218 1490.62 901.964 1489.52 901.15C1488.48 900.358 1487.05 899.984 1485.23 899.984ZM1493.97 900.292V916H1496.37V908.96H1504.6V916H1507V900.292H1504.6V906.914H1496.37V900.292H1493.97ZM1514.59 900.292L1508.54 916H1511.1L1512.57 911.952H1519.32L1520.8 916H1523.37L1517.32 900.292H1514.59ZM1513.3 909.972L1515.91 902.866H1516L1518.6 909.972H1513.3ZM1524.91 900.292V916H1527.31V904.186H1527.4L1535.51 916H1537.85V900.292H1535.45V911.974H1535.36L1527.33 900.292H1524.91Z" fill="black"/>
</g>
<defs>
<filter id="filter0_f_115_4" x="-399" y="-445" width="1069" height="1069" filterUnits="userSpaceOnUse" color-interpolation-filters="sRGB">
<feFlood flood-opacity="0" result="BackgroundImageFix"/>
<feBlend mode="normal" in="SourceGraphic" in2="BackgroundImageFix" result="shape"/>
<feGaussianBlur stdDeviation="117.5" result="effect1_foregroundBlur_115_4"/>
</filter>
<filter id="filter1_f_115_4" x="446" y="-17" width="1843" height="1843" filterUnits="userSpaceOnUse" color-interpolation-filters="sRGB">
<feFlood flood-opacity="0" result="BackgroundImageFix"/>
<feBlend mode="normal" in="SourceGraphic" in2="BackgroundImageFix" result="shape"/>
<feGaussianBlur stdDeviation="250" result="effect1_foregroundBlur_115_4"/>
</filter>
<filter id="filter2_d_115_4" x="419.489" y="426.462" width="763.689" height="147.567" filterUnits="userSpaceOnUse" color-interpolation-filters="sRGB">
<feFlood flood-opacity="0" result="BackgroundImageFix"/>
<feColorMatrix in="SourceAlpha" type="matrix" values="0 0 0 0 0 0 0 0 0 0 0 0 0 0 0 0 0 0 127 0" result="hardAlpha"/>
<feOffset dy="8"/>
<feGaussianBlur stdDeviation="7.5"/>
<feComposite in2="hardAlpha" operator="out"/>
<feColorMatrix type="matrix" values="0 0 0 0 0.668958 0 0 0 0 0.701416 0 0 0 0 0.704167 0 0 0 1 0"/>
<feBlend mode="normal" in2="BackgroundImageFix" result="effect1_dropShadow_115_4"/>
<feBlend mode="normal" in="SourceGraphic" in2="effect1_dropShadow_115_4" result="shape"/>
</filter>
<linearGradient id="paint0_linear_115_4" x1="800" y1="333" x2="800" y2="520" gradientUnits="userSpaceOnUse">
<stop/>
<stop offset="1" stop-opacity="0"/>
</linearGradient>
<linearGradient id="paint1_linear_115_4" x1="1021.87" y1="356.245" x2="629.367" y2="422.245" gradientUnits="userSpaceOnUse">
<stop stop-color="#99E1E8"/>
<stop offset="1" stop-color="#E3EEF0"/>
</linearGradient>
<clipPath id="clip0_115_4">
<rect width="1600" height="960" fill="white"/>
</clipPath>
</defs>
</svg>
